solid Nokia Lumia 710
facet normal -0.0 -0.0 1.0
outer loop
vertex 120.1 -0.0745793610125901 16.0
vertex 0.0 5.62542063898738 16.0
vertex 0.0 -0.0745793610125901 16.0
endloop
endfacet
facet normal -0.0 -0.0 1.0
outer loop
vertex 0.0 5.62542063898738 16.0
vertex 120.1 -0.0745793610125901 16.0
vertex 119.1 5.62542063898738 16.0
endloop
endfacet
facet normal -0.0 -0.0 1.0
outer loop
vertex 119.1 5.62542063898738 16.0
vertex 120.1 -0.0745793610125901 16.0
vertex 119.1 64.2100763834675 16.0
endloop
endfacet
facet normal -0.0 -0.0 1.0
outer loop
vertex 119.1 64.2100763834675 16.0
vertex 0.0 70.0254206389874 16.0
vertex 0.0 64.2100763834675 16.0
endloop
endfacet
facet normal -0.0 -0.0 1.0
outer loop
vertex 0.0 70.0254206389874 16.0
vertex 119.1 64.2100763834675 16.0
vertex 120.1 70.0254206389874 16.0
endloop
endfacet
facet normal -0.0 -0.0 1.0
outer loop
vertex 120.1 70.0254206389874 16.0
vertex 119.1 64.2100763834675 16.0
vertex 120.1 -0.0745793610125901 16.0
endloop
endfacet
facet normal -0.0 1.0 -0.0
outer loop
vertex 0.0 70.0254206389874 16.0
vertex 120.1 70.0254206389874 1.0
vertex 0.0 70.0254206389874 1.0
endloop
endfacet
facet normal -0.0 1.0 -0.0
outer loop
vertex 120.1 70.0254206389874 1.0
vertex 0.0 70.0254206389874 16.0
vertex 120.1 70.0254206389874 16.0
endloop
endfacet
facet normal 1.0 -0.0 -0.0
outer loop
vertex 120.1 70.0254206389874 1.0
vertex 120.1 -0.0745793610125901 16.0
vertex 120.1 -0.0745793610125901 1.0
endloop
endfacet
facet normal 1.0 -0.0 -0.0
outer loop
vertex 120.1 -0.0745793610125901 16.0
vertex 120.1 70.0254206389874 1.0
vertex 120.1 70.0254206389874 16.0
endloop
endfacet
facet normal 0.0 -1.0 0.0
outer loop
vertex 120.1 -0.0745793610125901 16.0
vertex 0.0 -0.0745793610125901 1.0
vertex 120.1 -0.0745793610125901 1.0
endloop
endfacet
facet normal 0.0 -1.0 0.0
outer loop
vertex 0.0 -0.0745793610125901 1.0
vertex 120.1 -0.0745793610125901 16.0
vertex 0.0 -0.0745793610125901 16.0
endloop
endfacet
facet normal -1.0 0.0 0.0
outer loop
vertex 0.0 5.62542063898738 16.0
vertex 0.0 -0.0745793610125901 1.0
vertex 0.0 -0.0745793610125901 16.0
endloop
endfacet
facet normal -1.0 0.0 0.0
outer loop
vertex 0.0 -0.0745793610125901 1.0
vertex 0.0 5.62542063898738 16.0
vertex 0.0 3.92542063898741 11.0
endloop
endfacet
facet normal -1.0 0.0 0.0
outer loop
vertex 0.0 70.0254206389874 16.0
vertex 0.0 65.9254206389874 11.0
vertex 0.0 64.2100763834675 16.0
endloop
endfacet
facet normal -1.0 0.0 0.0
outer loop
vertex 0.0 65.9254206389874 11.0
vertex 0.0 70.0254206389874 16.0
vertex 0.0 65.9254206389874 3.80000000000001
endloop
endfacet
facet normal -1.0 0.0 0.0
outer loop
vertex 0.0 -0.0745793610125901 1.0
vertex 0.0 3.92542063898741 3.80000000000001
vertex 0.0 70.0254206389874 1.0
endloop
endfacet
facet normal -1.0 0.0 0.0
outer loop
vertex 0.0 3.92542063898741 3.80000000000001
vertex 0.0 -0.0745793610125901 1.0
vertex 0.0 3.92542063898741 11.0
endloop
endfacet
facet normal -1.0 0.0 0.0
outer loop
vertex 0.0 70.0254206389874 1.0
vertex 0.0 3.92542063898741 3.80000000000001
vertex 0.0 65.9254206389874 3.80000000000001
endloop
endfacet
facet normal -1.0 0.0 0.0
outer loop
vertex 0.0 70.0254206389874 1.0
vertex 0.0 65.9254206389874 3.80000000000001
vertex 0.0 70.0254206389874 16.0
endloop
endfacet
facet normal 0.0 0.0 -1.0
outer loop
vertex 37.2328892774726 18.0348149148872 -4.0
vertex 37.2328892774726 16.0160263630876 -4.0
vertex 37.1 17.0254206389874 -4.0
endloop
endfacet
facet normal 0.0 0.0 -1.0
outer loop
vertex 37.2328892774726 16.0160263630876 -4.0
vertex 37.2328892774726 18.0348149148872 -4.0
vertex 37.6225009252407 18.9754206389874 -4.0
endloop
endfacet
facet normal 0.0 0.0 -1.0
outer loop
vertex 37.2328892774726 16.0160263630876 -4.0
vertex 37.6225009252407 18.9754206389874 -4.0
vertex 37.6225009252407 15.0754206389874 -4.0
endloop
endfacet
facet normal 0.0 0.0 -1.0
outer loop
vertex 37.6225009252407 15.0754206389874 -4.0
vertex 37.6225009252407 18.9754206389874 -4.0
vertex 38.2422835533725 19.7831370856149 -4.0
endloop
endfacet
facet normal 0.0 0.0 -1.0
outer loop
vertex 37.6225009252407 15.0754206389874 -4.0
vertex 38.2422835533725 19.7831370856149 -4.0
vertex 38.2422835533725 14.2677041923599 -4.0
endloop
endfacet
facet normal 0.0 0.0 -1.0
outer loop
vertex 38.2422835533725 14.2677041923599 -4.0
vertex 38.2422835533725 19.7831370856149 -4.0
vertex 39.05 20.4029197137467 -4.0
endloop
endfacet
facet normal 0.0 0.0 -1.0
outer loop
vertex 38.2422835533725 14.2677041923599 -4.0
vertex 39.05 20.4029197137467 -4.0
vertex 39.05 13.6479215642281 -4.0
endloop
endfacet
facet normal 0.0 0.0 -1.0
outer loop
vertex 39.05 13.6479215642281 -4.0
vertex 39.05 20.4029197137467 -4.0
vertex 39.9906057241002 20.7925313615148 -4.0
endloop
endfacet
facet normal 0.0 0.0 -1.0
outer loop
vertex 39.05 13.6479215642281 -4.0
vertex 39.9906057241002 20.7925313615148 -4.0
vertex 39.9906057241002 13.25830991646 -4.0
endloop
endfacet
facet normal 0.0 0.0 -1.0
outer loop
vertex 39.9906057241002 13.25830991646 -4.0
vertex 39.9906057241002 20.7925313615148 -4.0
vertex 41.0 20.9254206389874 -4.0
endloop
endfacet
facet normal 0.0 0.0 -1.0
outer loop
vertex 39.9906057241002 13.25830991646 -4.0
vertex 41.0 20.9254206389874 -4.0
vertex 41.0 13.1254206389874 -4.0
endloop
endfacet
facet normal 0.0 0.0 -1.0
outer loop
vertex 41.0 13.1254206389874 -4.0
vertex 41.0 20.9254206389874 -4.0
vertex 42.0093942758998 20.7925313615148 -4.0
endloop
endfacet
facet normal 0.0 0.0 -1.0
outer loop
vertex 41.0 13.1254206389874 -4.0
vertex 42.0093942758998 20.7925313615148 -4.0
vertex 42.0093942758998 13.25830991646 -4.0
endloop
endfacet
facet normal 0.0 0.0 -1.0
outer loop
vertex 42.0093942758998 13.25830991646 -4.0
vertex 42.0093942758998 20.7925313615148 -4.0
vertex 42.95 13.6479215642281 -4.0
endloop
endfacet
facet normal 0.0 0.0 -1.0
outer loop
vertex 42.95 13.6479215642281 -4.0
vertex 42.0093942758998 20.7925313615148 -4.0
vertex 42.95 20.4029197137467 -4.0
endloop
endfacet
facet normal 0.0 0.0 -1.0
outer loop
vertex 42.95 13.6479215642281 -4.0
vertex 42.95 20.4029197137467 -4.0
vertex 43.7577164466275 19.7831370856149 -4.0
endloop
endfacet
facet normal 0.0 0.0 -1.0
outer loop
vertex 42.95 13.6479215642281 -4.0
vertex 43.7577164466275 19.7831370856149 -4.0
vertex 43.7577164466275 14.2677041923599 -4.0
endloop
endfacet
facet normal 0.0 0.0 -1.0
outer loop
vertex 43.7577164466275 14.2677041923599 -4.0
vertex 43.7577164466275 19.7831370856149 -4.0
vertex 44.3774990747593 18.9754206389874 -4.0
endloop
endfacet
facet normal 0.0 0.0 -1.0
outer loop
vertex 43.7577164466275 14.2677041923599 -4.0
vertex 44.3774990747593 18.9754206389874 -4.0
vertex 44.3774990747593 15.0754206389874 -4.0
endloop
endfacet
facet normal 0.0 0.0 -1.0
outer loop
vertex 44.3774990747593 15.0754206389874 -4.0
vertex 44.3774990747593 18.9754206389874 -4.0
vertex 44.7671107225274 18.0348149148872 -4.0
endloop
endfacet
facet normal 0.0 0.0 -1.0
outer loop
vertex 44.3774990747593 15.0754206389874 -4.0
vertex 44.7671107225274 18.0348149148872 -4.0
vertex 44.7671107225274 16.0160263630876 -4.0
endloop
endfacet
facet normal 0.0 0.0 -1.0
outer loop
vertex 44.7671107225274 16.0160263630876 -4.0
vertex 44.7671107225274 18.0348149148872 -4.0
vertex 44.9 17.0254206389874 -4.0
endloop
endfacet
facet normal 0.0 0.0 -1.0
outer loop
vertex 37.2328892774726 53.9348149148873 -4.0
vertex 37.2328892774726 51.9160263630876 -4.0
vertex 37.1 52.9254206389874 -4.0
endloop
endfacet
facet normal 0.0 0.0 -1.0
outer loop
vertex 37.2328892774726 51.9160263630876 -4.0
vertex 37.2328892774726 53.9348149148873 -4.0
vertex 37.6225009252407 54.8754206389874 -4.0
endloop
endfacet
facet normal 0.0 0.0 -1.0
outer loop
vertex 37.2328892774726 51.9160263630876 -4.0
vertex 37.6225009252407 54.8754206389874 -4.0
vertex 37.6225009252407 50.9754206389874 -4.0
endloop
endfacet
facet normal 0.0 0.0 -1.0
outer loop
vertex 37.6225009252407 50.9754206389874 -4.0
vertex 37.6225009252407 54.8754206389874 -4.0
vertex 38.2422835533725 55.683137085615 -4.0
endloop
endfacet
facet normal 0.0 0.0 -1.0
outer loop
vertex 37.6225009252407 50.9754206389874 -4.0
vertex 38.2422835533725 55.683137085615 -4.0
vertex 38.2422835533725 50.1677041923599 -4.0
endloop
endfacet
facet normal 0.0 0.0 -1.0
outer loop
vertex 38.2422835533725 50.1677041923599 -4.0
vertex 38.2422835533725 55.683137085615 -4.0
vertex 39.05 56.3029197137467 -4.0
endloop
endfacet
facet normal 0.0 0.0 -1.0
outer loop
vertex 38.2422835533725 50.1677041923599 -4.0
vertex 39.05 56.3029197137467 -4.0
vertex 39.05 49.5479215642281 -4.0
endloop
endfacet
facet normal 0.0 0.0 -1.0
outer loop
vertex 39.05 49.5479215642281 -4.0
vertex 39.05 56.3029197137467 -4.0
vertex 39.9906057241002 56.6925313615148 -4.0
endloop
endfacet
facet normal 0.0 0.0 -1.0
outer loop
vertex 39.05 49.5479215642281 -4.0
vertex 39.9906057241002 56.6925313615148 -4.0
vertex 39.9906057241002 49.1583099164601 -4.0
endloop
endfacet
facet normal 0.0 0.0 -1.0
outer loop
vertex 39.9906057241002 49.1583099164601 -4.0
vertex 39.9906057241002 56.6925313615148 -4.0
vertex 41.0 56.8254206389874 -4.0
endloop
endfacet
facet normal 0.0 0.0 -1.0
outer loop
vertex 39.9906057241002 49.1583099164601 -4.0
vertex 41.0 56.8254206389874 -4.0
vertex 41.0 49.0254206389874 -4.0
endloop
endfacet
facet normal 0.0 0.0 -1.0
outer loop
vertex 41.0 49.0254206389874 -4.0
vertex 41.0 56.8254206389874 -4.0
vertex 42.0093942758998 56.6925313615148 -4.0
endloop
endfacet
facet normal 0.0 0.0 -1.0
outer loop
vertex 41.0 49.0254206389874 -4.0
vertex 42.0093942758998 56.6925313615148 -4.0
vertex 42.0093942758998 49.1583099164601 -4.0
endloop
endfacet
facet normal 0.0 0.0 -1.0
outer loop
vertex 42.0093942758998 49.1583099164601 -4.0
vertex 42.0093942758998 56.6925313615148 -4.0
vertex 42.95 49.5479215642281 -4.0
endloop
endfacet
facet normal 0.0 0.0 -1.0
outer loop
vertex 42.95 49.5479215642281 -4.0
vertex 42.0093942758998 56.6925313615148 -4.0
vertex 42.95 56.3029197137467 -4.0
endloop
endfacet
facet normal 0.0 0.0 -1.0
outer loop
vertex 42.95 49.5479215642281 -4.0
vertex 42.95 56.3029197137467 -4.0
vertex 43.7577164466275 55.683137085615 -4.0
endloop
endfacet
facet normal 0.0 0.0 -1.0
outer loop
vertex 42.95 49.5479215642281 -4.0
vertex 43.7577164466275 55.683137085615 -4.0
vertex 43.7577164466275 50.1677041923599 -4.0
endloop
endfacet
facet normal 0.0 0.0 -1.0
outer loop
vertex 43.7577164466275 50.1677041923599 -4.0
vertex 43.7577164466275 55.683137085615 -4.0
vertex 44.3774990747593 54.8754206389874 -4.0
endloop
endfacet
facet normal 0.0 0.0 -1.0
outer loop
vertex 43.7577164466275 50.1677041923599 -4.0
vertex 44.3774990747593 54.8754206389874 -4.0
vertex 44.3774990747593 50.9754206389874 -4.0
endloop
endfacet
facet normal 0.0 0.0 -1.0
outer loop
vertex 44.3774990747593 50.9754206389874 -4.0
vertex 44.3774990747593 54.8754206389874 -4.0
vertex 44.7671107225274 53.9348149148873 -4.0
endloop
endfacet
facet normal 0.0 0.0 -1.0
outer loop
vertex 44.3774990747593 50.9754206389874 -4.0
vertex 44.7671107225274 53.9348149148873 -4.0
vertex 44.7671107225274 51.9160263630876 -4.0
endloop
endfacet
facet normal 0.0 0.0 -1.0
outer loop
vertex 44.7671107225274 51.9160263630876 -4.0
vertex 44.7671107225274 53.9348149148873 -4.0
vertex 44.9 52.9254206389874 -4.0
endloop
endfacet
facet normal -0.0 -0.0 1.0
outer loop
vertex 0.0 3.92542063898741 3.80000000000001
vertex 18.6698729810778 32.6254206389874 3.80000000000001
vertex 0.0 65.9254206389874 3.80000000000001
endloop
endfacet
facet normal -0.0 -0.0 1.0
outer loop
vertex 18.6698729810778 32.6254206389874 3.80000000000001
vertex 0.0 3.92542063898741 3.80000000000001
vertex 19.4644660940673 31.5898867330547 3.80000000000001
endloop
endfacet
facet normal -0.0 -0.0 1.0
outer loop
vertex 19.4644660940673 31.5898867330547 3.80000000000001
vertex 0.0 3.92542063898741 3.80000000000001
vertex 20.5 30.7952936200652 3.80000000000001
endloop
endfacet
facet normal -0.0 -0.0 1.0
outer loop
vertex 20.5 30.7952936200652 3.80000000000001
vertex 0.0 3.92542063898741 3.80000000000001
vertex 21.7059047744874 30.295791507542 3.80000000000001
endloop
endfacet
facet normal -0.0 -0.0 1.0
outer loop
vertex 21.7059047744874 30.295791507542 3.80000000000001
vertex 0.0 3.92542063898741 3.80000000000001
vertex 119.1 3.92542063898741 3.80000000000001
endloop
endfacet
facet normal -0.0 -0.0 1.0
outer loop
vertex 0.0 65.9254206389874 3.80000000000001
vertex 18.6698729810778 32.6254206389874 3.80000000000001
vertex 18.1703708685547 33.8313254134748 3.80000000000001
endloop
endfacet
facet normal -0.0 -0.0 1.0
outer loop
vertex 0.0 65.9254206389874 3.80000000000001
vertex 18.1703708685547 33.8313254134748 3.80000000000001
vertex 18.0 35.1254206389874 3.80000000000001
endloop
endfacet
facet normal -0.0 -0.0 1.0
outer loop
vertex 21.7059047744874 30.295791507542 3.80000000000001
vertex 119.1 3.92542063898741 3.80000000000001
vertex 23.0 30.1254206389874 3.80000000000001
endloop
endfacet
facet normal -0.0 -0.0 1.0
outer loop
vertex 23.0 30.1254206389874 3.80000000000001
vertex 119.1 3.92542063898741 3.80000000000001
vertex 24.2940952255126 30.295791507542 3.80000000000001
endloop
endfacet
facet normal -0.0 -0.0 1.0
outer loop
vertex 24.2940952255126 30.295791507542 3.80000000000001
vertex 119.1 3.92542063898741 3.80000000000001
vertex 25.5 30.7952936200652 3.80000000000001
endloop
endfacet
facet normal -0.0 -0.0 1.0
outer loop
vertex 25.5 30.7952936200652 3.80000000000001
vertex 119.1 3.92542063898741 3.80000000000001
vertex 26.5355339059327 31.5898867330547 3.80000000000001
endloop
endfacet
facet normal -0.0 -0.0 1.0
outer loop
vertex 26.5355339059327 31.5898867330547 3.80000000000001
vertex 119.1 3.92542063898741 3.80000000000001
vertex 27.3301270189222 32.6254206389874 3.80000000000001
endloop
endfacet
facet normal -0.0 -0.0 1.0
outer loop
vertex 27.3301270189222 32.6254206389874 3.80000000000001
vertex 119.1 3.92542063898741 3.80000000000001
vertex 27.8296291314453 33.8313254134748 3.80000000000001
endloop
endfacet
facet normal -0.0 -0.0 1.0
outer loop
vertex 27.8296291314453 33.8313254134748 3.80000000000001
vertex 119.1 3.92542063898741 3.80000000000001
vertex 28.0 35.1254206389874 3.80000000000001
endloop
endfacet
facet normal -0.0 -0.0 1.0
outer loop
vertex 0.0 65.9254206389874 3.80000000000001
vertex 21.7059047744874 39.9550497704327 3.80000000000001
vertex 119.1 65.9254206389874 3.80000000000001
endloop
endfacet
facet normal -0.0 -0.0 1.0
outer loop
vertex 21.7059047744874 39.9550497704327 3.80000000000001
vertex 0.0 65.9254206389874 3.80000000000001
vertex 20.5 39.4555476579096 3.80000000000001
endloop
endfacet
facet normal -0.0 -0.0 1.0
outer loop
vertex 20.5 39.4555476579096 3.80000000000001
vertex 0.0 65.9254206389874 3.80000000000001
vertex 19.4644660940673 38.6609545449201 3.80000000000001
endloop
endfacet
facet normal -0.0 -0.0 1.0
outer loop
vertex 19.4644660940673 38.6609545449201 3.80000000000001
vertex 0.0 65.9254206389874 3.80000000000001
vertex 18.6698729810778 37.6254206389874 3.80000000000001
endloop
endfacet
facet normal -0.0 -0.0 1.0
outer loop
vertex 18.6698729810778 37.6254206389874 3.80000000000001
vertex 0.0 65.9254206389874 3.80000000000001
vertex 18.1703708685547 36.4195158645 3.80000000000001
endloop
endfacet
facet normal -0.0 -0.0 1.0
outer loop
vertex 18.1703708685547 36.4195158645 3.80000000000001
vertex 0.0 65.9254206389874 3.80000000000001
vertex 18.0 35.1254206389874 3.80000000000001
endloop
endfacet
facet normal -0.0 -0.0 1.0
outer loop
vertex 119.1 65.9254206389874 3.80000000000001
vertex 21.7059047744874 39.9550497704327 3.80000000000001
vertex 23.0 40.1254206389874 3.80000000000001
endloop
endfacet
facet normal -0.0 -0.0 1.0
outer loop
vertex 119.1 65.9254206389874 3.80000000000001
vertex 23.0 40.1254206389874 3.80000000000001
vertex 24.2940952255126 39.9550497704327 3.80000000000001
endloop
endfacet
facet normal -0.0 -0.0 1.0
outer loop
vertex 119.1 65.9254206389874 3.80000000000001
vertex 24.2940952255126 39.9550497704327 3.80000000000001
vertex 25.5 39.4555476579096 3.80000000000001
endloop
endfacet
facet normal -0.0 -0.0 1.0
outer loop
vertex 119.1 65.9254206389874 3.80000000000001
vertex 25.5 39.4555476579096 3.80000000000001
vertex 26.5355339059327 38.6609545449201 3.80000000000001
endloop
endfacet
facet normal -0.0 -0.0 1.0
outer loop
vertex 119.1 65.9254206389874 3.80000000000001
vertex 26.5355339059327 38.6609545449201 3.80000000000001
vertex 27.3301270189222 37.6254206389874 3.80000000000001
endloop
endfacet
facet normal -0.0 -0.0 1.0
outer loop
vertex 119.1 65.9254206389874 3.80000000000001
vertex 27.3301270189222 37.6254206389874 3.80000000000001
vertex 27.8296291314453 36.4195158645 3.80000000000001
endloop
endfacet
facet normal -0.0 -0.0 1.0
outer loop
vertex 119.1 65.9254206389874 3.80000000000001
vertex 27.8296291314453 36.4195158645 3.80000000000001
vertex 28.0 35.1254206389874 3.80000000000001
endloop
endfacet
facet normal -0.0 -0.0 1.0
outer loop
vertex 119.1 65.9254206389874 3.80000000000001
vertex 28.0 35.1254206389874 3.80000000000001
vertex 119.1 3.92542063898741 3.80000000000001
endloop
endfacet
facet normal -0.0 1.0 -0.0
outer loop
vertex 0.0 3.92542063898741 11.0
vertex 119.1 3.92542063898741 3.80000000000001
vertex 0.0 3.92542063898741 3.80000000000001
endloop
endfacet
facet normal -0.0 1.0 -0.0
outer loop
vertex 119.1 3.92542063898741 3.80000000000001
vertex 0.0 3.92542063898741 11.0
vertex 119.1 3.92542063898741 10.9069282788902
endloop
endfacet
facet normal -1.0 0.0 0.0
outer loop
vertex 119.1 5.62542063898738 16.0
vertex 119.1 3.92542063898741 3.80000000000001
vertex 119.1 3.92542063898741 10.9069282788902
endloop
endfacet
facet normal -1.0 0.0 0.0
outer loop
vertex 119.1 3.92542063898741 3.80000000000001
vertex 119.1 5.62542063898738 16.0
vertex 119.1 65.9254206389874 3.80000000000001
endloop
endfacet
facet normal -1.0 0.0 0.0
outer loop
vertex 119.1 65.9254206389874 3.80000000000001
vertex 119.1 5.62542063898738 16.0
vertex 119.1 64.2100763834675 16.0
endloop
endfacet
facet normal -1.0 0.0 0.0
outer loop
vertex 119.1 65.9254206389874 3.80000000000001
vertex 119.1 64.2100763834675 16.0
vertex 119.1 65.9254206389874 11.0
endloop
endfacet
facet normal 0.0 -0.945884493145311 -0.324503506340438
outer loop
vertex 119.1 64.2100763834675 16.0
vertex 0.0 65.9254206389874 11.0
vertex 119.1 65.9254206389874 11.0
endloop
endfacet
facet normal 0.0 -0.945884493145311 -0.324503506340438
outer loop
vertex 0.0 65.9254206389874 11.0
vertex 119.1 64.2100763834675 16.0
vertex 0.0 64.2100763834675 16.0
endloop
endfacet
facet normal 0.0 0.0 -1.0
outer loop
vertex 0.0 70.0254206389874 1.0
vertex 18.6698729810778 37.6254206389874 1.0
vertex 0.0 -0.0745793610125901 1.0
endloop
endfacet
facet normal 0.0 0.0 -1.0
outer loop
vertex 18.6698729810778 37.6254206389874 1.0
vertex 0.0 70.0254206389874 1.0
vertex 19.4644660940673 38.6609545449201 1.0
endloop
endfacet
facet normal 0.0 0.0 -1.0
outer loop
vertex 19.4644660940673 38.6609545449201 1.0
vertex 0.0 70.0254206389874 1.0
vertex 38.2422835533725 55.683137085615 1.0
endloop
endfacet
facet normal 0.0 0.0 -1.0
outer loop
vertex 38.2422835533725 55.683137085615 1.0
vertex 0.0 70.0254206389874 1.0
vertex 39.05 56.3029197137467 1.0
endloop
endfacet
facet normal 0.0 0.0 -1.0
outer loop
vertex 39.05 56.3029197137467 1.0
vertex 0.0 70.0254206389874 1.0
vertex 39.9906057241002 56.6925313615148 1.0
endloop
endfacet
facet normal 0.0 0.0 -1.0
outer loop
vertex 39.9906057241002 56.6925313615148 1.0
vertex 0.0 70.0254206389874 1.0
vertex 120.1 70.0254206389874 1.0
endloop
endfacet
facet normal 0.0 0.0 -1.0
outer loop
vertex 0.0 -0.0745793610125901 1.0
vertex 18.6698729810778 37.6254206389874 1.0
vertex 18.1703708685547 36.4195158645 1.0
endloop
endfacet
facet normal 0.0 0.0 -1.0
outer loop
vertex 0.0 -0.0745793610125901 1.0
vertex 18.1703708685547 36.4195158645 1.0
vertex 18.0 35.1254206389874 1.0
endloop
endfacet
facet normal 0.0 0.0 -1.0
outer loop
vertex 19.4644660940673 38.6609545449201 1.0
vertex 38.2422835533725 55.683137085615 1.0
vertex 20.5 39.4555476579096 1.0
endloop
endfacet
facet normal 0.0 0.0 -1.0
outer loop
vertex 20.5 39.4555476579096 1.0
vertex 38.2422835533725 55.683137085615 1.0
vertex 21.7059047744874 39.9550497704327 1.0
endloop
endfacet
facet normal 0.0 0.0 -1.0
outer loop
vertex 21.7059047744874 39.9550497704327 1.0
vertex 38.2422835533725 55.683137085615 1.0
vertex 23.0 40.1254206389874 1.0
endloop
endfacet
facet normal 0.0 0.0 -1.0
outer loop
vertex 23.0 40.1254206389874 1.0
vertex 38.2422835533725 55.683137085615 1.0
vertex 24.2940952255126 39.9550497704327 1.0
endloop
endfacet
facet normal 0.0 0.0 -1.0
outer loop
vertex 24.2940952255126 39.9550497704327 1.0
vertex 38.2422835533725 55.683137085615 1.0
vertex 25.5 39.4555476579096 1.0
endloop
endfacet
facet normal 0.0 0.0 -1.0
outer loop
vertex 25.5 39.4555476579096 1.0
vertex 38.2422835533725 55.683137085615 1.0
vertex 37.6225009252407 54.8754206389874 1.0
endloop
endfacet
facet normal 0.0 0.0 -1.0
outer loop
vertex 25.5 39.4555476579096 1.0
vertex 37.6225009252407 54.8754206389874 1.0
vertex 26.5355339059327 38.6609545449201 1.0
endloop
endfacet
facet normal 0.0 0.0 -1.0
outer loop
vertex 26.5355339059327 38.6609545449201 1.0
vertex 37.6225009252407 54.8754206389874 1.0
vertex 27.3301270189222 37.6254206389874 1.0
endloop
endfacet
facet normal 0.0 0.0 -1.0
outer loop
vertex 27.3301270189222 37.6254206389874 1.0
vertex 37.6225009252407 54.8754206389874 1.0
vertex 27.8296291314453 36.4195158645 1.0
endloop
endfacet
facet normal 0.0 0.0 -1.0
outer loop
vertex 27.8296291314453 36.4195158645 1.0
vertex 37.6225009252407 54.8754206389874 1.0
vertex 28.0 35.1254206389874 1.0
endloop
endfacet
facet normal 0.0 0.0 -1.0
outer loop
vertex 28.0 35.1254206389874 1.0
vertex 37.6225009252407 54.8754206389874 1.0
vertex 37.2328892774726 53.9348149148873 1.0
endloop
endfacet
facet normal 0.0 0.0 -1.0
outer loop
vertex 28.0 35.1254206389874 1.0
vertex 37.2328892774726 53.9348149148873 1.0
vertex 37.1 52.9254206389874 1.0
endloop
endfacet
facet normal 0.0 0.0 -1.0
outer loop
vertex 39.9906057241002 56.6925313615148 1.0
vertex 120.1 70.0254206389874 1.0
vertex 41.0 56.8254206389874 1.0
endloop
endfacet
facet normal 0.0 0.0 -1.0
outer loop
vertex 41.0 56.8254206389874 1.0
vertex 120.1 70.0254206389874 1.0
vertex 42.0093942758998 56.6925313615148 1.0
endloop
endfacet
facet normal 0.0 0.0 -1.0
outer loop
vertex 42.0093942758998 56.6925313615148 1.0
vertex 120.1 70.0254206389874 1.0
vertex 42.95 56.3029197137467 1.0
endloop
endfacet
facet normal 0.0 0.0 -1.0
outer loop
vertex 42.95 56.3029197137467 1.0
vertex 120.1 70.0254206389874 1.0
vertex 43.7577164466275 55.683137085615 1.0
endloop
endfacet
facet normal 0.0 0.0 -1.0
outer loop
vertex 43.7577164466275 55.683137085615 1.0
vertex 120.1 70.0254206389874 1.0
vertex 44.3774990747593 54.8754206389874 1.0
endloop
endfacet
facet normal 0.0 0.0 -1.0
outer loop
vertex 44.3774990747593 54.8754206389874 1.0
vertex 120.1 70.0254206389874 1.0
vertex 44.7671107225274 53.9348149148873 1.0
endloop
endfacet
facet normal 0.0 0.0 -1.0
outer loop
vertex 44.7671107225274 53.9348149148873 1.0
vertex 120.1 70.0254206389874 1.0
vertex 44.9 52.9254206389874 1.0
endloop
endfacet
facet normal 0.0 0.0 -1.0
outer loop
vertex 44.9 52.9254206389874 1.0
vertex 120.1 70.0254206389874 1.0
vertex 44.9 17.0254206389874 1.0
endloop
endfacet
facet normal 0.0 0.0 -1.0
outer loop
vertex 0.0 -0.0745793610125901 1.0
vertex 39.9906057241002 13.25830991646 1.0
vertex 120.1 -0.0745793610125901 1.0
endloop
endfacet
facet normal 0.0 0.0 -1.0
outer loop
vertex 39.9906057241002 13.25830991646 1.0
vertex 0.0 -0.0745793610125901 1.0
vertex 39.05 13.6479215642281 1.0
endloop
endfacet
facet normal 0.0 0.0 -1.0
outer loop
vertex 39.05 13.6479215642281 1.0
vertex 0.0 -0.0745793610125901 1.0
vertex 38.2422835533725 14.2677041923599 1.0
endloop
endfacet
facet normal 0.0 0.0 -1.0
outer loop
vertex 38.2422835533725 14.2677041923599 1.0
vertex 0.0 -0.0745793610125901 1.0
vertex 19.4644660940673 31.5898867330547 1.0
endloop
endfacet
facet normal 0.0 0.0 -1.0
outer loop
vertex 19.4644660940673 31.5898867330547 1.0
vertex 0.0 -0.0745793610125901 1.0
vertex 18.6698729810778 32.6254206389874 1.0
endloop
endfacet
facet normal 0.0 0.0 -1.0
outer loop
vertex 18.6698729810778 32.6254206389874 1.0
vertex 0.0 -0.0745793610125901 1.0
vertex 18.1703708685547 33.8313254134748 1.0
endloop
endfacet
facet normal 0.0 0.0 -1.0
outer loop
vertex 18.1703708685547 33.8313254134748 1.0
vertex 0.0 -0.0745793610125901 1.0
vertex 18.0 35.1254206389874 1.0
endloop
endfacet
facet normal 0.0 0.0 -1.0
outer loop
vertex 38.2422835533725 14.2677041923599 1.0
vertex 19.4644660940673 31.5898867330547 1.0
vertex 20.5 30.7952936200652 1.0
endloop
endfacet
facet normal 0.0 0.0 -1.0
outer loop
vertex 38.2422835533725 14.2677041923599 1.0
vertex 20.5 30.7952936200652 1.0
vertex 21.7059047744874 30.295791507542 1.0
endloop
endfacet
facet normal 0.0 0.0 -1.0
outer loop
vertex 38.2422835533725 14.2677041923599 1.0
vertex 21.7059047744874 30.295791507542 1.0
vertex 23.0 30.1254206389874 1.0
endloop
endfacet
facet normal 0.0 0.0 -1.0
outer loop
vertex 38.2422835533725 14.2677041923599 1.0
vertex 23.0 30.1254206389874 1.0
vertex 24.2940952255126 30.295791507542 1.0
endloop
endfacet
facet normal 0.0 0.0 -1.0
outer loop
vertex 38.2422835533725 14.2677041923599 1.0
vertex 24.2940952255126 30.295791507542 1.0
vertex 25.5 30.7952936200652 1.0
endloop
endfacet
facet normal 0.0 0.0 -1.0
outer loop
vertex 38.2422835533725 14.2677041923599 1.0
vertex 25.5 30.7952936200652 1.0
vertex 37.6225009252407 15.0754206389874 1.0
endloop
endfacet
facet normal 0.0 0.0 -1.0
outer loop
vertex 37.6225009252407 15.0754206389874 1.0
vertex 25.5 30.7952936200652 1.0
vertex 26.5355339059327 31.5898867330547 1.0
endloop
endfacet
facet normal 0.0 0.0 -1.0
outer loop
vertex 37.6225009252407 15.0754206389874 1.0
vertex 26.5355339059327 31.5898867330547 1.0
vertex 27.3301270189222 32.6254206389874 1.0
endloop
endfacet
facet normal 0.0 0.0 -1.0
outer loop
vertex 37.6225009252407 15.0754206389874 1.0
vertex 27.3301270189222 32.6254206389874 1.0
vertex 27.8296291314453 33.8313254134748 1.0
endloop
endfacet
facet normal 0.0 0.0 -1.0
outer loop
vertex 37.6225009252407 15.0754206389874 1.0
vertex 27.8296291314453 33.8313254134748 1.0
vertex 28.0 35.1254206389874 1.0
endloop
endfacet
facet normal 0.0 0.0 -1.0
outer loop
vertex 37.6225009252407 15.0754206389874 1.0
vertex 28.0 35.1254206389874 1.0
vertex 37.2328892774726 16.0160263630876 1.0
endloop
endfacet
facet normal 0.0 0.0 -1.0
outer loop
vertex 37.2328892774726 16.0160263630876 1.0
vertex 28.0 35.1254206389874 1.0
vertex 37.1 17.0254206389874 1.0
endloop
endfacet
facet normal 0.0 0.0 -1.0
outer loop
vertex 37.1 17.0254206389874 1.0
vertex 28.0 35.1254206389874 1.0
vertex 37.1 52.9254206389874 1.0
endloop
endfacet
facet normal 0.0 0.0 -1.0
outer loop
vertex 120.1 -0.0745793610125901 1.0
vertex 39.9906057241002 13.25830991646 1.0
vertex 41.0 13.1254206389874 1.0
endloop
endfacet
facet normal 0.0 0.0 -1.0
outer loop
vertex 120.1 -0.0745793610125901 1.0
vertex 41.0 13.1254206389874 1.0
vertex 42.0093942758998 13.25830991646 1.0
endloop
endfacet
facet normal 0.0 0.0 -1.0
outer loop
vertex 120.1 -0.0745793610125901 1.0
vertex 42.0093942758998 13.25830991646 1.0
vertex 42.95 13.6479215642281 1.0
endloop
endfacet
facet normal 0.0 0.0 -1.0
outer loop
vertex 120.1 -0.0745793610125901 1.0
vertex 42.95 13.6479215642281 1.0
vertex 43.7577164466275 14.2677041923599 1.0
endloop
endfacet
facet normal 0.0 0.0 -1.0
outer loop
vertex 120.1 -0.0745793610125901 1.0
vertex 43.7577164466275 14.2677041923599 1.0
vertex 44.3774990747593 15.0754206389874 1.0
endloop
endfacet
facet normal 0.0 0.0 -1.0
outer loop
vertex 120.1 -0.0745793610125901 1.0
vertex 44.3774990747593 15.0754206389874 1.0
vertex 44.7671107225274 16.0160263630876 1.0
endloop
endfacet
facet normal 0.0 0.0 -1.0
outer loop
vertex 120.1 -0.0745793610125901 1.0
vertex 44.7671107225274 16.0160263630876 1.0
vertex 44.9 17.0254206389874 1.0
endloop
endfacet
facet normal 0.0 0.0 -1.0
outer loop
vertex 120.1 -0.0745793610125901 1.0
vertex 44.9 17.0254206389874 1.0
vertex 120.1 70.0254206389874 1.0
endloop
endfacet
facet normal 0.0 0.0 -1.0
outer loop
vertex 37.2328892774726 51.9160263630876 1.0
vertex 37.1 17.0254206389874 1.0
vertex 37.1 52.9254206389874 1.0
endloop
endfacet
facet normal 0.0 0.0 -1.0
outer loop
vertex 37.1 17.0254206389874 1.0
vertex 37.2328892774726 51.9160263630876 1.0
vertex 37.2328892774726 18.0348149148872 1.0
endloop
endfacet
facet normal 0.0 0.0 -1.0
outer loop
vertex 37.2328892774726 18.0348149148872 1.0
vertex 37.2328892774726 51.9160263630876 1.0
vertex 37.6225009252407 50.9754206389874 1.0
endloop
endfacet
facet normal 0.0 0.0 -1.0
outer loop
vertex 37.2328892774726 18.0348149148872 1.0
vertex 37.6225009252407 50.9754206389874 1.0
vertex 37.6225009252407 18.9754206389874 1.0
endloop
endfacet
facet normal 0.0 0.0 -1.0
outer loop
vertex 37.6225009252407 18.9754206389874 1.0
vertex 37.6225009252407 50.9754206389874 1.0
vertex 38.2422835533725 50.1677041923599 1.0
endloop
endfacet
facet normal 0.0 0.0 -1.0
outer loop
vertex 37.6225009252407 18.9754206389874 1.0
vertex 38.2422835533725 50.1677041923599 1.0
vertex 38.2422835533725 19.7831370856149 1.0
endloop
endfacet
facet normal 0.0 0.0 -1.0
outer loop
vertex 38.2422835533725 19.7831370856149 1.0
vertex 38.2422835533725 50.1677041923599 1.0
vertex 39.05 49.5479215642281 1.0
endloop
endfacet
facet normal 0.0 0.0 -1.0
outer loop
vertex 38.2422835533725 19.7831370856149 1.0
vertex 39.05 49.5479215642281 1.0
vertex 39.05 20.4029197137467 1.0
endloop
endfacet
facet normal 0.0 0.0 -1.0
outer loop
vertex 39.05 20.4029197137467 1.0
vertex 39.05 49.5479215642281 1.0
vertex 39.9906057241002 49.1583099164601 1.0
endloop
endfacet
facet normal 0.0 0.0 -1.0
outer loop
vertex 39.05 20.4029197137467 1.0
vertex 39.9906057241002 49.1583099164601 1.0
vertex 39.9906057241002 20.7925313615148 1.0
endloop
endfacet
facet normal 0.0 0.0 -1.0
outer loop
vertex 39.9906057241002 20.7925313615148 1.0
vertex 39.9906057241002 49.1583099164601 1.0
vertex 41.0 49.0254206389874 1.0
endloop
endfacet
facet normal 0.0 0.0 -1.0
outer loop
vertex 39.9906057241002 20.7925313615148 1.0
vertex 41.0 49.0254206389874 1.0
vertex 41.0 20.9254206389874 1.0
endloop
endfacet
facet normal 0.0 0.0 -1.0
outer loop
vertex 41.0 20.9254206389874 1.0
vertex 41.0 49.0254206389874 1.0
vertex 42.0093942758998 49.1583099164601 1.0
endloop
endfacet
facet normal 0.0 0.0 -1.0
outer loop
vertex 41.0 20.9254206389874 1.0
vertex 42.0093942758998 49.1583099164601 1.0
vertex 42.0093942758998 20.7925313615148 1.0
endloop
endfacet
facet normal 0.0 0.0 -1.0
outer loop
vertex 42.0093942758998 20.7925313615148 1.0
vertex 42.0093942758998 49.1583099164601 1.0
vertex 42.95 49.5479215642281 1.0
endloop
endfacet
facet normal 0.0 0.0 -1.0
outer loop
vertex 42.0093942758998 20.7925313615148 1.0
vertex 42.95 49.5479215642281 1.0
vertex 42.95 20.4029197137467 1.0
endloop
endfacet
facet normal 0.0 0.0 -1.0
outer loop
vertex 42.95 20.4029197137467 1.0
vertex 42.95 49.5479215642281 1.0
vertex 43.7577164466275 50.1677041923599 1.0
endloop
endfacet
facet normal 0.0 0.0 -1.0
outer loop
vertex 42.95 20.4029197137467 1.0
vertex 43.7577164466275 50.1677041923599 1.0
vertex 43.7577164466275 19.7831370856149 1.0
endloop
endfacet
facet normal 0.0 0.0 -1.0
outer loop
vertex 43.7577164466275 19.7831370856149 1.0
vertex 43.7577164466275 50.1677041923599 1.0
vertex 44.3774990747593 50.9754206389874 1.0
endloop
endfacet
facet normal 0.0 0.0 -1.0
outer loop
vertex 43.7577164466275 19.7831370856149 1.0
vertex 44.3774990747593 50.9754206389874 1.0
vertex 44.3774990747593 18.9754206389874 1.0
endloop
endfacet
facet normal 0.0 0.0 -1.0
outer loop
vertex 44.3774990747593 18.9754206389874 1.0
vertex 44.3774990747593 50.9754206389874 1.0
vertex 44.7671107225274 51.9160263630876 1.0
endloop
endfacet
facet normal 0.0 0.0 -1.0
outer loop
vertex 44.3774990747593 18.9754206389874 1.0
vertex 44.7671107225274 51.9160263630876 1.0
vertex 44.7671107225274 18.0348149148872 1.0
endloop
endfacet
facet normal 0.0 0.0 -1.0
outer loop
vertex 44.7671107225274 18.0348149148872 1.0
vertex 44.7671107225274 51.9160263630876 1.0
vertex 44.9 52.9254206389874 1.0
endloop
endfacet
facet normal 0.0 0.0 -1.0
outer loop
vertex 44.7671107225274 18.0348149148872 1.0
vertex 44.9 52.9254206389874 1.0
vertex 44.9 17.0254206389874 1.0
endloop
endfacet
facet normal 0.866025403784439 -0.499999999999999 7.41028092723597e-032
outer loop
vertex 44.3774990747593 15.0754206389874 -4.0
vertex 43.7577164466275 14.2677041923599 1.0
vertex 43.7577164466275 14.2677041923599 -4.0
endloop
endfacet
facet normal 0.707106781186551 -0.707106781186544 0.0
outer loop
vertex 43.7577164466275 14.2677041923599 1.0
vertex 44.3774990747593 15.0754206389874 -4.0
vertex 44.3774990747593 15.0754206389874 1.0
endloop
endfacet
facet normal 0.965925826289068 -0.258819045102522 7.41028092723597e-032
outer loop
vertex 44.7671107225274 16.0160263630876 -4.0
vertex 44.3774990747593 15.0754206389874 1.0
vertex 44.3774990747593 15.0754206389874 -4.0
endloop
endfacet
facet normal 0.866025403784439 -0.499999999999999 7.41028092723597e-032
outer loop
vertex 44.3774990747593 15.0754206389874 1.0
vertex 44.7671107225274 16.0160263630876 -4.0
vertex 44.7671107225274 16.0160263630876 1.0
endloop
endfacet
facet normal 1.0 -8.91110989564691e-018 6.99483873600827e-019
outer loop
vertex 44.9 17.0254206389874 -4.0
vertex 44.7671107225274 16.0160263630876 1.0
vertex 44.7671107225274 16.0160263630876 -4.0
endloop
endfacet
facet normal 0.965925826289068 -0.258819045102522 7.41028092723597e-032
outer loop
vertex 44.7671107225274 16.0160263630876 1.0
vertex 44.9 17.0254206389874 -4.0
vertex 44.9 17.0254206389874 1.0
endloop
endfacet
facet normal 0.965925826289066 0.25881904510253 6.99483873600828e-019
outer loop
vertex 44.7671107225274 18.0348149148872 -4.0
vertex 44.9 17.0254206389874 1.0
vertex 44.9 17.0254206389874 -4.0
endloop
endfacet
facet normal 1.0 -8.91110989564691e-018 6.99483873600827e-019
outer loop
vertex 44.9 17.0254206389874 1.0
vertex 44.7671107225274 18.0348149148872 -4.0
vertex 44.7671107225274 18.0348149148872 1.0
endloop
endfacet
facet normal 0.86602540378444 0.499999999999998 0.0
outer loop
vertex 44.3774990747593 18.9754206389874 -4.0
vertex 44.7671107225274 18.0348149148872 1.0
vertex 44.7671107225274 18.0348149148872 -4.0
endloop
endfacet
facet normal 0.965925826289066 0.25881904510253 6.99483873600828e-019
outer loop
vertex 44.7671107225274 18.0348149148872 1.0
vertex 44.3774990747593 18.9754206389874 -4.0
vertex 44.3774990747593 18.9754206389874 1.0
endloop
endfacet
facet normal 0.707106781186546 0.707106781186549 0.0
outer loop
vertex 43.7577164466275 19.7831370856149 -4.0
vertex 44.3774990747593 18.9754206389874 1.0
vertex 44.3774990747593 18.9754206389874 -4.0
endloop
endfacet
facet normal 0.86602540378444 0.499999999999998 0.0
outer loop
vertex 44.3774990747593 18.9754206389874 1.0
vertex 43.7577164466275 19.7831370856149 -4.0
vertex 43.7577164466275 19.7831370856149 1.0
endloop
endfacet
facet normal 0.500000000000004 0.866025403784437 -1.07996278991314e-018
outer loop
vertex 42.95 20.4029197137467 1.0
vertex 43.7577164466275 19.7831370856149 -4.0
vertex 42.95 20.4029197137467 -4.0
endloop
endfacet
facet normal 0.707106781186546 0.707106781186549 0.0
outer loop
vertex 43.7577164466275 19.7831370856149 -4.0
vertex 42.95 20.4029197137467 1.0
vertex 43.7577164466275 19.7831370856149 1.0
endloop
endfacet
facet normal 0.258819045102524 0.965925826289068 -1.07996278991315e-018
outer loop
vertex 42.0093942758998 20.7925313615148 1.0
vertex 42.95 20.4029197137467 -4.0
vertex 42.0093942758998 20.7925313615148 -4.0
endloop
endfacet
facet normal 0.500000000000004 0.866025403784437 -1.07996278991314e-018
outer loop
vertex 42.95 20.4029197137467 -4.0
vertex 42.0093942758998 20.7925313615148 1.0
vertex 42.95 20.4029197137467 1.0
endloop
endfacet
facet normal 7.57444341129984e-016 1.0 0.0
outer loop
vertex 41.0 20.9254206389874 1.0
vertex 42.0093942758998 20.7925313615148 -4.0
vertex 41.0 20.9254206389874 -4.0
endloop
endfacet
facet normal 0.258819045102524 0.965925826289068 -1.07996278991315e-018
outer loop
vertex 42.0093942758998 20.7925313615148 -4.0
vertex 41.0 20.9254206389874 1.0
vertex 42.0093942758998 20.7925313615148 1.0
endloop
endfacet
facet normal -0.258819045102521 0.965925826289068 0.0
outer loop
vertex 39.9906057241002 20.7925313615148 1.0
vertex 41.0 20.9254206389874 -4.0
vertex 39.9906057241002 20.7925313615148 -4.0
endloop
endfacet
facet normal 7.57444341129984e-016 1.0 0.0
outer loop
vertex 41.0 20.9254206389874 -4.0
vertex 39.9906057241002 20.7925313615148 1.0
vertex 41.0 20.9254206389874 1.0
endloop
endfacet
facet normal -0.500000000000005 0.866025403784436 4.88277210163761e-032
outer loop
vertex 39.05 20.4029197137467 1.0
vertex 39.9906057241002 20.7925313615148 -4.0
vertex 39.05 20.4029197137467 -4.0
endloop
endfacet
facet normal -0.258819045102521 0.965925826289068 0.0
outer loop
vertex 39.9906057241002 20.7925313615148 -4.0
vertex 39.05 20.4029197137467 1.0
vertex 39.9906057241002 20.7925313615148 1.0
endloop
endfacet
facet normal -0.707106781186539 0.707106781186556 4.88277210163763e-032
outer loop
vertex 38.2422835533725 19.7831370856149 1.0
vertex 39.05 20.4029197137467 -4.0
vertex 38.2422835533725 19.7831370856149 -4.0
endloop
endfacet
facet normal -0.500000000000005 0.866025403784436 4.88277210163761e-032
outer loop
vertex 39.05 20.4029197137467 -4.0
vertex 38.2422835533725 19.7831370856149 1.0
vertex 39.05 20.4029197137467 1.0
endloop
endfacet
facet normal -0.707106781186539 0.707106781186556 4.88277210163763e-032
outer loop
vertex 38.2422835533725 19.7831370856149 1.0
vertex 37.6225009252407 18.9754206389874 -4.0
vertex 37.6225009252407 18.9754206389874 1.0
endloop
endfacet
facet normal -0.866025403784437 0.500000000000002 0.0
outer loop
vertex 37.6225009252407 18.9754206389874 -4.0
vertex 38.2422835533725 19.7831370856149 1.0
vertex 38.2422835533725 19.7831370856149 -4.0
endloop
endfacet
facet normal -0.866025403784437 0.500000000000002 0.0
outer loop
vertex 37.6225009252407 18.9754206389874 1.0
vertex 37.2328892774726 18.0348149148872 -4.0
vertex 37.2328892774726 18.0348149148872 1.0
endloop
endfacet
facet normal -0.965925826289068 0.258819045102522 6.99483873600827e-019
outer loop
vertex 37.2328892774726 18.0348149148872 -4.0
vertex 37.6225009252407 18.9754206389874 1.0
vertex 37.6225009252407 18.9754206389874 -4.0
endloop
endfacet
facet normal -0.965925826289068 0.258819045102522 6.99483873600827e-019
outer loop
vertex 37.2328892774726 18.0348149148872 1.0
vertex 37.1 17.0254206389874 -4.0
vertex 37.1 17.0254206389874 1.0
endloop
endfacet
facet normal -1.0 -8.91110989564691e-018 6.99483873600827e-019
outer loop
vertex 37.1 17.0254206389874 -4.0
vertex 37.2328892774726 18.0348149148872 1.0
vertex 37.2328892774726 18.0348149148872 -4.0
endloop
endfacet
facet normal -1.0 -8.91110989564691e-018 6.99483873600827e-019
outer loop
vertex 37.1 17.0254206389874 1.0
vertex 37.2328892774726 16.0160263630876 -4.0
vertex 37.2328892774726 16.0160263630876 1.0
endloop
endfacet
facet normal -0.965925826289068 -0.258819045102522 7.41028092723597e-032
outer loop
vertex 37.2328892774726 16.0160263630876 -4.0
vertex 37.1 17.0254206389874 1.0
vertex 37.1 17.0254206389874 -4.0
endloop
endfacet
facet normal -0.965925826289068 -0.258819045102522 7.41028092723597e-032
outer loop
vertex 37.2328892774726 16.0160263630876 1.0
vertex 37.6225009252407 15.0754206389874 -4.0
vertex 37.6225009252407 15.0754206389874 1.0
endloop
endfacet
facet normal -0.866025403784439 -0.499999999999999 7.41028092723597e-032
outer loop
vertex 37.6225009252407 15.0754206389874 -4.0
vertex 37.2328892774726 16.0160263630876 1.0
vertex 37.2328892774726 16.0160263630876 -4.0
endloop
endfacet
facet normal -0.866025403784439 -0.499999999999999 7.41028092723597e-032
outer loop
vertex 37.6225009252407 15.0754206389874 1.0
vertex 38.2422835533725 14.2677041923599 -4.0
vertex 38.2422835533725 14.2677041923599 1.0
endloop
endfacet
facet normal -0.707106781186554 -0.707106781186541 0.0
outer loop
vertex 38.2422835533725 14.2677041923599 -4.0
vertex 37.6225009252407 15.0754206389874 1.0
vertex 37.6225009252407 15.0754206389874 -4.0
endloop
endfacet
facet normal -0.499999999999998 -0.86602540378444 0.0
outer loop
vertex 39.05 13.6479215642281 1.0
vertex 38.2422835533725 14.2677041923599 -4.0
vertex 39.05 13.6479215642281 -4.0
endloop
endfacet
facet normal -0.707106781186554 -0.707106781186541 0.0
outer loop
vertex 38.2422835533725 14.2677041923599 -4.0
vertex 39.05 13.6479215642281 1.0
vertex 38.2422835533725 14.2677041923599 1.0
endloop
endfacet
facet normal -0.258819045102517 -0.965925826289069 0.0
outer loop
vertex 39.9906057241002 13.25830991646 1.0
vertex 39.05 13.6479215642281 -4.0
vertex 39.9906057241002 13.25830991646 -4.0
endloop
endfacet
facet normal -0.499999999999998 -0.86602540378444 0.0
outer loop
vertex 39.05 13.6479215642281 -4.0
vertex 39.9906057241002 13.25830991646 1.0
vertex 39.05 13.6479215642281 1.0
endloop
endfacet
facet normal 1.45251091299045e-015 -1.0 0.0
outer loop
vertex 41.0 13.1254206389874 1.0
vertex 39.9906057241002 13.25830991646 -4.0
vertex 41.0 13.1254206389874 -4.0
endloop
endfacet
facet normal -0.258819045102517 -0.965925826289069 0.0
outer loop
vertex 39.9906057241002 13.25830991646 -4.0
vertex 41.0 13.1254206389874 1.0
vertex 39.9906057241002 13.25830991646 1.0
endloop
endfacet
facet normal 0.258819045102519 -0.965925826289069 0.0
outer loop
vertex 42.0093942758998 13.25830991646 1.0
vertex 41.0 13.1254206389874 -4.0
vertex 42.0093942758998 13.25830991646 -4.0
endloop
endfacet
facet normal 1.45251091299045e-015 -1.0 0.0
outer loop
vertex 41.0 13.1254206389874 -4.0
vertex 42.0093942758998 13.25830991646 1.0
vertex 41.0 13.1254206389874 1.0
endloop
endfacet
facet normal 0.499999999999995 -0.866025403784442 0.0
outer loop
vertex 42.95 13.6479215642281 1.0
vertex 42.0093942758998 13.25830991646 -4.0
vertex 42.95 13.6479215642281 -4.0
endloop
endfacet
facet normal 0.258819045102519 -0.965925826289069 0.0
outer loop
vertex 42.0093942758998 13.25830991646 -4.0
vertex 42.95 13.6479215642281 1.0
vertex 42.0093942758998 13.25830991646 1.0
endloop
endfacet
facet normal 0.707106781186551 -0.707106781186544 0.0
outer loop
vertex 43.7577164466275 14.2677041923599 1.0
vertex 42.95 13.6479215642281 -4.0
vertex 43.7577164466275 14.2677041923599 -4.0
endloop
endfacet
facet normal 0.499999999999995 -0.866025403784442 0.0
outer loop
vertex 42.95 13.6479215642281 -4.0
vertex 43.7577164466275 14.2677041923599 1.0
vertex 42.95 13.6479215642281 1.0
endloop
endfacet
facet normal 0.866025403784439 0.499999999999999 -3.06943886105596e-032
outer loop
vertex 44.3774990747593 54.8754206389874 -4.0
vertex 44.7671107225274 53.9348149148873 1.0
vertex 44.7671107225274 53.9348149148873 -4.0
endloop
endfacet
facet normal 0.965925826289065 0.258819045102531 -3.72265182523815e-020
outer loop
vertex 44.7671107225274 53.9348149148873 1.0
vertex 44.3774990747593 54.8754206389874 -4.0
vertex 44.3774990747593 54.8754206389874 1.0
endloop
endfacet
facet normal 0.707106781186546 0.707106781186549 0.0
outer loop
vertex 43.7577164466275 55.683137085615 -4.0
vertex 44.3774990747593 54.8754206389874 1.0
vertex 44.3774990747593 54.8754206389874 -4.0
endloop
endfacet
facet normal 0.866025403784439 0.499999999999999 -3.06943886105596e-032
outer loop
vertex 44.3774990747593 54.8754206389874 1.0
vertex 43.7577164466275 55.683137085615 -4.0
vertex 43.7577164466275 55.683137085615 1.0
endloop
endfacet
facet normal 0.500000000000008 0.866025403784434 -1.07996278991324e-018
outer loop
vertex 42.95 56.3029197137467 1.0
vertex 43.7577164466275 55.683137085615 -4.0
vertex 42.95 56.3029197137467 -4.0
endloop
endfacet
facet normal 0.707106781186546 0.707106781186549 0.0
outer loop
vertex 43.7577164466275 55.683137085615 -4.0
vertex 42.95 56.3029197137467 1.0
vertex 43.7577164466275 55.683137085615 1.0
endloop
endfacet
facet normal 0.258819045102529 0.965925826289066 -1.07996278991325e-018
outer loop
vertex 42.0093942758998 56.6925313615148 1.0
vertex 42.95 56.3029197137467 -4.0
vertex 42.0093942758998 56.6925313615148 -4.0
endloop
endfacet
facet normal 0.500000000000008 0.866025403784434 -1.07996278991324e-018
outer loop
vertex 42.95 56.3029197137467 -4.0
vertex 42.0093942758998 56.6925313615148 1.0
vertex 42.95 56.3029197137467 1.0
endloop
endfacet
facet normal 7.57444341129984e-016 1.0 0.0
outer loop
vertex 41.0 56.8254206389874 1.0
vertex 42.0093942758998 56.6925313615148 -4.0
vertex 41.0 56.8254206389874 -4.0
endloop
endfacet
facet normal 0.258819045102529 0.965925826289066 -1.07996278991325e-018
outer loop
vertex 42.0093942758998 56.6925313615148 -4.0
vertex 41.0 56.8254206389874 1.0
vertex 42.0093942758998 56.6925313615148 1.0
endloop
endfacet
facet normal -0.258819045102526 0.965925826289067 -7.41028092723588e-032
outer loop
vertex 39.9906057241002 56.6925313615148 1.0
vertex 41.0 56.8254206389874 -4.0
vertex 39.9906057241002 56.6925313615148 -4.0
endloop
endfacet
facet normal 7.57444341129984e-016 1.0 0.0
outer loop
vertex 41.0 56.8254206389874 -4.0
vertex 39.9906057241002 56.6925313615148 1.0
vertex 41.0 56.8254206389874 1.0
endloop
endfacet
facet normal -0.500000000000009 0.866025403784433 -2.52750882559821e-032
outer loop
vertex 39.05 56.3029197137467 1.0
vertex 39.9906057241002 56.6925313615148 -4.0
vertex 39.05 56.3029197137467 -4.0
endloop
endfacet
facet normal -0.258819045102526 0.965925826289067 -7.41028092723588e-032
outer loop
vertex 39.9906057241002 56.6925313615148 -4.0
vertex 39.05 56.3029197137467 1.0
vertex 39.9906057241002 56.6925313615148 1.0
endloop
endfacet
facet normal -0.707106781186539 0.707106781186556 4.88277210163763e-032
outer loop
vertex 38.2422835533725 55.683137085615 1.0
vertex 39.05 56.3029197137467 -4.0
vertex 38.2422835533725 55.683137085615 -4.0
endloop
endfacet
facet normal -0.500000000000009 0.866025403784433 -2.52750882559821e-032
outer loop
vertex 39.05 56.3029197137467 -4.0
vertex 38.2422835533725 55.683137085615 1.0
vertex 39.05 56.3029197137467 1.0
endloop
endfacet
facet normal -0.707106781186539 0.707106781186556 4.88277210163763e-032
outer loop
vertex 38.2422835533725 55.683137085615 1.0
vertex 37.6225009252407 54.8754206389874 -4.0
vertex 37.6225009252407 54.8754206389874 1.0
endloop
endfacet
facet normal -0.866025403784436 0.500000000000004 1.07996278991306e-018
outer loop
vertex 37.6225009252407 54.8754206389874 -4.0
vertex 38.2422835533725 55.683137085615 1.0
vertex 38.2422835533725 55.683137085615 -4.0
endloop
endfacet
facet normal -0.866025403784436 0.500000000000004 1.07996278991306e-018
outer loop
vertex 37.6225009252407 54.8754206389874 1.0
vertex 37.2328892774726 53.9348149148873 -4.0
vertex 37.2328892774726 53.9348149148873 1.0
endloop
endfacet
facet normal -0.965925826289068 0.258819045102523 1.04273627166071e-018
outer loop
vertex 37.2328892774726 53.9348149148873 -4.0
vertex 37.6225009252407 54.8754206389874 1.0
vertex 37.6225009252407 54.8754206389874 -4.0
endloop
endfacet
facet normal -0.965925826289068 0.258819045102523 1.04273627166071e-018
outer loop
vertex 37.2328892774726 53.9348149148873 1.0
vertex 37.1 52.9254206389874 -4.0
vertex 37.1 52.9254206389874 1.0
endloop
endfacet
facet normal -1.0 0.0 -7.73936910105529e-019
outer loop
vertex 37.1 52.9254206389874 -4.0
vertex 37.2328892774726 53.9348149148873 1.0
vertex 37.2328892774726 53.9348149148873 -4.0
endloop
endfacet
facet normal -1.0 0.0 -7.73936910105529e-019
outer loop
vertex 37.1 52.9254206389874 1.0
vertex 37.2328892774726 51.9160263630876 -4.0
vertex 37.2328892774726 51.9160263630876 1.0
endloop
endfacet
facet normal -0.965925826289068 -0.258819045102521 -7.36710391853104e-019
outer loop
vertex 37.2328892774726 51.9160263630876 -4.0
vertex 37.1 52.9254206389874 1.0
vertex 37.1 52.9254206389874 -4.0
endloop
endfacet
facet normal -0.965925826289068 -0.258819045102521 -7.36710391853104e-019
outer loop
vertex 37.2328892774726 51.9160263630876 1.0
vertex 37.6225009252407 50.9754206389874 -4.0
vertex 37.6225009252407 50.9754206389874 1.0
endloop
endfacet
facet normal -0.866025403784437 -0.500000000000002 7.41028092723598e-032
outer loop
vertex 37.6225009252407 50.9754206389874 -4.0
vertex 37.2328892774726 51.9160263630876 1.0
vertex 37.2328892774726 51.9160263630876 -4.0
endloop
endfacet
facet normal -0.866025403784437 -0.500000000000002 7.41028092723598e-032
outer loop
vertex 37.6225009252407 50.9754206389874 1.0
vertex 38.2422835533725 50.1677041923599 -4.0
vertex 38.2422835533725 50.1677041923599 1.0
endloop
endfacet
facet normal -0.707106781186548 -0.707106781186547 0.0
outer loop
vertex 38.2422835533725 50.1677041923599 -4.0
vertex 37.6225009252407 50.9754206389874 1.0
vertex 37.6225009252407 50.9754206389874 -4.0
endloop
endfacet
facet normal -0.499999999999998 -0.866025403784439 0.0
outer loop
vertex 39.05 49.5479215642281 1.0
vertex 38.2422835533725 50.1677041923599 -4.0
vertex 39.05 49.5479215642281 -4.0
endloop
endfacet
facet normal -0.707106781186548 -0.707106781186547 0.0
outer loop
vertex 38.2422835533725 50.1677041923599 -4.0
vertex 39.05 49.5479215642281 1.0
vertex 38.2422835533725 50.1677041923599 1.0
endloop
endfacet
facet normal -0.258819045102522 -0.965925826289068 0.0
outer loop
vertex 39.9906057241002 49.1583099164601 1.0
vertex 39.05 49.5479215642281 -4.0
vertex 39.9906057241002 49.1583099164601 -4.0
endloop
endfacet
facet normal -0.499999999999998 -0.866025403784439 0.0
outer loop
vertex 39.05 49.5479215642281 -4.0
vertex 39.9906057241002 49.1583099164601 1.0
vertex 39.05 49.5479215642281 1.0
endloop
endfacet
facet normal 1.45251091299045e-015 -1.0 0.0
outer loop
vertex 41.0 49.0254206389874 1.0
vertex 39.9906057241002 49.1583099164601 -4.0
vertex 41.0 49.0254206389874 -4.0
endloop
endfacet
facet normal -0.258819045102522 -0.965925826289068 0.0
outer loop
vertex 39.9906057241002 49.1583099164601 -4.0
vertex 41.0 49.0254206389874 1.0
vertex 39.9906057241002 49.1583099164601 1.0
endloop
endfacet
facet normal 0.258819045102524 -0.965925826289068 0.0
outer loop
vertex 42.0093942758998 49.1583099164601 1.0
vertex 41.0 49.0254206389874 -4.0
vertex 42.0093942758998 49.1583099164601 -4.0
endloop
endfacet
facet normal 1.45251091299045e-015 -1.0 0.0
outer loop
vertex 41.0 49.0254206389874 -4.0
vertex 42.0093942758998 49.1583099164601 1.0
vertex 41.0 49.0254206389874 1.0
endloop
endfacet
facet normal 0.499999999999996 -0.866025403784441 -2.23890561833981e-018
outer loop
vertex 42.95 49.5479215642281 1.0
vertex 42.0093942758998 49.1583099164601 -4.0
vertex 42.95 49.5479215642281 -4.0
endloop
endfacet
facet normal 0.258819045102524 -0.965925826289068 0.0
outer loop
vertex 42.0093942758998 49.1583099164601 -4.0
vertex 42.95 49.5479215642281 1.0
vertex 42.0093942758998 49.1583099164601 1.0
endloop
endfacet
facet normal 0.707106781186546 -0.707106781186549 -2.23890561833981e-018
outer loop
vertex 43.7577164466275 50.1677041923599 1.0
vertex 42.95 49.5479215642281 -4.0
vertex 43.7577164466275 50.1677041923599 -4.0
endloop
endfacet
facet normal 0.499999999999996 -0.866025403784441 -2.23890561833981e-018
outer loop
vertex 42.95 49.5479215642281 -4.0
vertex 43.7577164466275 50.1677041923599 1.0
vertex 42.95 49.5479215642281 1.0
endloop
endfacet
facet normal 0.866025403784437 -0.500000000000002 7.41028092723598e-032
outer loop
vertex 44.3774990747593 50.9754206389874 -4.0
vertex 43.7577164466275 50.1677041923599 1.0
vertex 43.7577164466275 50.1677041923599 -4.0
endloop
endfacet
facet normal 0.707106781186546 -0.707106781186549 -2.23890561833981e-018
outer loop
vertex 43.7577164466275 50.1677041923599 1.0
vertex 44.3774990747593 50.9754206389874 -4.0
vertex 44.3774990747593 50.9754206389874 1.0
endloop
endfacet
facet normal 0.965925826289068 -0.258819045102521 -7.36710391853104e-019
outer loop
vertex 44.7671107225274 51.9160263630876 -4.0
vertex 44.3774990747593 50.9754206389874 1.0
vertex 44.3774990747593 50.9754206389874 -4.0
endloop
endfacet
facet normal 0.866025403784437 -0.500000000000002 7.41028092723598e-032
outer loop
vertex 44.3774990747593 50.9754206389874 1.0
vertex 44.7671107225274 51.9160263630876 -4.0
vertex 44.7671107225274 51.9160263630876 1.0
endloop
endfacet
facet normal 1.0 0.0 -7.73936910105529e-019
outer loop
vertex 44.9 52.9254206389874 -4.0
vertex 44.7671107225274 51.9160263630876 1.0
vertex 44.7671107225274 51.9160263630876 -4.0
endloop
endfacet
facet normal 0.965925826289068 -0.258819045102521 -7.36710391853104e-019
outer loop
vertex 44.7671107225274 51.9160263630876 1.0
vertex 44.9 52.9254206389874 -4.0
vertex 44.9 52.9254206389874 1.0
endloop
endfacet
facet normal 0.965925826289065 0.258819045102531 -3.72265182523815e-020
outer loop
vertex 44.7671107225274 53.9348149148873 -4.0
vertex 44.9 52.9254206389874 1.0
vertex 44.9 52.9254206389874 -4.0
endloop
endfacet
facet normal 1.0 0.0 -7.73936910105529e-019
outer loop
vertex 44.9 52.9254206389874 1.0
vertex 44.7671107225274 53.9348149148873 -4.0
vertex 44.7671107225274 53.9348149148873 1.0
endloop
endfacet
facet normal 0.258819045102527 0.965925826289067 0.0
outer loop
vertex 21.7059047744874 30.295791507542 3.80000000000001
vertex 23.0 30.1254206389874 1.0
vertex 21.7059047744874 30.295791507542 1.0
endloop
endfacet
facet normal -2.67333296869407e-016 1.0 0.0
outer loop
vertex 23.0 30.1254206389874 1.0
vertex 21.7059047744874 30.295791507542 3.80000000000001
vertex 23.0 30.1254206389874 3.80000000000001
endloop
endfacet
facet normal -2.67333296869407e-016 1.0 0.0
outer loop
vertex 23.0 30.1254206389874 3.80000000000001
vertex 24.2940952255126 30.295791507542 1.0
vertex 23.0 30.1254206389874 1.0
endloop
endfacet
facet normal -0.258819045102527 0.965925826289067 0.0
outer loop
vertex 24.2940952255126 30.295791507542 1.0
vertex 23.0 30.1254206389874 3.80000000000001
vertex 24.2940952255126 30.295791507542 3.80000000000001
endloop
endfacet
facet normal -0.258819045102527 0.965925826289067 0.0
outer loop
vertex 24.2940952255126 30.295791507542 3.80000000000001
vertex 25.5 30.7952936200652 1.0
vertex 24.2940952255126 30.295791507542 1.0
endloop
endfacet
facet normal -0.500000000000007 0.866025403784434 7.7850320498051e-032
outer loop
vertex 25.5 30.7952936200652 1.0
vertex 24.2940952255126 30.295791507542 3.80000000000001
vertex 25.5 30.7952936200652 3.80000000000001
endloop
endfacet
facet normal -0.500000000000007 0.866025403784434 7.7850320498051e-032
outer loop
vertex 25.5 30.7952936200652 3.80000000000001
vertex 26.5355339059327 31.5898867330547 1.0
vertex 25.5 30.7952936200652 1.0
endloop
endfacet
facet normal -0.707106781186549 0.707106781186546 7.7850320498051e-032
outer loop
vertex 26.5355339059327 31.5898867330547 1.0
vertex 25.5 30.7952936200652 3.80000000000001
vertex 26.5355339059327 31.5898867330547 3.80000000000001
endloop
endfacet
facet normal -0.866025403784438 0.500000000000002 0.0
outer loop
vertex 27.3301270189222 32.6254206389874 3.80000000000001
vertex 26.5355339059327 31.5898867330547 1.0
vertex 26.5355339059327 31.5898867330547 3.80000000000001
endloop
endfacet
facet normal -0.707106781186549 0.707106781186546 7.7850320498051e-032
outer loop
vertex 26.5355339059327 31.5898867330547 1.0
vertex 27.3301270189222 32.6254206389874 3.80000000000001
vertex 27.3301270189222 32.6254206389874 1.0
endloop
endfacet
facet normal -0.965925826289068 0.258819045102522 1.26789077849067e-031
outer loop
vertex 27.8296291314453 33.8313254134748 3.80000000000001
vertex 27.3301270189222 32.6254206389874 1.0
vertex 27.3301270189222 32.6254206389874 3.80000000000001
endloop
endfacet
facet normal -0.866025403784438 0.500000000000002 0.0
outer loop
vertex 27.3301270189222 32.6254206389874 1.0
vertex 27.8296291314453 33.8313254134748 3.80000000000001
vertex 27.8296291314453 33.8313254134748 1.0
endloop
endfacet
facet normal -1.0 2.25451080359867e-015 2.53578155698134e-031
outer loop
vertex 28.0 35.1254206389874 3.80000000000001
vertex 27.8296291314453 33.8313254134748 1.0
vertex 27.8296291314453 33.8313254134748 3.80000000000001
endloop
endfacet
facet normal -0.965925826289068 0.258819045102522 1.26789077849067e-031
outer loop
vertex 27.8296291314453 33.8313254134748 1.0
vertex 28.0 35.1254206389874 3.80000000000001
vertex 28.0 35.1254206389874 1.0
endloop
endfacet
facet normal -0.965925826289068 -0.258819045102522 1.26789077849067e-031
outer loop
vertex 27.8296291314453 36.4195158645 3.80000000000001
vertex 28.0 35.1254206389874 1.0
vertex 28.0 35.1254206389874 3.80000000000001
endloop
endfacet
facet normal -1.0 2.25451080359867e-015 2.53578155698134e-031
outer loop
vertex 28.0 35.1254206389874 1.0
vertex 27.8296291314453 36.4195158645 3.80000000000001
vertex 27.8296291314453 36.4195158645 1.0
endloop
endfacet
facet normal -0.866025403784437 -0.500000000000003 0.0
outer loop
vertex 27.3301270189222 37.6254206389874 3.80000000000001
vertex 27.8296291314453 36.4195158645 1.0
vertex 27.8296291314453 36.4195158645 3.80000000000001
endloop
endfacet
facet normal -0.965925826289068 -0.258819045102522 1.26789077849067e-031
outer loop
vertex 27.8296291314453 36.4195158645 1.0
vertex 27.3301270189222 37.6254206389874 3.80000000000001
vertex 27.3301270189222 37.6254206389874 1.0
endloop
endfacet
facet normal -0.707106781186551 -0.707106781186544 -1.25062705415703e-031
outer loop
vertex 26.5355339059327 38.6609545449201 3.80000000000001
vertex 27.3301270189222 37.6254206389874 1.0
vertex 27.3301270189222 37.6254206389874 3.80000000000001
endloop
endfacet
facet normal -0.866025403784437 -0.500000000000003 0.0
outer loop
vertex 27.3301270189222 37.6254206389874 1.0
vertex 26.5355339059327 38.6609545449201 3.80000000000001
vertex 26.5355339059327 38.6609545449201 1.0
endloop
endfacet
facet normal -0.707106781186551 -0.707106781186544 -1.25062705415703e-031
outer loop
vertex 26.5355339059327 38.6609545449201 3.80000000000001
vertex 25.5 39.4555476579096 1.0
vertex 26.5355339059327 38.6609545449201 1.0
endloop
endfacet
facet normal -0.499999999999996 -0.866025403784441 -1.25062705415704e-031
outer loop
vertex 25.5 39.4555476579096 1.0
vertex 26.5355339059327 38.6609545449201 3.80000000000001
vertex 25.5 39.4555476579096 3.80000000000001
endloop
endfacet
facet normal -0.499999999999996 -0.866025403784441 -1.25062705415704e-031
outer loop
vertex 25.5 39.4555476579096 3.80000000000001
vertex 24.2940952255126 39.9550497704327 1.0
vertex 25.5 39.4555476579096 1.0
endloop
endfacet
facet normal -0.258819045102512 -0.965925826289071 0.0
outer loop
vertex 24.2940952255126 39.9550497704327 1.0
vertex 25.5 39.4555476579096 3.80000000000001
vertex 24.2940952255126 39.9550497704327 3.80000000000001
endloop
endfacet
facet normal -0.258819045102512 -0.965925826289071 0.0
outer loop
vertex 24.2940952255126 39.9550497704327 3.80000000000001
vertex 23.0 40.1254206389874 1.0
vertex 24.2940952255126 39.9550497704327 1.0
endloop
endfacet
facet normal 3.02977736451995e-016 -1.0 1.17460202782712e-018
outer loop
vertex 23.0 40.1254206389874 1.0
vertex 24.2940952255126 39.9550497704327 3.80000000000001
vertex 23.0 40.1254206389874 3.80000000000001
endloop
endfacet
facet normal 3.02977736451995e-016 -1.0 1.17460202782712e-018
outer loop
vertex 23.0 40.1254206389874 3.80000000000001
vertex 21.7059047744874 39.9550497704327 1.0
vertex 23.0 40.1254206389874 1.0
endloop
endfacet
facet normal 0.258819045102511 -0.965925826289071 1.17460202782712e-018
outer loop
vertex 21.7059047744874 39.9550497704327 1.0
vertex 23.0 40.1254206389874 3.80000000000001
vertex 21.7059047744874 39.9550497704327 3.80000000000001
endloop
endfacet
facet normal 0.258819045102511 -0.965925826289071 1.17460202782712e-018
outer loop
vertex 21.7059047744874 39.9550497704327 3.80000000000001
vertex 20.5 39.4555476579096 1.0
vertex 21.7059047744874 39.9550497704327 1.0
endloop
endfacet
facet normal 0.499999999999996 -0.866025403784441 -7.78503204980519e-032
outer loop
vertex 20.5 39.4555476579096 1.0
vertex 21.7059047744874 39.9550497704327 3.80000000000001
vertex 20.5 39.4555476579096 3.80000000000001
endloop
endfacet
facet normal 0.499999999999996 -0.866025403784441 -7.78503204980519e-032
outer loop
vertex 20.5 39.4555476579096 3.80000000000001
vertex 19.4644660940673 38.6609545449201 1.0
vertex 20.5 39.4555476579096 1.0
endloop
endfacet
facet normal 0.707106781186551 -0.707106781186544 -7.78503204980516e-032
outer loop
vertex 19.4644660940673 38.6609545449201 1.0
vertex 20.5 39.4555476579096 3.80000000000001
vertex 19.4644660940673 38.6609545449201 3.80000000000001
endloop
endfacet
facet normal 0.707106781186551 -0.707106781186544 -7.78503204980516e-032
outer loop
vertex 19.4644660940673 38.6609545449201 1.0
vertex 18.6698729810778 37.6254206389874 3.80000000000001
vertex 18.6698729810778 37.6254206389874 1.0
endloop
endfacet
facet normal 0.866025403784437 -0.500000000000003 3.44375889640642e-018
outer loop
vertex 18.6698729810778 37.6254206389874 3.80000000000001
vertex 19.4644660940673 38.6609545449201 1.0
vertex 19.4644660940673 38.6609545449201 3.80000000000001
endloop
endfacet
facet normal 0.866025403784437 -0.500000000000003 3.44375889640642e-018
outer loop
vertex 18.6698729810778 37.6254206389874 1.0
vertex 18.1703708685547 36.4195158645 3.80000000000001
vertex 18.1703708685547 36.4195158645 1.0
endloop
endfacet
facet normal 0.965925826289068 -0.258819045102522 3.44375889640643e-018
outer loop
vertex 18.1703708685547 36.4195158645 3.80000000000001
vertex 18.6698729810778 37.6254206389874 1.0
vertex 18.6698729810778 37.6254206389874 3.80000000000001
endloop
endfacet
facet normal 0.965925826289068 -0.258819045102522 3.44375889640643e-018
outer loop
vertex 18.1703708685547 36.4195158645 1.0
vertex 18.0 35.1254206389874 3.80000000000001
vertex 18.0 35.1254206389874 1.0
endloop
endfacet
facet normal 1.0 2.26342191349431e-015 -1.26789077849067e-031
outer loop
vertex 18.0 35.1254206389874 3.80000000000001
vertex 18.1703708685547 36.4195158645 1.0
vertex 18.1703708685547 36.4195158645 3.80000000000001
endloop
endfacet
facet normal 1.0 2.26342191349431e-015 -1.26789077849067e-031
outer loop
vertex 18.0 35.1254206389874 1.0
vertex 18.1703708685547 33.8313254134748 3.80000000000001
vertex 18.1703708685547 33.8313254134748 1.0
endloop
endfacet
facet normal 0.965925826289068 0.258819045102522 -1.26789077849067e-031
outer loop
vertex 18.1703708685547 33.8313254134748 3.80000000000001
vertex 18.0 35.1254206389874 1.0
vertex 18.0 35.1254206389874 3.80000000000001
endloop
endfacet
facet normal 0.965925826289068 0.258819045102522 -1.26789077849067e-031
outer loop
vertex 18.1703708685547 33.8313254134748 1.0
vertex 18.6698729810778 32.6254206389874 3.80000000000001
vertex 18.6698729810778 32.6254206389874 1.0
endloop
endfacet
facet normal 0.866025403784438 0.500000000000002 0.0
outer loop
vertex 18.6698729810778 32.6254206389874 3.80000000000001
vertex 18.1703708685547 33.8313254134748 1.0
vertex 18.1703708685547 33.8313254134748 3.80000000000001
endloop
endfacet
facet normal 0.866025403784438 0.500000000000002 0.0
outer loop
vertex 18.6698729810778 32.6254206389874 1.0
vertex 19.4644660940673 31.5898867330547 3.80000000000001
vertex 19.4644660940673 31.5898867330547 1.0
endloop
endfacet
facet normal 0.70710678118655 0.707106781186545 0.0
outer loop
vertex 19.4644660940673 31.5898867330547 3.80000000000001
vertex 18.6698729810778 32.6254206389874 1.0
vertex 18.6698729810778 32.6254206389874 3.80000000000001
endloop
endfacet
facet normal 0.70710678118655 0.707106781186545 0.0
outer loop
vertex 19.4644660940673 31.5898867330547 3.80000000000001
vertex 20.5 30.7952936200652 1.0
vertex 19.4644660940673 31.5898867330547 1.0
endloop
endfacet
facet normal 0.500000000000008 0.866025403784434 0.0
outer loop
vertex 20.5 30.7952936200652 1.0
vertex 19.4644660940673 31.5898867330547 3.80000000000001
vertex 20.5 30.7952936200652 3.80000000000001
endloop
endfacet
facet normal 0.500000000000008 0.866025403784434 0.0
outer loop
vertex 20.5 30.7952936200652 3.80000000000001
vertex 21.7059047744874 30.295791507542 1.0
vertex 20.5 30.7952936200652 1.0
endloop
endfacet
facet normal 0.258819045102527 0.965925826289067 0.0
outer loop
vertex 21.7059047744874 30.295791507542 1.0
vertex 20.5 30.7952936200652 3.80000000000001
vertex 21.7059047744874 30.295791507542 3.80000000000001
endloop
endfacet
facet normal -0.000124726169715752 0.947682733167154 -0.319213755499689
outer loop
vertex 0.0 3.92542063898741 11.0
vertex 119.1 5.62542063898738 16.0
vertex 119.1 3.92542063898741 10.9069282788902
endloop
endfacet
facet normal -0.000124726169715752 0.947682733167154 -0.319213755499689
outer loop
vertex 119.1 5.62542063898738 16.0
vertex 0.0 3.92542063898741 11.0
vertex 0.0 5.62542063898738 16.0
endloop
endfacet
facet normal 0.0 -1.0 0.0
outer loop
vertex 119.1 65.9254206389874 11.0
vertex 0.0 65.9254206389874 3.80000000000001
vertex 119.1 65.9254206389874 3.80000000000001
endloop
endfacet
facet normal 0.0 -1.0 0.0
outer loop
vertex 0.0 65.9254206389874 3.80000000000001
vertex 119.1 65.9254206389874 11.0
vertex 0.0 65.9254206389874 11.0
endloop
endfacet
endsolid Nokia Lumia 710
