solid iPhone4s
facet normal 0.543214476255119 -0.543214476255129 0.640184399664458
outer loop
vertex 29.5569843578718 139.524965625235 9.79999999999999
vertex 29.3425182638045 142.484622247685 12.8
vertex 27.7892174049055 141.292732578201 12.8
endloop
endfacet
facet normal 0.384110639798705 -0.665299143859123 0.640184399664462
outer loop
vertex 29.3425182638045 142.484622247685 12.8
vertex 29.5569843578718 139.524965625235 9.79999999999999
vertex 30.5925182638045 140.319558738224 9.79999999999999
endloop
endfacet
facet normal 0.198830298012833 -0.742044774267951 0.640184399664466
outer loop
vertex 31.1513754255358 143.23387541647 12.8
vertex 30.5925182638045 140.319558738224 9.79999999999999
vertex 31.7984230382919 140.819060850747 9.79999999999999
endloop
endfacet
facet normal 0.384110639798705 -0.665299143859123 0.640184399664462
outer loop
vertex 30.5925182638045 140.319558738224 9.79999999999999
vertex 31.1513754255358 143.23387541647 12.8
vertex 29.3425182638045 142.484622247685 12.8
endloop
endfacet
facet normal 0.38411063979869 0.665299143859115 0.640184399664479
outer loop
vertex 29.3425182638045 129.494241190919 12.8
vertex 29.5569843578718 132.453897813369 9.79999999999999
vertex 27.7892174049055 130.686130860403 12.8
endloop
endfacet
facet normal 0.543214476255109 0.543214476255116 0.640184399664477
outer loop
vertex 29.5569843578718 132.453897813369 9.79999999999999
vertex 29.3425182638045 129.494241190919 12.8
vertex 30.5925182638045 131.65930470038 9.79999999999999
endloop
endfacet
facet normal -0.384110639798697 0.665299143859103 0.640184399664488
outer loop
vertex 36.8425182638046 129.494241190919 12.8
vertex 36.6280521697372 132.453897813369 9.79999999999999
vertex 35.5925182638045 131.65930470038 9.79999999999999
endloop
endfacet
facet normal -0.543214476255103 0.543214476255112 0.640184399664486
outer loop
vertex 36.6280521697372 132.453897813369 9.79999999999999
vertex 36.8425182638046 129.494241190919 12.8
vertex 38.3958191227036 130.686130860403 12.8
endloop
endfacet
facet normal 0.543214476255106 0.543214476255119 0.640184399664477
outer loop
vertex 27.7892174049055 130.686130860403 12.8
vertex 28.7623912448823 133.489431719302 9.79999999999999
vertex 26.5973277354213 132.239431719302 12.8
endloop
endfacet
facet normal 0.665299143859117 0.38411063979869 0.640184399664477
outer loop
vertex 28.7623912448823 133.489431719302 9.79999999999999
vertex 27.7892174049055 130.686130860403 12.8
vertex 29.5569843578718 132.453897813369 9.79999999999999
endloop
endfacet
facet normal 5.50079980645892e-018 -2.55379007522348e-017 1.0
outer loop
vertex 9.29251826380449 109.789431719302 12.8
vertex 11.1925182638045 117.989431719302 12.8
vertex 9.29251826380449 144.789431719302 12.8
endloop
endfacet
facet normal 5.50079980645892e-018 -2.55379007522348e-017 1.0
outer loop
vertex 11.1925182638045 117.989431719302 12.8
vertex 9.29251826380449 109.789431719302 12.8
vertex 11.3254075412771 116.980037443402 12.8
endloop
endfacet
facet normal 5.50079980645892e-018 -2.55379007522348e-017 1.0
outer loop
vertex 11.3254075412771 116.980037443402 12.8
vertex 9.29251826380449 109.789431719302 12.8
vertex 11.7150191890452 116.039431719302 12.8
endloop
endfacet
facet normal 5.50079980645892e-018 -2.55379007522348e-017 1.0
outer loop
vertex 11.7150191890452 116.039431719302 12.8
vertex 9.29251826380449 109.789431719302 12.8
vertex 12.3348018171769 115.231715272675 12.8
endloop
endfacet
facet normal 5.50079980645892e-018 -2.55379007522348e-017 1.0
outer loop
vertex 12.3348018171769 115.231715272675 12.8
vertex 9.29251826380449 109.789431719302 12.8
vertex 13.1425182638045 114.611932644543 12.8
endloop
endfacet
facet normal 5.50079980645892e-018 -2.55379007522348e-017 1.0
outer loop
vertex 13.1425182638045 114.611932644543 12.8
vertex 9.29251826380449 109.789431719302 12.8
vertex 21.2925182638045 109.789431719302 12.8
endloop
endfacet
facet normal 5.50079980645892e-018 -2.55379007522348e-017 1.0
outer loop
vertex 13.1425182638045 114.611932644543 12.8
vertex 21.2925182638045 109.789431719302 12.8
vertex 14.0831239879046 114.222320996775 12.8
endloop
endfacet
facet normal 5.50079980645892e-018 -2.55379007522348e-017 1.0
outer loop
vertex 14.0831239879046 114.222320996775 12.8
vertex 21.2925182638045 109.789431719302 12.8
vertex 15.0925182638045 114.089431719302 12.8
endloop
endfacet
facet normal 5.50079980645892e-018 -2.55379007522348e-017 1.0
outer loop
vertex 15.0925182638045 114.089431719302 12.8
vertex 21.2925182638045 109.789431719302 12.8
vertex 16.1019125397043 114.222320996775 12.8
endloop
endfacet
facet normal 5.50079980645892e-018 -2.55379007522348e-017 1.0
outer loop
vertex 16.1019125397043 114.222320996775 12.8
vertex 21.2925182638045 109.789431719302 12.8
vertex 17.0425182638045 114.611932644543 12.8
endloop
endfacet
facet normal 5.50079980645892e-018 -2.55379007522348e-017 1.0
outer loop
vertex 17.0425182638045 114.611932644543 12.8
vertex 21.2925182638045 109.789431719302 12.8
vertex 17.850234710432 115.231715272675 12.8
endloop
endfacet
facet normal 5.50079980645892e-018 -2.55379007522348e-017 1.0
outer loop
vertex 17.850234710432 115.231715272675 12.8
vertex 21.2925182638045 109.789431719302 12.8
vertex 18.4700173385638 116.039431719302 12.8
endloop
endfacet
facet normal 5.50079980645892e-018 -2.55379007522348e-017 1.0
outer loop
vertex 18.4700173385638 116.039431719302 12.8
vertex 21.2925182638045 109.789431719302 12.8
vertex 18.8596289863318 116.980037443402 12.8
endloop
endfacet
facet normal 5.50079980645892e-018 -2.55379007522348e-017 1.0
outer loop
vertex 18.8596289863318 116.980037443402 12.8
vertex 21.2925182638045 109.789431719302 12.8
vertex 18.9925182638045 117.989431719302 12.8
endloop
endfacet
facet normal 5.50079980645892e-018 -2.55379007522348e-017 1.0
outer loop
vertex 86.1925182638045 27.6237953458626 12.8
vertex 21.2925182638045 109.789431719302 12.8
vertex 21.2925182638045 27.6237953458626 12.8
endloop
endfacet
facet normal 5.50079980645892e-018 -2.55379007522348e-017 1.0
outer loop
vertex 21.2925182638045 109.789431719302 12.8
vertex 86.1925182638045 27.6237953458626 12.8
vertex 26.5973277354213 132.239431719302 12.8
endloop
endfacet
facet normal 5.50079980645892e-018 -2.55379007522348e-017 1.0
outer loop
vertex 21.2925182638045 109.789431719302 12.8
vertex 26.5973277354213 132.239431719302 12.8
vertex 25.8480745666365 134.048288881033 12.8
endloop
endfacet
facet normal 5.50079980645892e-018 -2.55379007522348e-017 1.0
outer loop
vertex 21.2925182638045 109.789431719302 12.8
vertex 25.8480745666365 134.048288881033 12.8
vertex 25.5925182638045 135.989431719302 12.8
endloop
endfacet
facet normal 5.50079980645892e-018 -2.55379007522348e-017 1.0
outer loop
vertex 26.5973277354213 132.239431719302 12.8
vertex 86.1925182638045 27.6237953458626 12.8
vertex 27.7892174049055 130.686130860403 12.8
endloop
endfacet
facet normal 5.50079980645892e-018 -2.55379007522348e-017 1.0
outer loop
vertex 27.7892174049055 130.686130860403 12.8
vertex 86.1925182638045 27.6237953458626 12.8
vertex 29.3425182638045 129.494241190919 12.8
endloop
endfacet
facet normal 5.50079980645892e-018 -2.55379007522348e-017 1.0
outer loop
vertex 29.3425182638045 129.494241190919 12.8
vertex 86.1925182638045 27.6237953458626 12.8
vertex 31.1513754255358 128.744988022134 12.8
endloop
endfacet
facet normal 5.50079980645892e-018 -2.55379007522348e-017 1.0
outer loop
vertex 31.1513754255358 128.744988022134 12.8
vertex 86.1925182638045 27.6237953458626 12.8
vertex 33.0925182638046 128.489431719302 12.8
endloop
endfacet
facet normal 5.50079980645892e-018 -2.55379007522348e-017 1.0
outer loop
vertex 33.0925182638046 128.489431719302 12.8
vertex 86.1925182638045 27.6237953458626 12.8
vertex 35.0336611020735 128.744988022134 12.8
endloop
endfacet
facet normal 5.50079980645892e-018 -2.55379007522348e-017 1.0
outer loop
vertex 35.0336611020735 128.744988022134 12.8
vertex 86.1925182638045 27.6237953458626 12.8
vertex 36.8425182638046 129.494241190919 12.8
endloop
endfacet
facet normal 5.50079980645892e-018 -2.55379007522348e-017 1.0
outer loop
vertex 36.8425182638046 129.494241190919 12.8
vertex 86.1925182638045 27.6237953458626 12.8
vertex 38.3958191227036 130.686130860403 12.8
endloop
endfacet
facet normal 5.50079980645892e-018 -2.55379007522348e-017 1.0
outer loop
vertex 38.3958191227036 130.686130860403 12.8
vertex 86.1925182638045 27.6237953458626 12.8
vertex 39.5877087921878 132.239431719302 12.8
endloop
endfacet
facet normal 5.50079980645892e-018 -2.55379007522348e-017 1.0
outer loop
vertex 39.5877087921878 132.239431719302 12.8
vertex 86.1925182638045 27.6237953458626 12.8
vertex 47.7150191890452 116.039431719302 12.8
endloop
endfacet
facet normal 5.50079980645892e-018 -2.55379007522348e-017 1.0
outer loop
vertex 39.5877087921878 132.239431719302 12.8
vertex 47.7150191890452 116.039431719302 12.8
vertex 47.3254075412772 116.980037443402 12.8
endloop
endfacet
facet normal 5.50079980645892e-018 -2.55379007522348e-017 1.0
outer loop
vertex 39.5877087921878 132.239431719302 12.8
vertex 47.3254075412772 116.980037443402 12.8
vertex 40.3369619609725 134.048288881033 12.8
endloop
endfacet
facet normal 5.50079980645892e-018 -2.55379007522348e-017 1.0
outer loop
vertex 40.3369619609725 134.048288881033 12.8
vertex 47.3254075412772 116.980037443402 12.8
vertex 40.5925182638045 135.989431719302 12.8
endloop
endfacet
facet normal 5.50079980645892e-018 -2.55379007522348e-017 1.0
outer loop
vertex 40.5925182638045 135.989431719302 12.8
vertex 47.3254075412772 116.980037443402 12.8
vertex 47.1925182638045 117.989431719302 12.8
endloop
endfacet
facet normal 5.50079980645892e-018 -2.55379007522348e-017 1.0
outer loop
vertex 47.7150191890452 116.039431719302 12.8
vertex 86.1925182638045 27.6237953458626 12.8
vertex 48.334801817177 115.231715272675 12.8
endloop
endfacet
facet normal 5.50079980645892e-018 -2.55379007522348e-017 1.0
outer loop
vertex 48.334801817177 115.231715272675 12.8
vertex 86.1925182638045 27.6237953458626 12.8
vertex 49.1425182638045 114.611932644543 12.8
endloop
endfacet
facet normal 5.50079980645892e-018 -2.55379007522348e-017 1.0
outer loop
vertex 49.1425182638045 114.611932644543 12.8
vertex 86.1925182638045 27.6237953458626 12.8
vertex 50.0831239879047 114.222320996775 12.8
endloop
endfacet
facet normal 5.50079980645892e-018 -2.55379007522348e-017 1.0
outer loop
vertex 50.0831239879047 114.222320996775 12.8
vertex 86.1925182638045 27.6237953458626 12.8
vertex 51.0925182638045 114.089431719302 12.8
endloop
endfacet
facet normal 5.50079980645892e-018 -2.55379007522348e-017 1.0
outer loop
vertex 51.0925182638045 114.089431719302 12.8
vertex 86.1925182638045 27.6237953458626 12.8
vertex 52.1019125397044 114.222320996775 12.8
endloop
endfacet
facet normal 5.50079980645892e-018 -2.55379007522348e-017 1.0
outer loop
vertex 52.1019125397044 114.222320996775 12.8
vertex 86.1925182638045 27.6237953458626 12.8
vertex 53.0425182638045 114.611932644543 12.8
endloop
endfacet
facet normal 5.50079980645892e-018 -2.55379007522348e-017 1.0
outer loop
vertex 53.0425182638045 114.611932644543 12.8
vertex 86.1925182638045 27.6237953458626 12.8
vertex 53.8502347104321 115.231715272675 12.8
endloop
endfacet
facet normal 5.50079980645892e-018 -2.55379007522348e-017 1.0
outer loop
vertex 53.8502347104321 115.231715272675 12.8
vertex 86.1925182638045 27.6237953458626 12.8
vertex 54.4700173385638 116.039431719302 12.8
endloop
endfacet
facet normal 5.50079980645892e-018 -2.55379007522348e-017 1.0
outer loop
vertex 54.4700173385638 116.039431719302 12.8
vertex 86.1925182638045 27.6237953458626 12.8
vertex 54.8596289863319 116.980037443402 12.8
endloop
endfacet
facet normal 5.50079980645892e-018 -2.55379007522348e-017 1.0
outer loop
vertex 54.8596289863319 116.980037443402 12.8
vertex 86.1925182638045 27.6237953458626 12.8
vertex 54.9925182638045 117.989431719302 12.8
endloop
endfacet
facet normal 5.50079980645892e-018 -2.55379007522348e-017 1.0
outer loop
vertex 9.29251826380449 144.789431719302 12.8
vertex 33.0925182638046 143.489431719302 12.8
vertex 86.1925182638046 144.789431719302 12.8
endloop
endfacet
facet normal 5.50079980645892e-018 -2.55379007522348e-017 1.0
outer loop
vertex 33.0925182638046 143.489431719302 12.8
vertex 9.29251826380449 144.789431719302 12.8
vertex 31.1513754255358 143.23387541647 12.8
endloop
endfacet
facet normal 5.50079980645892e-018 -2.55379007522348e-017 1.0
outer loop
vertex 31.1513754255358 143.23387541647 12.8
vertex 9.29251826380449 144.789431719302 12.8
vertex 29.3425182638045 142.484622247685 12.8
endloop
endfacet
facet normal 5.50079980645892e-018 -2.55379007522348e-017 1.0
outer loop
vertex 29.3425182638045 142.484622247685 12.8
vertex 9.29251826380449 144.789431719302 12.8
vertex 27.7892174049055 141.292732578201 12.8
endloop
endfacet
facet normal 5.50079980645892e-018 -2.55379007522348e-017 1.0
outer loop
vertex 27.7892174049055 141.292732578201 12.8
vertex 9.29251826380449 144.789431719302 12.8
vertex 26.5973277354213 139.739431719302 12.8
endloop
endfacet
facet normal 5.50079980645892e-018 -2.55379007522348e-017 1.0
outer loop
vertex 26.5973277354213 139.739431719302 12.8
vertex 9.29251826380449 144.789431719302 12.8
vertex 11.7150191890452 119.939431719302 12.8
endloop
endfacet
facet normal 5.50079980645892e-018 -2.55379007522348e-017 1.0
outer loop
vertex 11.7150191890452 119.939431719302 12.8
vertex 9.29251826380449 144.789431719302 12.8
vertex 11.3254075412771 118.998825995202 12.8
endloop
endfacet
facet normal 5.50079980645892e-018 -2.55379007522348e-017 1.0
outer loop
vertex 11.3254075412771 118.998825995202 12.8
vertex 9.29251826380449 144.789431719302 12.8
vertex 11.1925182638045 117.989431719302 12.8
endloop
endfacet
facet normal 5.50079980645892e-018 -2.55379007522348e-017 1.0
outer loop
vertex 26.5973277354213 139.739431719302 12.8
vertex 11.7150191890452 119.939431719302 12.8
vertex 12.3348018171769 120.74714816593 12.8
endloop
endfacet
facet normal 5.50079980645892e-018 -2.55379007522348e-017 1.0
outer loop
vertex 26.5973277354213 139.739431719302 12.8
vertex 12.3348018171769 120.74714816593 12.8
vertex 13.1425182638045 121.366930794061 12.8
endloop
endfacet
facet normal 5.50079980645892e-018 -2.55379007522348e-017 1.0
outer loop
vertex 26.5973277354213 139.739431719302 12.8
vertex 13.1425182638045 121.366930794061 12.8
vertex 14.0831239879046 121.756542441829 12.8
endloop
endfacet
facet normal 5.50079980645892e-018 -2.55379007522348e-017 1.0
outer loop
vertex 26.5973277354213 139.739431719302 12.8
vertex 14.0831239879046 121.756542441829 12.8
vertex 15.0925182638045 121.889431719302 12.8
endloop
endfacet
facet normal 5.50079980645892e-018 -2.55379007522348e-017 1.0
outer loop
vertex 26.5973277354213 139.739431719302 12.8
vertex 15.0925182638045 121.889431719302 12.8
vertex 16.1019125397043 121.756542441829 12.8
endloop
endfacet
facet normal 5.50079980645892e-018 -2.55379007522348e-017 1.0
outer loop
vertex 26.5973277354213 139.739431719302 12.8
vertex 16.1019125397043 121.756542441829 12.8
vertex 17.0425182638045 121.366930794061 12.8
endloop
endfacet
facet normal 5.50079980645892e-018 -2.55379007522348e-017 1.0
outer loop
vertex 26.5973277354213 139.739431719302 12.8
vertex 17.0425182638045 121.366930794061 12.8
vertex 17.850234710432 120.74714816593 12.8
endloop
endfacet
facet normal 5.50079980645892e-018 -2.55379007522348e-017 1.0
outer loop
vertex 26.5973277354213 139.739431719302 12.8
vertex 17.850234710432 120.74714816593 12.8
vertex 25.8480745666365 137.930574557571 12.8
endloop
endfacet
facet normal 5.50079980645892e-018 -2.55379007522348e-017 1.0
outer loop
vertex 25.8480745666365 137.930574557571 12.8
vertex 17.850234710432 120.74714816593 12.8
vertex 18.4700173385638 119.939431719302 12.8
endloop
endfacet
facet normal 5.50079980645892e-018 -2.55379007522348e-017 1.0
outer loop
vertex 25.8480745666365 137.930574557571 12.8
vertex 18.4700173385638 119.939431719302 12.8
vertex 18.8596289863318 118.998825995202 12.8
endloop
endfacet
facet normal 5.50079980645892e-018 -2.55379007522348e-017 1.0
outer loop
vertex 25.8480745666365 137.930574557571 12.8
vertex 18.8596289863318 118.998825995202 12.8
vertex 18.9925182638045 117.989431719302 12.8
endloop
endfacet
facet normal 5.50079980645892e-018 -2.55379007522348e-017 1.0
outer loop
vertex 25.8480745666365 137.930574557571 12.8
vertex 18.9925182638045 117.989431719302 12.8
vertex 21.2925182638045 109.789431719302 12.8
endloop
endfacet
facet normal 5.50079980645892e-018 -2.55379007522348e-017 1.0
outer loop
vertex 25.8480745666365 137.930574557571 12.8
vertex 21.2925182638045 109.789431719302 12.8
vertex 25.5925182638045 135.989431719302 12.8
endloop
endfacet
facet normal 5.50079980645892e-018 -2.55379007522348e-017 1.0
outer loop
vertex 86.1925182638046 144.789431719302 12.8
vertex 33.0925182638046 143.489431719302 12.8
vertex 35.0336611020735 143.23387541647 12.8
endloop
endfacet
facet normal 5.50079980645892e-018 -2.55379007522348e-017 1.0
outer loop
vertex 86.1925182638046 144.789431719302 12.8
vertex 35.0336611020735 143.23387541647 12.8
vertex 36.8425182638046 142.484622247685 12.8
endloop
endfacet
facet normal 5.50079980645892e-018 -2.55379007522348e-017 1.0
outer loop
vertex 86.1925182638046 144.789431719302 12.8
vertex 36.8425182638046 142.484622247685 12.8
vertex 38.3958191227036 141.292732578201 12.8
endloop
endfacet
facet normal 5.50079980645892e-018 -2.55379007522348e-017 1.0
outer loop
vertex 86.1925182638046 144.789431719302 12.8
vertex 38.3958191227036 141.292732578201 12.8
vertex 39.5877087921878 139.739431719302 12.8
endloop
endfacet
facet normal 5.50079980645892e-018 -2.55379007522348e-017 1.0
outer loop
vertex 86.1925182638046 144.789431719302 12.8
vertex 39.5877087921878 139.739431719302 12.8
vertex 40.3369619609725 137.930574557571 12.8
endloop
endfacet
facet normal 5.50079980645892e-018 -2.55379007522348e-017 1.0
outer loop
vertex 86.1925182638046 144.789431719302 12.8
vertex 40.3369619609725 137.930574557571 12.8
vertex 40.5925182638045 135.989431719302 12.8
endloop
endfacet
facet normal 5.50079980645892e-018 -2.55379007522348e-017 1.0
outer loop
vertex 86.1925182638046 144.789431719302 12.8
vertex 40.5925182638045 135.989431719302 12.8
vertex 49.1425182638045 121.366930794061 12.8
endloop
endfacet
facet normal 5.50079980645892e-018 -2.55379007522348e-017 1.0
outer loop
vertex 49.1425182638045 121.366930794061 12.8
vertex 40.5925182638045 135.989431719302 12.8
vertex 48.334801817177 120.74714816593 12.8
endloop
endfacet
facet normal 5.50079980645892e-018 -2.55379007522348e-017 1.0
outer loop
vertex 48.334801817177 120.74714816593 12.8
vertex 40.5925182638045 135.989431719302 12.8
vertex 47.7150191890452 119.939431719302 12.8
endloop
endfacet
facet normal 5.50079980645892e-018 -2.55379007522348e-017 1.0
outer loop
vertex 47.7150191890452 119.939431719302 12.8
vertex 40.5925182638045 135.989431719302 12.8
vertex 47.3254075412772 118.998825995202 12.8
endloop
endfacet
facet normal 5.50079980645892e-018 -2.55379007522348e-017 1.0
outer loop
vertex 47.3254075412772 118.998825995202 12.8
vertex 40.5925182638045 135.989431719302 12.8
vertex 47.1925182638045 117.989431719302 12.8
endloop
endfacet
facet normal 5.50079980645892e-018 -2.55379007522348e-017 1.0
outer loop
vertex 86.1925182638046 144.789431719302 12.8
vertex 49.1425182638045 121.366930794061 12.8
vertex 50.0831239879047 121.756542441829 12.8
endloop
endfacet
facet normal 5.50079980645892e-018 -2.55379007522348e-017 1.0
outer loop
vertex 86.1925182638046 144.789431719302 12.8
vertex 50.0831239879047 121.756542441829 12.8
vertex 51.0925182638045 121.889431719302 12.8
endloop
endfacet
facet normal 5.50079980645892e-018 -2.55379007522348e-017 1.0
outer loop
vertex 86.1925182638046 144.789431719302 12.8
vertex 51.0925182638045 121.889431719302 12.8
vertex 52.1019125397044 121.756542441829 12.8
endloop
endfacet
facet normal 5.50079980645892e-018 -2.55379007522348e-017 1.0
outer loop
vertex 86.1925182638046 144.789431719302 12.8
vertex 52.1019125397044 121.756542441829 12.8
vertex 53.0425182638045 121.366930794061 12.8
endloop
endfacet
facet normal 5.50079980645892e-018 -2.55379007522348e-017 1.0
outer loop
vertex 86.1925182638046 144.789431719302 12.8
vertex 53.0425182638045 121.366930794061 12.8
vertex 53.8502347104321 120.74714816593 12.8
endloop
endfacet
facet normal 5.50079980645892e-018 -2.55379007522348e-017 1.0
outer loop
vertex 86.1925182638046 144.789431719302 12.8
vertex 53.8502347104321 120.74714816593 12.8
vertex 54.4700173385638 119.939431719302 12.8
endloop
endfacet
facet normal 5.50079980645892e-018 -2.55379007522348e-017 1.0
outer loop
vertex 86.1925182638046 144.789431719302 12.8
vertex 54.4700173385638 119.939431719302 12.8
vertex 54.8596289863319 118.998825995202 12.8
endloop
endfacet
facet normal 5.50079980645892e-018 -2.55379007522348e-017 1.0
outer loop
vertex 86.1925182638046 144.789431719302 12.8
vertex 54.8596289863319 118.998825995202 12.8
vertex 54.9925182638045 117.989431719302 12.8
endloop
endfacet
facet normal 5.50079980645892e-018 -2.55379007522348e-017 1.0
outer loop
vertex 86.1925182638046 144.789431719302 12.8
vertex 54.9925182638045 117.989431719302 12.8
vertex 86.1925182638045 27.6237953458626 12.8
endloop
endfacet
facet normal -0.198830298012838 0.742044774267926 0.640184399664494
outer loop
vertex 35.0336611020735 128.744988022134 12.8
vertex 35.5925182638045 131.65930470038 9.79999999999999
vertex 34.3866134893171 131.159802587857 9.79999999999999
endloop
endfacet
facet normal -0.384110639798696 0.665299143859103 0.640184399664488
outer loop
vertex 35.5925182638045 131.65930470038 9.79999999999999
vertex 35.0336611020735 128.744988022134 12.8
vertex 36.8425182638046 129.494241190919 12.8
endloop
endfacet
facet normal 0.742044774267942 0.198830298012834 0.640184399664477
outer loop
vertex 28.2628891323592 134.695336493789 9.79999999999999
vertex 25.5925182638045 135.989431719302 12.8
vertex 25.8480745666365 134.048288881033 12.8
endloop
endfacet
facet normal 0.768221279597376 1.78210173373054e-015 0.64018439966448
outer loop
vertex 25.5925182638045 135.989431719302 12.8
vertex 28.2628891323592 134.695336493789 9.79999999999999
vertex 28.0925182638045 135.989431719302 9.79999999999999
endloop
endfacet
facet normal 0.768221279597376 -3.70960732727911e-016 0.64018439966448
outer loop
vertex 28.0925182638045 135.989431719302 9.79999999999999
vertex 25.8480745666365 137.930574557571 12.8
vertex 25.5925182638045 135.989431719302 12.8
endloop
endfacet
facet normal 0.742044774267945 -0.198830298012832 0.640184399664474
outer loop
vertex 25.8480745666365 137.930574557571 12.8
vertex 28.0925182638045 135.989431719302 9.79999999999999
vertex 28.2628891323592 137.283526944815 9.79999999999999
endloop
endfacet
facet normal 0.665299143859115 -0.384110639798707 0.64018439966447
outer loop
vertex 28.7623912448823 138.489431719302 9.79999999999999
vertex 25.8480745666365 137.930574557571 12.8
vertex 28.2628891323592 137.283526944815 9.79999999999999
endloop
endfacet
facet normal 0.742044774267945 -0.198830298012832 0.640184399664474
outer loop
vertex 25.8480745666365 137.930574557571 12.8
vertex 28.7623912448823 138.489431719302 9.79999999999999
vertex 26.5973277354213 139.739431719302 12.8
endloop
endfacet
facet normal 0.500000000000002 -0.866025403784437 0.0
outer loop
vertex 17.0425182638045 114.611932644543 17.8
vertex 16.1019125397043 114.222320996775 12.8
vertex 17.0425182638045 114.611932644543 12.8
endloop
endfacet
facet normal 0.258819045102522 -0.965925826289068 0.0
outer loop
vertex 16.1019125397043 114.222320996775 12.8
vertex 17.0425182638045 114.611932644543 17.8
vertex 16.1019125397043 114.222320996775 17.8
endloop
endfacet
facet normal 0.665299143859115 -0.384110639798707 0.64018439966447
outer loop
vertex 28.7623912448823 138.489431719302 9.79999999999999
vertex 27.7892174049055 141.292732578201 12.8
vertex 26.5973277354213 139.739431719302 12.8
endloop
endfacet
facet normal 0.54321447625512 -0.543214476255128 0.640184399664458
outer loop
vertex 27.7892174049055 141.292732578201 12.8
vertex 28.7623912448823 138.489431719302 9.79999999999999
vertex 29.5569843578718 139.524965625235 9.79999999999999
endloop
endfacet
facet normal 0.665299143859117 0.38411063979869 0.640184399664477
outer loop
vertex 28.7623912448823 133.489431719302 9.79999999999999
vertex 25.8480745666365 134.048288881033 12.8
vertex 26.5973277354213 132.239431719302 12.8
endloop
endfacet
facet normal 0.742044774267941 0.198830298012836 0.640184399664477
outer loop
vertex 25.8480745666365 134.048288881033 12.8
vertex 28.7623912448823 133.489431719302 9.79999999999999
vertex 28.2628891323592 134.695336493789 9.79999999999999
endloop
endfacet
facet normal 0.258819045102522 -0.965925826289068 0.0
outer loop
vertex 16.1019125397043 114.222320996775 17.8
vertex 15.0925182638045 114.089431719302 12.8
vertex 16.1019125397043 114.222320996775 12.8
endloop
endfacet
facet normal 0.0 -1.0 0.0
outer loop
vertex 15.0925182638045 114.089431719302 12.8
vertex 16.1019125397043 114.222320996775 17.8
vertex 15.0925182638045 114.089431719302 17.8
endloop
endfacet
facet normal -0.866025403784435 -0.500000000000007 0.0
outer loop
vertex 11.7150191890452 116.039431719302 17.8
vertex 12.3348018171769 115.231715272675 12.8
vertex 12.3348018171769 115.231715272675 17.8
endloop
endfacet
facet normal -0.707106781186547 -0.707106781186548 0.0
outer loop
vertex 12.3348018171769 115.231715272675 12.8
vertex 11.7150191890452 116.039431719302 17.8
vertex 11.7150191890452 116.039431719302 12.8
endloop
endfacet
facet normal -0.499999999999998 -0.86602540378444 0.0
outer loop
vertex 13.1425182638045 114.611932644543 17.8
vertex 12.3348018171769 115.231715272675 12.8
vertex 13.1425182638045 114.611932644543 12.8
endloop
endfacet
facet normal -0.707106781186547 -0.707106781186548 0.0
outer loop
vertex 12.3348018171769 115.231715272675 12.8
vertex 13.1425182638045 114.611932644543 17.8
vertex 12.3348018171769 115.231715272675 17.8
endloop
endfacet
facet normal -0.25881904510253 -0.965925826289066 0.0
outer loop
vertex 14.0831239879046 114.222320996775 17.8
vertex 13.1425182638045 114.611932644543 12.8
vertex 14.0831239879046 114.222320996775 12.8
endloop
endfacet
facet normal -0.499999999999998 -0.86602540378444 0.0
outer loop
vertex 13.1425182638045 114.611932644543 12.8
vertex 14.0831239879046 114.222320996775 17.8
vertex 13.1425182638045 114.611932644543 17.8
endloop
endfacet
facet normal 0.0 -1.0 0.0
outer loop
vertex 15.0925182638045 114.089431719302 17.8
vertex 14.0831239879046 114.222320996775 12.8
vertex 15.0925182638045 114.089431719302 12.8
endloop
endfacet
facet normal -0.25881904510253 -0.965925826289066 0.0
outer loop
vertex 14.0831239879046 114.222320996775 12.8
vertex 15.0925182638045 114.089431719302 17.8
vertex 14.0831239879046 114.222320996775 17.8
endloop
endfacet
facet normal -0.866025403784435 0.500000000000006 0.0
outer loop
vertex 11.7150191890452 119.939431719302 17.8
vertex 11.3254075412771 118.998825995202 12.8
vertex 11.3254075412771 118.998825995202 17.8
endloop
endfacet
facet normal -0.965925826289067 0.258819045102525 0.0
outer loop
vertex 11.3254075412771 118.998825995202 12.8
vertex 11.7150191890452 119.939431719302 17.8
vertex 11.7150191890452 119.939431719302 12.8
endloop
endfacet
facet normal -0.965925826289067 0.258819045102525 0.0
outer loop
vertex 11.3254075412771 118.998825995202 17.8
vertex 11.1925182638045 117.989431719302 12.8
vertex 11.1925182638045 117.989431719302 17.8
endloop
endfacet
facet normal -1.0 0.0 0.0
outer loop
vertex 11.1925182638045 117.989431719302 12.8
vertex 11.3254075412771 118.998825995202 17.8
vertex 11.3254075412771 118.998825995202 12.8
endloop
endfacet
facet normal -1.0 0.0 0.0
outer loop
vertex 11.1925182638045 117.989431719302 17.8
vertex 11.3254075412771 116.980037443402 12.8
vertex 11.3254075412771 116.980037443402 17.8
endloop
endfacet
facet normal -0.965925826289068 -0.258819045102523 0.0
outer loop
vertex 11.3254075412771 116.980037443402 12.8
vertex 11.1925182638045 117.989431719302 17.8
vertex 11.1925182638045 117.989431719302 12.8
endloop
endfacet
facet normal -0.965925826289068 -0.258819045102523 0.0
outer loop
vertex 11.3254075412771 116.980037443402 17.8
vertex 11.7150191890452 116.039431719302 12.8
vertex 11.7150191890452 116.039431719302 17.8
endloop
endfacet
facet normal -0.866025403784435 -0.500000000000007 0.0
outer loop
vertex 11.7150191890452 116.039431719302 12.8
vertex 11.3254075412771 116.980037443402 17.8
vertex 11.3254075412771 116.980037443402 12.8
endloop
endfacet
facet normal 0.0 1.0 0.0
outer loop
vertex 15.0925182638045 121.889431719302 17.8
vertex 16.1019125397043 121.756542441829 12.8
vertex 15.0925182638045 121.889431719302 12.8
endloop
endfacet
facet normal 0.258819045102522 0.965925826289068 0.0
outer loop
vertex 16.1019125397043 121.756542441829 12.8
vertex 15.0925182638045 121.889431719302 17.8
vertex 16.1019125397043 121.756542441829 17.8
endloop
endfacet
facet normal -0.500000000000006 0.866025403784435 0.0
outer loop
vertex 13.1425182638045 121.366930794061 17.8
vertex 14.0831239879046 121.756542441829 12.8
vertex 13.1425182638045 121.366930794061 12.8
endloop
endfacet
facet normal -0.258819045102522 0.965925826289068 0.0
outer loop
vertex 14.0831239879046 121.756542441829 12.8
vertex 13.1425182638045 121.366930794061 17.8
vertex 14.0831239879046 121.756542441829 17.8
endloop
endfacet
facet normal 0.258819045102522 0.965925826289068 0.0
outer loop
vertex 16.1019125397043 121.756542441829 17.8
vertex 17.0425182638045 121.366930794061 12.8
vertex 16.1019125397043 121.756542441829 12.8
endloop
endfacet
facet normal 0.500000000000006 0.866025403784435 0.0
outer loop
vertex 17.0425182638045 121.366930794061 12.8
vertex 16.1019125397043 121.756542441829 17.8
vertex 17.0425182638045 121.366930794061 17.8
endloop
endfacet
facet normal -0.258819045102522 0.965925826289068 0.0
outer loop
vertex 14.0831239879046 121.756542441829 17.8
vertex 15.0925182638045 121.889431719302 12.8
vertex 14.0831239879046 121.756542441829 12.8
endloop
endfacet
facet normal 0.0 1.0 0.0
outer loop
vertex 15.0925182638045 121.889431719302 12.8
vertex 14.0831239879046 121.756542441829 17.8
vertex 15.0925182638045 121.889431719302 17.8
endloop
endfacet
facet normal -0.707106781186558 0.707106781186536 0.0
outer loop
vertex 12.3348018171769 120.74714816593 17.8
vertex 13.1425182638045 121.366930794061 12.8
vertex 12.3348018171769 120.74714816593 12.8
endloop
endfacet
facet normal -0.500000000000006 0.866025403784435 0.0
outer loop
vertex 13.1425182638045 121.366930794061 12.8
vertex 12.3348018171769 120.74714816593 17.8
vertex 13.1425182638045 121.366930794061 17.8
endloop
endfacet
facet normal -0.707106781186558 0.707106781186536 0.0
outer loop
vertex 12.3348018171769 120.74714816593 17.8
vertex 11.7150191890452 119.939431719302 12.8
vertex 11.7150191890452 119.939431719302 17.8
endloop
endfacet
facet normal -0.866025403784435 0.500000000000006 0.0
outer loop
vertex 11.7150191890452 119.939431719302 12.8
vertex 12.3348018171769 120.74714816593 17.8
vertex 12.3348018171769 120.74714816593 12.8
endloop
endfacet
facet normal 0.500000000000006 0.866025403784435 0.0
outer loop
vertex 17.0425182638045 121.366930794061 17.8
vertex 17.850234710432 120.74714816593 12.8
vertex 17.0425182638045 121.366930794061 12.8
endloop
endfacet
facet normal 0.707106781186541 0.707106781186554 0.0
outer loop
vertex 17.850234710432 120.74714816593 12.8
vertex 17.0425182638045 121.366930794061 17.8
vertex 17.850234710432 120.74714816593 17.8
endloop
endfacet
facet normal 0.707106781186541 0.707106781186554 0.0
outer loop
vertex 17.850234710432 120.74714816593 12.8
vertex 18.4700173385638 119.939431719302 17.8
vertex 18.4700173385638 119.939431719302 12.8
endloop
endfacet
facet normal 0.866025403784436 0.500000000000005 0.0
outer loop
vertex 18.4700173385638 119.939431719302 17.8
vertex 17.850234710432 120.74714816593 12.8
vertex 17.850234710432 120.74714816593 17.8
endloop
endfacet
facet normal 0.866025403784436 0.500000000000005 0.0
outer loop
vertex 18.4700173385638 119.939431719302 12.8
vertex 18.8596289863318 118.998825995202 17.8
vertex 18.8596289863318 118.998825995202 12.8
endloop
endfacet
facet normal 0.965925826289068 0.258819045102522 0.0
outer loop
vertex 18.8596289863318 118.998825995202 17.8
vertex 18.4700173385638 119.939431719302 12.8
vertex 18.4700173385638 119.939431719302 17.8
endloop
endfacet
facet normal 0.965925826289068 0.258819045102522 0.0
outer loop
vertex 18.8596289863318 118.998825995202 12.8
vertex 18.9925182638045 117.989431719302 17.8
vertex 18.9925182638045 117.989431719302 12.8
endloop
endfacet
facet normal 1.0 0.0 0.0
outer loop
vertex 18.9925182638045 117.989431719302 17.8
vertex 18.8596289863318 118.998825995202 12.8
vertex 18.8596289863318 118.998825995202 17.8
endloop
endfacet
facet normal 1.0 0.0 0.0
outer loop
vertex 18.9925182638045 117.989431719302 12.8
vertex 18.8596289863318 116.980037443402 17.8
vertex 18.8596289863318 116.980037443402 12.8
endloop
endfacet
facet normal 0.965925826289068 -0.258819045102524 0.0
outer loop
vertex 18.8596289863318 116.980037443402 17.8
vertex 18.9925182638045 117.989431719302 12.8
vertex 18.9925182638045 117.989431719302 17.8
endloop
endfacet
facet normal 0.965925826289068 -0.258819045102524 0.0
outer loop
vertex 18.8596289863318 116.980037443402 12.8
vertex 18.4700173385638 116.039431719302 17.8
vertex 18.4700173385638 116.039431719302 12.8
endloop
endfacet
facet normal 0.866025403784436 -0.500000000000004 0.0
outer loop
vertex 18.4700173385638 116.039431719302 17.8
vertex 18.8596289863318 116.980037443402 12.8
vertex 18.8596289863318 116.980037443402 17.8
endloop
endfacet
facet normal 0.866025403784436 -0.500000000000004 0.0
outer loop
vertex 18.4700173385638 116.039431719302 12.8
vertex 17.850234710432 115.231715272675 17.8
vertex 17.850234710432 115.231715272675 12.8
endloop
endfacet
facet normal 0.707106781186544 -0.707106781186551 0.0
outer loop
vertex 17.850234710432 115.231715272675 17.8
vertex 18.4700173385638 116.039431719302 12.8
vertex 18.4700173385638 116.039431719302 17.8
endloop
endfacet
facet normal 0.707106781186544 -0.707106781186551 0.0
outer loop
vertex 17.850234710432 115.231715272675 17.8
vertex 17.0425182638045 114.611932644543 12.8
vertex 17.850234710432 115.231715272675 12.8
endloop
endfacet
facet normal 0.500000000000002 -0.866025403784437 0.0
outer loop
vertex 17.0425182638045 114.611932644543 12.8
vertex 17.850234710432 115.231715272675 17.8
vertex 17.0425182638045 114.611932644543 17.8
endloop
endfacet
facet normal 0.0 0.0 1.0
outer loop
vertex 11.3254075412771 116.980037443402 17.8
vertex 11.3254075412771 118.998825995202 17.8
vertex 11.1925182638045 117.989431719302 17.8
endloop
endfacet
facet normal 0.0 0.0 1.0
outer loop
vertex 11.3254075412771 118.998825995202 17.8
vertex 11.3254075412771 116.980037443402 17.8
vertex 11.7150191890452 116.039431719302 17.8
endloop
endfacet
facet normal 0.0 0.0 1.0
outer loop
vertex 11.3254075412771 118.998825995202 17.8
vertex 11.7150191890452 116.039431719302 17.8
vertex 11.7150191890452 119.939431719302 17.8
endloop
endfacet
facet normal 0.0 0.0 1.0
outer loop
vertex 11.7150191890452 119.939431719302 17.8
vertex 11.7150191890452 116.039431719302 17.8
vertex 12.3348018171769 115.231715272675 17.8
endloop
endfacet
facet normal 0.0 0.0 1.0
outer loop
vertex 11.7150191890452 119.939431719302 17.8
vertex 12.3348018171769 115.231715272675 17.8
vertex 12.3348018171769 120.74714816593 17.8
endloop
endfacet
facet normal 0.0 0.0 1.0
outer loop
vertex 12.3348018171769 120.74714816593 17.8
vertex 12.3348018171769 115.231715272675 17.8
vertex 13.1425182638045 114.611932644543 17.8
endloop
endfacet
facet normal 0.0 0.0 1.0
outer loop
vertex 12.3348018171769 120.74714816593 17.8
vertex 13.1425182638045 114.611932644543 17.8
vertex 13.1425182638045 121.366930794061 17.8
endloop
endfacet
facet normal 0.0 0.0 1.0
outer loop
vertex 13.1425182638045 121.366930794061 17.8
vertex 13.1425182638045 114.611932644543 17.8
vertex 14.0831239879046 121.756542441829 17.8
endloop
endfacet
facet normal 0.0 0.0 1.0
outer loop
vertex 14.0831239879046 121.756542441829 17.8
vertex 13.1425182638045 114.611932644543 17.8
vertex 14.0831239879046 114.222320996775 17.8
endloop
endfacet
facet normal 0.0 0.0 1.0
outer loop
vertex 14.0831239879046 121.756542441829 17.8
vertex 14.0831239879046 114.222320996775 17.8
vertex 15.0925182638045 114.089431719302 17.8
endloop
endfacet
facet normal 0.0 0.0 1.0
outer loop
vertex 14.0831239879046 121.756542441829 17.8
vertex 15.0925182638045 114.089431719302 17.8
vertex 15.0925182638045 121.889431719302 17.8
endloop
endfacet
facet normal 0.0 0.0 1.0
outer loop
vertex 15.0925182638045 121.889431719302 17.8
vertex 15.0925182638045 114.089431719302 17.8
vertex 16.1019125397043 114.222320996775 17.8
endloop
endfacet
facet normal 0.0 0.0 1.0
outer loop
vertex 15.0925182638045 121.889431719302 17.8
vertex 16.1019125397043 114.222320996775 17.8
vertex 16.1019125397043 121.756542441829 17.8
endloop
endfacet
facet normal 0.0 0.0 1.0
outer loop
vertex 16.1019125397043 121.756542441829 17.8
vertex 16.1019125397043 114.222320996775 17.8
vertex 17.0425182638045 114.611932644543 17.8
endloop
endfacet
facet normal 0.0 0.0 1.0
outer loop
vertex 16.1019125397043 121.756542441829 17.8
vertex 17.0425182638045 114.611932644543 17.8
vertex 17.0425182638045 121.366930794061 17.8
endloop
endfacet
facet normal 0.0 0.0 1.0
outer loop
vertex 17.0425182638045 121.366930794061 17.8
vertex 17.0425182638045 114.611932644543 17.8
vertex 17.850234710432 115.231715272675 17.8
endloop
endfacet
facet normal 0.0 0.0 1.0
outer loop
vertex 17.0425182638045 121.366930794061 17.8
vertex 17.850234710432 115.231715272675 17.8
vertex 17.850234710432 120.74714816593 17.8
endloop
endfacet
facet normal 0.0 0.0 1.0
outer loop
vertex 17.850234710432 120.74714816593 17.8
vertex 17.850234710432 115.231715272675 17.8
vertex 18.4700173385638 116.039431719302 17.8
endloop
endfacet
facet normal 0.0 0.0 1.0
outer loop
vertex 17.850234710432 120.74714816593 17.8
vertex 18.4700173385638 116.039431719302 17.8
vertex 18.4700173385638 119.939431719302 17.8
endloop
endfacet
facet normal 0.0 0.0 1.0
outer loop
vertex 18.4700173385638 119.939431719302 17.8
vertex 18.4700173385638 116.039431719302 17.8
vertex 18.8596289863318 116.980037443402 17.8
endloop
endfacet
facet normal 0.0 0.0 1.0
outer loop
vertex 18.4700173385638 119.939431719302 17.8
vertex 18.8596289863318 116.980037443402 17.8
vertex 18.8596289863318 118.998825995202 17.8
endloop
endfacet
facet normal 0.0 0.0 1.0
outer loop
vertex 18.8596289863318 118.998825995202 17.8
vertex 18.8596289863318 116.980037443402 17.8
vertex 18.9925182638045 117.989431719302 17.8
endloop
endfacet
facet normal 0.965925826289068 -0.258819045102524 0.0
outer loop
vertex 54.8596289863319 116.980037443402 12.8
vertex 54.4700173385638 116.039431719302 17.8
vertex 54.4700173385638 116.039431719302 12.8
endloop
endfacet
facet normal 0.866025403784442 -0.499999999999994 0.0
outer loop
vertex 54.4700173385638 116.039431719302 17.8
vertex 54.8596289863319 116.980037443402 12.8
vertex 54.8596289863319 116.980037443402 17.8
endloop
endfacet
facet normal 0.866025403784442 -0.499999999999994 0.0
outer loop
vertex 54.4700173385638 116.039431719302 12.8
vertex 53.8502347104321 115.231715272675 17.8
vertex 53.8502347104321 115.231715272675 12.8
endloop
endfacet
facet normal 0.707106781186548 -0.707106781186548 0.0
outer loop
vertex 53.8502347104321 115.231715272675 17.8
vertex 54.4700173385638 116.039431719302 12.8
vertex 54.4700173385638 116.039431719302 17.8
endloop
endfacet
facet normal 0.707106781186548 -0.707106781186548 0.0
outer loop
vertex 53.8502347104321 115.231715272675 17.8
vertex 53.0425182638045 114.611932644543 12.8
vertex 53.8502347104321 115.231715272675 12.8
endloop
endfacet
facet normal 0.499999999999995 -0.866025403784441 0.0
outer loop
vertex 53.0425182638045 114.611932644543 12.8
vertex 53.8502347104321 115.231715272675 17.8
vertex 53.0425182638045 114.611932644543 17.8
endloop
endfacet
facet normal 0.499999999999995 -0.866025403784441 0.0
outer loop
vertex 53.0425182638045 114.611932644543 17.8
vertex 52.1019125397044 114.222320996775 12.8
vertex 53.0425182638045 114.611932644543 12.8
endloop
endfacet
facet normal 0.258819045102521 -0.965925826289068 0.0
outer loop
vertex 52.1019125397044 114.222320996775 12.8
vertex 53.0425182638045 114.611932644543 17.8
vertex 52.1019125397044 114.222320996775 17.8
endloop
endfacet
facet normal 0.258819045102521 -0.965925826289068 0.0
outer loop
vertex 52.1019125397044 114.222320996775 17.8
vertex 51.0925182638045 114.089431719302 12.8
vertex 52.1019125397044 114.222320996775 12.8
endloop
endfacet
facet normal -1.42577758330351e-015 -1.0 0.0
outer loop
vertex 51.0925182638045 114.089431719302 12.8
vertex 52.1019125397044 114.222320996775 17.8
vertex 51.0925182638045 114.089431719302 17.8
endloop
endfacet
facet normal -1.42577758330351e-015 -1.0 0.0
outer loop
vertex 51.0925182638045 114.089431719302 17.8
vertex 50.0831239879047 114.222320996775 12.8
vertex 51.0925182638045 114.089431719302 12.8
endloop
endfacet
facet normal -0.258819045102523 -0.965925826289068 0.0
outer loop
vertex 50.0831239879047 114.222320996775 12.8
vertex 51.0925182638045 114.089431719302 17.8
vertex 50.0831239879047 114.222320996775 17.8
endloop
endfacet
facet normal -0.258819045102523 -0.965925826289068 0.0
outer loop
vertex 50.0831239879047 114.222320996775 17.8
vertex 49.1425182638045 114.611932644543 12.8
vertex 50.0831239879047 114.222320996775 12.8
endloop
endfacet
facet normal -0.499999999999995 -0.866025403784442 0.0
outer loop
vertex 49.1425182638045 114.611932644543 12.8
vertex 50.0831239879047 114.222320996775 17.8
vertex 49.1425182638045 114.611932644543 17.8
endloop
endfacet
facet normal -0.499999999999995 -0.866025403784442 0.0
outer loop
vertex 49.1425182638045 114.611932644543 17.8
vertex 48.334801817177 115.231715272675 12.8
vertex 49.1425182638045 114.611932644543 12.8
endloop
endfacet
facet normal -0.707106781186545 -0.70710678118655 0.0
outer loop
vertex 48.334801817177 115.231715272675 12.8
vertex 49.1425182638045 114.611932644543 17.8
vertex 48.334801817177 115.231715272675 17.8
endloop
endfacet
facet normal -4.87733106073613e-016 0.768221279597365 0.640184399664493
outer loop
vertex 33.0925182638046 128.489431719302 12.8
vertex 34.3866134893171 131.159802587857 9.79999999999999
vertex 33.0925182638045 130.989431719302 9.79999999999999
endloop
endfacet
facet normal -0.198830298012837 0.742044774267927 0.640184399664494
outer loop
vertex 34.3866134893171 131.159802587857 9.79999999999999
vertex 33.0925182638046 128.489431719302 12.8
vertex 35.0336611020735 128.744988022134 12.8
endloop
endfacet
facet normal 0.38411063979869 0.665299143859115 0.640184399664479
outer loop
vertex 29.3425182638045 129.494241190919 12.8
vertex 31.7984230382919 131.159802587857 9.79999999999999
vertex 30.5925182638045 131.65930470038 9.79999999999999
endloop
endfacet
facet normal 0.198830298012835 0.742044774267934 0.640184399664486
outer loop
vertex 31.7984230382919 131.159802587857 9.79999999999999
vertex 29.3425182638045 129.494241190919 12.8
vertex 31.1513754255358 128.744988022134 12.8
endloop
endfacet
facet normal -0.543214476255102 0.543214476255114 0.640184399664486
outer loop
vertex 38.3958191227036 130.686130860403 12.8
vertex 37.4226452827267 133.489431719302 9.79999999999999
vertex 36.6280521697372 132.453897813369 9.79999999999999
endloop
endfacet
facet normal -0.665299143859112 0.384110639798684 0.640184399664486
outer loop
vertex 37.4226452827267 133.489431719302 9.79999999999999
vertex 38.3958191227036 130.686130860403 12.8
vertex 39.5877087921878 132.239431719302 12.8
endloop
endfacet
facet normal 0.198830298012828 0.742044774267936 0.640184399664486
outer loop
vertex 31.1513754255358 128.744988022134 12.8
vertex 33.0925182638045 130.989431719302 9.79999999999999
vertex 31.7984230382919 131.159802587857 9.79999999999999
endloop
endfacet
facet normal 2.52927772314484e-015 0.768221279597365 0.640184399664493
outer loop
vertex 33.0925182638045 130.989431719302 9.79999999999999
vertex 31.1513754255358 128.744988022134 12.8
vertex 33.0925182638046 128.489431719302 12.8
endloop
endfacet
facet normal -0.742044774267939 0.198830298012832 0.640184399664481
outer loop
vertex 40.3369619609725 134.048288881033 12.8
vertex 37.4226452827267 133.489431719302 9.79999999999999
vertex 39.5877087921878 132.239431719302 12.8
endloop
endfacet
facet normal -0.665299143859112 0.384110639798684 0.640184399664486
outer loop
vertex 37.4226452827267 133.489431719302 9.79999999999999
vertex 40.3369619609725 134.048288881033 12.8
vertex 37.9221473952498 134.695336493789 9.79999999999999
endloop
endfacet
facet normal -4.59594657646297e-016 -0.768221279597379 0.640184399664476
outer loop
vertex 33.0925182638046 143.489431719302 12.8
vertex 31.7984230382919 140.819060850747 9.79999999999999
vertex 33.0925182638045 140.989431719302 9.79999999999999
endloop
endfacet
facet normal 0.198830298012839 -0.74204477426795 0.640184399664466
outer loop
vertex 31.7984230382919 140.819060850747 9.79999999999999
vertex 33.0925182638046 143.489431719302 12.8
vertex 31.1513754255358 143.23387541647 12.8
endloop
endfacet
facet normal -0.198830298012843 -0.742044774267942 0.640184399664475
outer loop
vertex 35.0336611020735 143.23387541647 12.8
vertex 33.0925182638045 140.989431719302 9.79999999999999
vertex 34.3866134893171 140.819060850747 9.79999999999999
endloop
endfacet
facet normal 2.5545705003763e-015 -0.768221279597379 0.640184399664476
outer loop
vertex 33.0925182638045 140.989431719302 9.79999999999999
vertex 35.0336611020735 143.23387541647 12.8
vertex 33.0925182638046 143.489431719302 12.8
endloop
endfacet
facet normal -0.384110639798712 -0.665299143859111 0.64018439966447
outer loop
vertex 36.8425182638046 142.484622247685 12.8
vertex 34.3866134893171 140.819060850747 9.79999999999999
vertex 35.5925182638045 140.319558738224 9.79999999999999
endloop
endfacet
facet normal -0.198830298012841 -0.742044774267942 0.640184399664475
outer loop
vertex 34.3866134893171 140.819060850747 9.79999999999999
vertex 36.8425182638046 142.484622247685 12.8
vertex 35.0336611020735 143.23387541647 12.8
endloop
endfacet
facet normal -0.543214476255113 -0.543214476255126 0.640184399664466
outer loop
vertex 36.6280521697372 139.524965625235 9.79999999999999
vertex 36.8425182638046 142.484622247685 12.8
vertex 35.5925182638045 140.319558738224 9.79999999999999
endloop
endfacet
facet normal -0.384110639798712 -0.665299143859111 0.64018439966447
outer loop
vertex 36.8425182638046 142.484622247685 12.8
vertex 36.6280521697372 139.524965625235 9.79999999999999
vertex 38.3958191227036 141.292732578201 12.8
endloop
endfacet
facet normal -0.66529914385911 -0.3841106397987 0.640184399664478
outer loop
vertex 37.4226452827267 138.489431719302 9.79999999999999
vertex 38.3958191227036 141.292732578201 12.8
vertex 36.6280521697372 139.524965625235 9.79999999999999
endloop
endfacet
facet normal -0.543214476255115 -0.543214476255123 0.640184399664466
outer loop
vertex 38.3958191227036 141.292732578201 12.8
vertex 37.4226452827267 138.489431719302 9.79999999999999
vertex 39.5877087921878 139.739431719302 12.8
endloop
endfacet
facet normal -0.742044774267943 -0.198830298012828 0.640184399664477
outer loop
vertex 40.3369619609725 137.930574557571 12.8
vertex 37.4226452827267 138.489431719302 9.79999999999999
vertex 37.9221473952498 137.283526944815 9.79999999999999
endloop
endfacet
facet normal -0.66529914385911 -0.3841106397987 0.640184399664478
outer loop
vertex 37.4226452827267 138.489431719302 9.79999999999999
vertex 40.3369619609725 137.930574557571 12.8
vertex 39.5877087921878 139.739431719302 12.8
endloop
endfacet
facet normal -0.742044774267943 -0.198830298012828 0.640184399664477
outer loop
vertex 40.3369619609725 137.930574557571 12.8
vertex 38.0925182638045 135.989431719302 9.79999999999999
vertex 40.5925182638045 135.989431719302 12.8
endloop
endfacet
facet normal -0.768221279597374 -3.87822584215544e-016 0.640184399664482
outer loop
vertex 38.0925182638045 135.989431719302 9.79999999999999
vertex 40.3369619609725 137.930574557571 12.8
vertex 37.9221473952498 137.283526944815 9.79999999999999
endloop
endfacet
facet normal -0.768221279597374 1.77272225092144e-015 0.640184399664482
outer loop
vertex 40.5925182638045 135.989431719302 12.8
vertex 37.9221473952498 134.695336493789 9.79999999999999
vertex 40.3369619609725 134.048288881033 12.8
endloop
endfacet
facet normal -0.74204477426794 0.19883029801283 0.640184399664481
outer loop
vertex 37.9221473952498 134.695336493789 9.79999999999999
vertex 40.5925182638045 135.989431719302 12.8
vertex 38.0925182638045 135.989431719302 9.79999999999999
endloop
endfacet
facet normal -0.0 -0.0 1.0
outer loop
vertex 83.1925182638045 29.6237953458626 2.0
vertex 81.6925182638045 144.789431719302 2.0
vertex 81.6925182638045 29.6237953458626 2.0
endloop
endfacet
facet normal -0.0 -0.0 1.0
outer loop
vertex 81.6925182638045 144.789431719302 2.0
vertex 83.1925182638045 29.6237953458626 2.0
vertex 83.1925182638045 97.789431719302 2.0
endloop
endfacet
facet normal -0.0 -0.0 1.0
outer loop
vertex 81.6925182638045 144.789431719302 2.0
vertex 83.1925182638045 97.789431719302 2.0
vertex 84.2925182638045 144.789431719302 2.0
endloop
endfacet
facet normal -0.0 -0.0 1.0
outer loop
vertex 84.2925182638045 144.789431719302 2.0
vertex 83.1925182638045 97.789431719302 2.0
vertex 84.2925182638045 97.789431719302 2.0
endloop
endfacet
facet normal 1.0 -1.95889438644965e-016 2.34046422483789e-031
outer loop
vertex 86.1925182638046 144.789431719302 0.0
vertex 86.1925182638045 27.6237953458626 12.8
vertex 86.1925182638045 27.6237953458626 3.05288447831157e-015
endloop
endfacet
facet normal 1.0 -1.95889438644965e-016 2.34046422483789e-031
outer loop
vertex 86.1925182638045 27.6237953458626 12.8
vertex 86.1925182638046 144.789431719302 0.0
vertex 86.1925182638046 144.789431719302 12.8
endloop
endfacet
facet normal 0.0 1.0 0.0
outer loop
vertex 83.1925182638045 97.789431719302 9.79999999999999
vertex 84.2925182638045 97.789431719302 2.0
vertex 83.1925182638045 97.789431719302 2.0
endloop
endfacet
facet normal 0.0 1.0 0.0
outer loop
vertex 84.2925182638045 97.789431719302 2.0
vertex 83.1925182638045 97.789431719302 9.79999999999999
vertex 84.2925182638045 97.789431719302 9.79999999999999
endloop
endfacet
facet normal -1.0 0.0 0.0
outer loop
vertex 83.1925182638045 29.6237953458626 9.79999999999998
vertex 83.1925182638045 27.6237953458626 2.0
vertex 83.1925182638045 27.6237953458626 9.79999999999998
endloop
endfacet
facet normal -1.0 0.0 0.0
outer loop
vertex 83.1925182638045 27.6237953458626 2.0
vertex 83.1925182638045 29.6237953458626 9.79999999999998
vertex 83.1925182638045 29.6237953458626 2.0
endloop
endfacet
facet normal 1.0 -0.0 -0.0
outer loop
vertex 25.7925182638045 144.789431719302 0.0
vertex 25.7925182638045 29.6237953458626 2.0
vertex 25.7925182638045 29.6237953458626 0.0
endloop
endfacet
facet normal 1.0 -0.0 -0.0
outer loop
vertex 25.7925182638045 29.6237953458626 2.0
vertex 25.7925182638045 144.789431719302 0.0
vertex 25.7925182638045 144.789431719302 2.0
endloop
endfacet
facet normal -1.0 0.0 0.0
outer loop
vertex 84.2925182638045 144.789431719302 9.79999999999999
vertex 84.2925182638045 97.789431719302 2.0
vertex 84.2925182638045 97.789431719302 9.79999999999999
endloop
endfacet
facet normal -1.0 0.0 0.0
outer loop
vertex 84.2925182638045 97.789431719302 2.0
vertex 84.2925182638045 144.789431719302 9.79999999999999
vertex 84.2925182638045 144.789431719302 2.0
endloop
endfacet
facet normal -1.0 0.0 0.0
outer loop
vertex 21.2925182638045 27.6237953458626 12.8
vertex 21.2925182638045 109.789431719302 0.0
vertex 21.2925182638045 27.6237953458626 3.05288447831157e-015
endloop
endfacet
facet normal -1.0 0.0 0.0
outer loop
vertex 21.2925182638045 109.789431719302 0.0
vertex 21.2925182638045 27.6237953458626 12.8
vertex 21.2925182638045 109.789431719302 12.8
endloop
endfacet
facet normal -1.0 0.0 0.0
outer loop
vertex 9.29251826380449 144.789431719302 12.8
vertex 9.29251826380449 109.789431719302 0.0
vertex 9.29251826380449 109.789431719302 12.8
endloop
endfacet
facet normal -1.0 0.0 0.0
outer loop
vertex 9.29251826380449 109.789431719302 0.0
vertex 9.29251826380449 144.789431719302 12.8
vertex 9.29251826380449 144.789431719302 0.0
endloop
endfacet
facet normal 0.0 -1.0 0.0
outer loop
vertex 21.2925182638045 109.789431719302 12.8
vertex 9.29251826380449 109.789431719302 0.0
vertex 21.2925182638045 109.789431719302 0.0
endloop
endfacet
facet normal 0.0 -1.0 0.0
outer loop
vertex 9.29251826380449 109.789431719302 0.0
vertex 21.2925182638045 109.789431719302 12.8
vertex 9.29251826380449 109.789431719302 12.8
endloop
endfacet
facet normal -1.0 0.0 0.0
outer loop
vertex 81.6925182638045 29.6237953458626 2.0
vertex 81.6925182638045 27.6237953458626 3.05288447831157e-015
vertex 81.6925182638045 27.6237953458626 2.0
endloop
endfacet
facet normal -1.0 0.0 0.0
outer loop
vertex 81.6925182638045 27.6237953458626 3.05288447831157e-015
vertex 81.6925182638045 29.6237953458626 2.0
vertex 81.6925182638045 29.6237953458626 0.0
endloop
endfacet
facet normal 3.9920027706569e-017 1.45289181863095e-016 -1.0
outer loop
vertex 24.2925182638045 144.789431719302 9.79999999999999
vertex 28.0925182638045 135.989431719302 9.79999999999999
vertex 24.2925182638045 29.6237953458626 9.79999999999998
endloop
endfacet
facet normal 3.9920027706569e-017 1.45289181863095e-016 -1.0
outer loop
vertex 28.0925182638045 135.989431719302 9.79999999999999
vertex 24.2925182638045 144.789431719302 9.79999999999999
vertex 28.2628891323592 137.283526944815 9.79999999999999
endloop
endfacet
facet normal 3.9920027706569e-017 1.45289181863095e-016 -1.0
outer loop
vertex 28.2628891323592 137.283526944815 9.79999999999999
vertex 24.2925182638045 144.789431719302 9.79999999999999
vertex 28.7623912448823 138.489431719302 9.79999999999999
endloop
endfacet
facet normal 3.9920027706569e-017 1.45289181863095e-016 -1.0
outer loop
vertex 28.7623912448823 138.489431719302 9.79999999999999
vertex 24.2925182638045 144.789431719302 9.79999999999999
vertex 29.5569843578718 139.524965625235 9.79999999999999
endloop
endfacet
facet normal 3.9920027706569e-017 1.45289181863095e-016 -1.0
outer loop
vertex 29.5569843578718 139.524965625235 9.79999999999999
vertex 24.2925182638045 144.789431719302 9.79999999999999
vertex 30.5925182638045 140.319558738224 9.79999999999999
endloop
endfacet
facet normal 3.9920027706569e-017 1.45289181863095e-016 -1.0
outer loop
vertex 30.5925182638045 140.319558738224 9.79999999999999
vertex 24.2925182638045 144.789431719302 9.79999999999999
vertex 31.7984230382919 140.819060850747 9.79999999999999
endloop
endfacet
facet normal 3.9920027706569e-017 1.45289181863095e-016 -1.0
outer loop
vertex 31.7984230382919 140.819060850747 9.79999999999999
vertex 24.2925182638045 144.789431719302 9.79999999999999
vertex 33.0925182638045 140.989431719302 9.79999999999999
endloop
endfacet
facet normal 3.9920027706569e-017 1.45289181863095e-016 -1.0
outer loop
vertex 33.0925182638045 140.989431719302 9.79999999999999
vertex 24.2925182638045 144.789431719302 9.79999999999999
vertex 84.2925182638045 144.789431719302 9.79999999999999
endloop
endfacet
facet normal 3.9920027706569e-017 1.45289181863095e-016 -1.0
outer loop
vertex 24.2925182638045 29.6237953458626 9.79999999999998
vertex 28.0925182638045 135.989431719302 9.79999999999999
vertex 24.2925182638045 27.6237953458626 9.79999999999998
endloop
endfacet
facet normal 3.9920027706569e-017 1.45289181863095e-016 -1.0
outer loop
vertex 33.0925182638045 140.989431719302 9.79999999999999
vertex 84.2925182638045 144.789431719302 9.79999999999999
vertex 34.3866134893171 140.819060850747 9.79999999999999
endloop
endfacet
facet normal 3.9920027706569e-017 1.45289181863095e-016 -1.0
outer loop
vertex 34.3866134893171 140.819060850747 9.79999999999999
vertex 84.2925182638045 144.789431719302 9.79999999999999
vertex 35.5925182638045 140.319558738224 9.79999999999999
endloop
endfacet
facet normal 3.9920027706569e-017 1.45289181863095e-016 -1.0
outer loop
vertex 35.5925182638045 140.319558738224 9.79999999999999
vertex 84.2925182638045 144.789431719302 9.79999999999999
vertex 36.6280521697372 139.524965625235 9.79999999999999
endloop
endfacet
facet normal 3.9920027706569e-017 1.45289181863095e-016 -1.0
outer loop
vertex 36.6280521697372 139.524965625235 9.79999999999999
vertex 84.2925182638045 144.789431719302 9.79999999999999
vertex 37.4226452827267 138.489431719302 9.79999999999999
endloop
endfacet
facet normal 3.9920027706569e-017 1.45289181863095e-016 -1.0
outer loop
vertex 37.4226452827267 138.489431719302 9.79999999999999
vertex 84.2925182638045 144.789431719302 9.79999999999999
vertex 37.9221473952498 137.283526944815 9.79999999999999
endloop
endfacet
facet normal 3.9920027706569e-017 1.45289181863095e-016 -1.0
outer loop
vertex 37.9221473952498 137.283526944815 9.79999999999999
vertex 84.2925182638045 144.789431719302 9.79999999999999
vertex 38.0925182638045 135.989431719302 9.79999999999999
endloop
endfacet
facet normal 3.9920027706569e-017 1.45289181863095e-016 -1.0
outer loop
vertex 38.0925182638045 135.989431719302 9.79999999999999
vertex 84.2925182638045 144.789431719302 9.79999999999999
vertex 83.1925182638045 97.789431719302 9.79999999999999
endloop
endfacet
facet normal 3.9920027706569e-017 1.45289181863095e-016 -1.0
outer loop
vertex 83.1925182638045 97.789431719302 9.79999999999999
vertex 84.2925182638045 144.789431719302 9.79999999999999
vertex 84.2925182638045 97.789431719302 9.79999999999999
endloop
endfacet
facet normal 3.9920027706569e-017 1.45289181863095e-016 -1.0
outer loop
vertex 24.2925182638045 27.6237953458626 9.79999999999998
vertex 28.7623912448823 133.489431719302 9.79999999999999
vertex 83.1925182638045 27.6237953458626 9.79999999999998
endloop
endfacet
facet normal 3.9920027706569e-017 1.45289181863095e-016 -1.0
outer loop
vertex 28.7623912448823 133.489431719302 9.79999999999999
vertex 24.2925182638045 27.6237953458626 9.79999999999998
vertex 28.2628891323592 134.695336493789 9.79999999999999
endloop
endfacet
facet normal 3.9920027706569e-017 1.45289181863095e-016 -1.0
outer loop
vertex 28.2628891323592 134.695336493789 9.79999999999999
vertex 24.2925182638045 27.6237953458626 9.79999999999998
vertex 28.0925182638045 135.989431719302 9.79999999999999
endloop
endfacet
facet normal 3.9920027706569e-017 1.45289181863095e-016 -1.0
outer loop
vertex 83.1925182638045 27.6237953458626 9.79999999999998
vertex 28.7623912448823 133.489431719302 9.79999999999999
vertex 29.5569843578718 132.453897813369 9.79999999999999
endloop
endfacet
facet normal 3.9920027706569e-017 1.45289181863095e-016 -1.0
outer loop
vertex 83.1925182638045 27.6237953458626 9.79999999999998
vertex 29.5569843578718 132.453897813369 9.79999999999999
vertex 30.5925182638045 131.65930470038 9.79999999999999
endloop
endfacet
facet normal 3.9920027706569e-017 1.45289181863095e-016 -1.0
outer loop
vertex 83.1925182638045 27.6237953458626 9.79999999999998
vertex 30.5925182638045 131.65930470038 9.79999999999999
vertex 31.7984230382919 131.159802587857 9.79999999999999
endloop
endfacet
facet normal 3.9920027706569e-017 1.45289181863095e-016 -1.0
outer loop
vertex 83.1925182638045 27.6237953458626 9.79999999999998
vertex 31.7984230382919 131.159802587857 9.79999999999999
vertex 33.0925182638045 130.989431719302 9.79999999999999
endloop
endfacet
facet normal 3.9920027706569e-017 1.45289181863095e-016 -1.0
outer loop
vertex 83.1925182638045 27.6237953458626 9.79999999999998
vertex 33.0925182638045 130.989431719302 9.79999999999999
vertex 34.3866134893171 131.159802587857 9.79999999999999
endloop
endfacet
facet normal 3.9920027706569e-017 1.45289181863095e-016 -1.0
outer loop
vertex 83.1925182638045 27.6237953458626 9.79999999999998
vertex 34.3866134893171 131.159802587857 9.79999999999999
vertex 35.5925182638045 131.65930470038 9.79999999999999
endloop
endfacet
facet normal 3.9920027706569e-017 1.45289181863095e-016 -1.0
outer loop
vertex 83.1925182638045 27.6237953458626 9.79999999999998
vertex 35.5925182638045 131.65930470038 9.79999999999999
vertex 36.6280521697372 132.453897813369 9.79999999999999
endloop
endfacet
facet normal 3.9920027706569e-017 1.45289181863095e-016 -1.0
outer loop
vertex 83.1925182638045 27.6237953458626 9.79999999999998
vertex 36.6280521697372 132.453897813369 9.79999999999999
vertex 37.4226452827267 133.489431719302 9.79999999999999
endloop
endfacet
facet normal 3.9920027706569e-017 1.45289181863095e-016 -1.0
outer loop
vertex 83.1925182638045 27.6237953458626 9.79999999999998
vertex 37.4226452827267 133.489431719302 9.79999999999999
vertex 37.9221473952498 134.695336493789 9.79999999999999
endloop
endfacet
facet normal 3.9920027706569e-017 1.45289181863095e-016 -1.0
outer loop
vertex 83.1925182638045 27.6237953458626 9.79999999999998
vertex 37.9221473952498 134.695336493789 9.79999999999999
vertex 38.0925182638045 135.989431719302 9.79999999999999
endloop
endfacet
facet normal 3.9920027706569e-017 1.45289181863095e-016 -1.0
outer loop
vertex 83.1925182638045 27.6237953458626 9.79999999999998
vertex 38.0925182638045 135.989431719302 9.79999999999999
vertex 83.1925182638045 97.789431719302 9.79999999999999
endloop
endfacet
facet normal 3.9920027706569e-017 1.45289181863095e-016 -1.0
outer loop
vertex 83.1925182638045 27.6237953458626 9.79999999999998
vertex 83.1925182638045 97.789431719302 9.79999999999999
vertex 83.1925182638045 29.6237953458626 9.79999999999998
endloop
endfacet
facet normal -5.80221533622133e-018 -1.978804265819e-017 -1.0
outer loop
vertex 25.7925182638045 144.789431719302 0.0
vertex 9.29251826380449 109.789431719302 0.0
vertex 9.29251826380449 144.789431719302 0.0
endloop
endfacet
facet normal -5.80221533622133e-018 -1.978804265819e-017 -1.0
outer loop
vertex 9.29251826380449 109.789431719302 0.0
vertex 25.7925182638045 144.789431719302 0.0
vertex 21.2925182638045 109.789431719302 0.0
endloop
endfacet
facet normal -5.80221533622133e-018 -1.978804265819e-017 -1.0
outer loop
vertex 21.2925182638045 109.789431719302 0.0
vertex 25.7925182638045 144.789431719302 0.0
vertex 21.2925182638045 27.6237953458626 3.05288447831157e-015
endloop
endfacet
facet normal -5.80221533622133e-018 -1.978804265819e-017 -1.0
outer loop
vertex 21.2925182638045 27.6237953458626 3.05288447831157e-015
vertex 25.7925182638045 144.789431719302 0.0
vertex 25.7925182638045 27.6237953458626 3.05288447831157e-015
endloop
endfacet
facet normal -5.80221533622133e-018 -1.978804265819e-017 -1.0
outer loop
vertex 25.7925182638045 27.6237953458626 3.05288447831157e-015
vertex 25.7925182638045 144.789431719302 0.0
vertex 25.7925182638045 29.6237953458626 0.0
endloop
endfacet
facet normal 0.0 1.0 0.0
outer loop
vertex 9.29251826380449 144.789431719302 12.8
vertex 25.7925182638045 144.789431719302 0.0
vertex 9.29251826380449 144.789431719302 0.0
endloop
endfacet
facet normal 0.0 1.0 0.0
outer loop
vertex 25.7925182638045 144.789431719302 0.0
vertex 9.29251826380449 144.789431719302 12.8
vertex 24.2925182638045 144.789431719302 2.0
endloop
endfacet
facet normal 0.0 1.0 0.0
outer loop
vertex 24.2925182638045 144.789431719302 2.0
vertex 9.29251826380449 144.789431719302 12.8
vertex 24.2925182638045 144.789431719302 9.79999999999999
endloop
endfacet
facet normal 0.0 1.0 0.0
outer loop
vertex 24.2925182638045 144.789431719302 9.79999999999999
vertex 9.29251826380449 144.789431719302 12.8
vertex 84.2925182638045 144.789431719302 9.79999999999999
endloop
endfacet
facet normal 0.0 1.0 0.0
outer loop
vertex 81.6925182638045 144.789431719302 2.0
vertex 86.1925182638046 144.789431719302 0.0
vertex 81.6925182638045 144.789431719302 0.0
endloop
endfacet
facet normal 0.0 1.0 0.0
outer loop
vertex 86.1925182638046 144.789431719302 0.0
vertex 81.6925182638045 144.789431719302 2.0
vertex 84.2925182638045 144.789431719302 2.0
endloop
endfacet
facet normal 0.0 1.0 0.0
outer loop
vertex 86.1925182638046 144.789431719302 0.0
vertex 84.2925182638045 144.789431719302 2.0
vertex 86.1925182638046 144.789431719302 12.8
endloop
endfacet
facet normal 0.0 1.0 0.0
outer loop
vertex 86.1925182638046 144.789431719302 12.8
vertex 84.2925182638045 144.789431719302 2.0
vertex 84.2925182638045 144.789431719302 9.79999999999999
endloop
endfacet
facet normal 0.0 1.0 0.0
outer loop
vertex 86.1925182638046 144.789431719302 12.8
vertex 84.2925182638045 144.789431719302 9.79999999999999
vertex 9.29251826380449 144.789431719302 12.8
endloop
endfacet
facet normal 0.0 1.0 0.0
outer loop
vertex 25.7925182638045 144.789431719302 2.0
vertex 25.7925182638045 144.789431719302 0.0
vertex 24.2925182638045 144.789431719302 2.0
endloop
endfacet
facet normal -0.0 7.04991620636976e-016 1.0
outer loop
vertex 25.7925182638045 27.6237953458626 2.0
vertex 24.2925182638045 29.6237953458626 2.0
vertex 24.2925182638045 27.6237953458626 2.0
endloop
endfacet
facet normal -0.0 7.04991620636976e-016 1.0
outer loop
vertex 24.2925182638045 29.6237953458626 2.0
vertex 25.7925182638045 27.6237953458626 2.0
vertex 25.7925182638045 29.6237953458626 2.0
endloop
endfacet
facet normal 1.92369600303625e-016 -1.89200078619347e-017 -1.0
outer loop
vertex 86.1925182638046 144.789431719302 0.0
vertex 81.6925182638045 29.6237953458626 0.0
vertex 81.6925182638045 144.789431719302 0.0
endloop
endfacet
facet normal 1.92369600303625e-016 -1.89200078619347e-017 -1.0
outer loop
vertex 81.6925182638045 29.6237953458626 0.0
vertex 86.1925182638046 144.789431719302 0.0
vertex 81.6925182638045 27.6237953458626 3.05288447831157e-015
endloop
endfacet
facet normal 1.92369600303625e-016 -1.89200078619347e-017 -1.0
outer loop
vertex 81.6925182638045 27.6237953458626 3.05288447831157e-015
vertex 86.1925182638046 144.789431719302 0.0
vertex 86.1925182638045 27.6237953458626 3.05288447831157e-015
endloop
endfacet
facet normal 8.71379680330214e-032 5.71713483731373e-047 1.0
outer loop
vertex 47.3254075412772 116.980037443402 17.8
vertex 47.3254075412772 118.998825995202 17.8
vertex 47.1925182638045 117.989431719302 17.8
endloop
endfacet
facet normal 8.71379680330214e-032 5.71713483731373e-047 1.0
outer loop
vertex 47.3254075412772 118.998825995202 17.8
vertex 47.3254075412772 116.980037443402 17.8
vertex 47.7150191890452 116.039431719302 17.8
endloop
endfacet
facet normal 8.71379680330214e-032 5.71713483731373e-047 1.0
outer loop
vertex 47.3254075412772 118.998825995202 17.8
vertex 47.7150191890452 116.039431719302 17.8
vertex 47.7150191890452 119.939431719302 17.8
endloop
endfacet
facet normal 8.71379680330214e-032 5.71713483731373e-047 1.0
outer loop
vertex 47.7150191890452 119.939431719302 17.8
vertex 47.7150191890452 116.039431719302 17.8
vertex 48.334801817177 115.231715272675 17.8
endloop
endfacet
facet normal 8.71379680330214e-032 5.71713483731373e-047 1.0
outer loop
vertex 47.7150191890452 119.939431719302 17.8
vertex 48.334801817177 115.231715272675 17.8
vertex 48.334801817177 120.74714816593 17.8
endloop
endfacet
facet normal 8.71379680330214e-032 5.71713483731373e-047 1.0
outer loop
vertex 48.334801817177 120.74714816593 17.8
vertex 48.334801817177 115.231715272675 17.8
vertex 49.1425182638045 114.611932644543 17.8
endloop
endfacet
facet normal 8.71379680330214e-032 5.71713483731373e-047 1.0
outer loop
vertex 48.334801817177 120.74714816593 17.8
vertex 49.1425182638045 114.611932644543 17.8
vertex 49.1425182638045 121.366930794061 17.8
endloop
endfacet
facet normal 8.71379680330214e-032 5.71713483731373e-047 1.0
outer loop
vertex 49.1425182638045 121.366930794061 17.8
vertex 49.1425182638045 114.611932644543 17.8
vertex 50.0831239879047 121.756542441829 17.8
endloop
endfacet
facet normal 8.71379680330214e-032 5.71713483731373e-047 1.0
outer loop
vertex 50.0831239879047 121.756542441829 17.8
vertex 49.1425182638045 114.611932644543 17.8
vertex 50.0831239879047 114.222320996775 17.8
endloop
endfacet
facet normal 8.71379680330214e-032 5.71713483731373e-047 1.0
outer loop
vertex 50.0831239879047 121.756542441829 17.8
vertex 50.0831239879047 114.222320996775 17.8
vertex 51.0925182638045 121.889431719302 17.8
endloop
endfacet
facet normal 8.71379680330214e-032 5.71713483731373e-047 1.0
outer loop
vertex 51.0925182638045 121.889431719302 17.8
vertex 50.0831239879047 114.222320996775 17.8
vertex 51.0925182638045 114.089431719302 17.8
endloop
endfacet
facet normal 8.71379680330214e-032 5.71713483731373e-047 1.0
outer loop
vertex 51.0925182638045 121.889431719302 17.8
vertex 51.0925182638045 114.089431719302 17.8
vertex 52.1019125397044 114.222320996775 17.8
endloop
endfacet
facet normal 8.71379680330214e-032 5.71713483731373e-047 1.0
outer loop
vertex 51.0925182638045 121.889431719302 17.8
vertex 52.1019125397044 114.222320996775 17.8
vertex 52.1019125397044 121.756542441829 17.8
endloop
endfacet
facet normal 8.71379680330214e-032 5.71713483731373e-047 1.0
outer loop
vertex 52.1019125397044 121.756542441829 17.8
vertex 52.1019125397044 114.222320996775 17.8
vertex 53.0425182638045 114.611932644543 17.8
endloop
endfacet
facet normal 8.71379680330214e-032 5.71713483731373e-047 1.0
outer loop
vertex 52.1019125397044 121.756542441829 17.8
vertex 53.0425182638045 114.611932644543 17.8
vertex 53.0425182638045 121.366930794061 17.8
endloop
endfacet
facet normal 8.71379680330214e-032 5.71713483731373e-047 1.0
outer loop
vertex 53.0425182638045 121.366930794061 17.8
vertex 53.0425182638045 114.611932644543 17.8
vertex 53.8502347104321 115.231715272675 17.8
endloop
endfacet
facet normal 8.71379680330214e-032 5.71713483731373e-047 1.0
outer loop
vertex 53.0425182638045 121.366930794061 17.8
vertex 53.8502347104321 115.231715272675 17.8
vertex 53.8502347104321 120.74714816593 17.8
endloop
endfacet
facet normal 8.71379680330214e-032 5.71713483731373e-047 1.0
outer loop
vertex 53.8502347104321 120.74714816593 17.8
vertex 53.8502347104321 115.231715272675 17.8
vertex 54.4700173385638 116.039431719302 17.8
endloop
endfacet
facet normal 8.71379680330214e-032 5.71713483731373e-047 1.0
outer loop
vertex 53.8502347104321 120.74714816593 17.8
vertex 54.4700173385638 116.039431719302 17.8
vertex 54.4700173385638 119.939431719302 17.8
endloop
endfacet
facet normal 8.71379680330214e-032 5.71713483731373e-047 1.0
outer loop
vertex 54.4700173385638 119.939431719302 17.8
vertex 54.4700173385638 116.039431719302 17.8
vertex 54.8596289863319 116.980037443402 17.8
endloop
endfacet
facet normal 8.71379680330214e-032 5.71713483731373e-047 1.0
outer loop
vertex 54.4700173385638 119.939431719302 17.8
vertex 54.8596289863319 116.980037443402 17.8
vertex 54.8596289863319 118.998825995202 17.8
endloop
endfacet
facet normal 8.71379680330214e-032 5.71713483731373e-047 1.0
outer loop
vertex 54.8596289863319 118.998825995202 17.8
vertex 54.8596289863319 116.980037443402 17.8
vertex 54.9925182638045 117.989431719302 17.8
endloop
endfacet
facet normal 1.0 0.0 0.0
outer loop
vertex 54.9925182638045 117.989431719302 12.8
vertex 54.8596289863319 116.980037443402 17.8
vertex 54.8596289863319 116.980037443402 12.8
endloop
endfacet
facet normal 0.965925826289068 -0.258819045102524 0.0
outer loop
vertex 54.8596289863319 116.980037443402 17.8
vertex 54.9925182638045 117.989431719302 12.8
vertex 54.9925182638045 117.989431719302 17.8
endloop
endfacet
facet normal 0.965925826289068 0.258819045102522 0.0
outer loop
vertex 54.8596289863319 118.998825995202 12.8
vertex 54.9925182638045 117.989431719302 17.8
vertex 54.9925182638045 117.989431719302 12.8
endloop
endfacet
facet normal 1.0 0.0 0.0
outer loop
vertex 54.9925182638045 117.989431719302 17.8
vertex 54.8596289863319 118.998825995202 12.8
vertex 54.8596289863319 118.998825995202 17.8
endloop
endfacet
facet normal 0.86602540378444 0.499999999999998 0.0
outer loop
vertex 54.4700173385638 119.939431719302 12.8
vertex 54.8596289863319 118.998825995202 17.8
vertex 54.8596289863319 118.998825995202 12.8
endloop
endfacet
facet normal 0.965925826289068 0.258819045102522 0.0
outer loop
vertex 54.8596289863319 118.998825995202 17.8
vertex 54.4700173385638 119.939431719302 12.8
vertex 54.4700173385638 119.939431719302 17.8
endloop
endfacet
facet normal 0.707106781186549 0.707106781186546 0.0
outer loop
vertex 53.8502347104321 120.74714816593 12.8
vertex 54.4700173385638 119.939431719302 17.8
vertex 54.4700173385638 119.939431719302 12.8
endloop
endfacet
facet normal 0.86602540378444 0.499999999999998 0.0
outer loop
vertex 54.4700173385638 119.939431719302 17.8
vertex 53.8502347104321 120.74714816593 12.8
vertex 53.8502347104321 120.74714816593 17.8
endloop
endfacet
facet normal 0.499999999999998 0.86602540378444 0.0
outer loop
vertex 53.0425182638045 121.366930794061 17.8
vertex 53.8502347104321 120.74714816593 12.8
vertex 53.0425182638045 121.366930794061 12.8
endloop
endfacet
facet normal 0.707106781186549 0.707106781186546 0.0
outer loop
vertex 53.8502347104321 120.74714816593 12.8
vertex 53.0425182638045 121.366930794061 17.8
vertex 53.8502347104321 120.74714816593 17.8
endloop
endfacet
facet normal 0.258819045102521 0.965925826289068 0.0
outer loop
vertex 52.1019125397044 121.756542441829 17.8
vertex 53.0425182638045 121.366930794061 12.8
vertex 52.1019125397044 121.756542441829 12.8
endloop
endfacet
facet normal 0.499999999999998 0.86602540378444 0.0
outer loop
vertex 53.0425182638045 121.366930794061 12.8
vertex 52.1019125397044 121.756542441829 17.8
vertex 53.0425182638045 121.366930794061 17.8
endloop
endfacet
facet normal 0.0 1.0 0.0
outer loop
vertex 51.0925182638045 121.889431719302 17.8
vertex 52.1019125397044 121.756542441829 12.8
vertex 51.0925182638045 121.889431719302 12.8
endloop
endfacet
facet normal 0.258819045102521 0.965925826289068 0.0
outer loop
vertex 52.1019125397044 121.756542441829 12.8
vertex 51.0925182638045 121.889431719302 17.8
vertex 52.1019125397044 121.756542441829 17.8
endloop
endfacet
facet normal -0.258819045102522 0.965925826289068 0.0
outer loop
vertex 50.0831239879047 121.756542441829 17.8
vertex 51.0925182638045 121.889431719302 12.8
vertex 50.0831239879047 121.756542441829 12.8
endloop
endfacet
facet normal 0.0 1.0 0.0
outer loop
vertex 51.0925182638045 121.889431719302 12.8
vertex 50.0831239879047 121.756542441829 17.8
vertex 51.0925182638045 121.889431719302 17.8
endloop
endfacet
facet normal -0.500000000000004 0.866025403784437 0.0
outer loop
vertex 49.1425182638045 121.366930794061 17.8
vertex 50.0831239879047 121.756542441829 12.8
vertex 49.1425182638045 121.366930794061 12.8
endloop
endfacet
facet normal -0.258819045102522 0.965925826289068 0.0
outer loop
vertex 50.0831239879047 121.756542441829 12.8
vertex 49.1425182638045 121.366930794061 17.8
vertex 50.0831239879047 121.756542441829 17.8
endloop
endfacet
facet normal -0.707106781186554 0.707106781186541 0.0
outer loop
vertex 48.334801817177 120.74714816593 17.8
vertex 49.1425182638045 121.366930794061 12.8
vertex 48.334801817177 120.74714816593 12.8
endloop
endfacet
facet normal -0.500000000000004 0.866025403784437 0.0
outer loop
vertex 49.1425182638045 121.366930794061 12.8
vertex 48.334801817177 120.74714816593 17.8
vertex 49.1425182638045 121.366930794061 17.8
endloop
endfacet
facet normal -0.707106781186554 0.707106781186541 0.0
outer loop
vertex 48.334801817177 120.74714816593 17.8
vertex 47.7150191890452 119.939431719302 12.8
vertex 47.7150191890452 119.939431719302 17.8
endloop
endfacet
facet normal -0.866025403784436 0.500000000000005 0.0
outer loop
vertex 47.7150191890452 119.939431719302 12.8
vertex 48.334801817177 120.74714816593 17.8
vertex 48.334801817177 120.74714816593 12.8
endloop
endfacet
facet normal -0.866025403784436 0.500000000000005 0.0
outer loop
vertex 47.7150191890452 119.939431719302 17.8
vertex 47.3254075412772 118.998825995202 12.8
vertex 47.3254075412772 118.998825995202 17.8
endloop
endfacet
facet normal -0.965925826289068 0.258819045102522 0.0
outer loop
vertex 47.3254075412772 118.998825995202 12.8
vertex 47.7150191890452 119.939431719302 17.8
vertex 47.7150191890452 119.939431719302 12.8
endloop
endfacet
facet normal -0.965925826289068 0.258819045102522 0.0
outer loop
vertex 47.3254075412772 118.998825995202 17.8
vertex 47.1925182638045 117.989431719302 12.8
vertex 47.1925182638045 117.989431719302 17.8
endloop
endfacet
facet normal -1.0 0.0 0.0
outer loop
vertex 47.1925182638045 117.989431719302 12.8
vertex 47.3254075412772 118.998825995202 17.8
vertex 47.3254075412772 118.998825995202 12.8
endloop
endfacet
facet normal -1.0 0.0 0.0
outer loop
vertex 47.1925182638045 117.989431719302 17.8
vertex 47.3254075412772 116.980037443402 12.8
vertex 47.3254075412772 116.980037443402 17.8
endloop
endfacet
facet normal -0.965925826289068 -0.258819045102522 0.0
outer loop
vertex 47.3254075412772 116.980037443402 12.8
vertex 47.1925182638045 117.989431719302 17.8
vertex 47.1925182638045 117.989431719302 12.8
endloop
endfacet
facet normal -0.965925826289068 -0.258819045102522 0.0
outer loop
vertex 47.3254075412772 116.980037443402 17.8
vertex 47.7150191890452 116.039431719302 12.8
vertex 47.7150191890452 116.039431719302 17.8
endloop
endfacet
facet normal -0.866025403784438 -0.500000000000002 0.0
outer loop
vertex 47.7150191890452 116.039431719302 12.8
vertex 47.3254075412772 116.980037443402 17.8
vertex 47.3254075412772 116.980037443402 12.8
endloop
endfacet
facet normal -0.866025403784438 -0.500000000000002 0.0
outer loop
vertex 47.7150191890452 116.039431719302 17.8
vertex 48.334801817177 115.231715272675 12.8
vertex 48.334801817177 115.231715272675 17.8
endloop
endfacet
facet normal -0.707106781186545 -0.70710678118655 0.0
outer loop
vertex 48.334801817177 115.231715272675 12.8
vertex 47.7150191890452 116.039431719302 17.8
vertex 47.7150191890452 116.039431719302 12.8
endloop
endfacet
facet normal -0.0 1.0 -0.0
outer loop
vertex 24.2925182638045 29.6237953458626 9.79999999999998
vertex 25.7925182638045 29.6237953458626 2.0
vertex 24.2925182638045 29.6237953458626 2.0
endloop
endfacet
facet normal -0.0 1.0 -0.0
outer loop
vertex 25.7925182638045 29.6237953458626 2.0
vertex 24.2925182638045 29.6237953458626 9.79999999999998
vertex 81.6925182638045 29.6237953458626 2.0
endloop
endfacet
facet normal -0.0 1.0 -0.0
outer loop
vertex 81.6925182638045 29.6237953458626 2.0
vertex 24.2925182638045 29.6237953458626 9.79999999999998
vertex 83.1925182638045 29.6237953458626 2.0
endloop
endfacet
facet normal -0.0 1.0 -0.0
outer loop
vertex 83.1925182638045 29.6237953458626 2.0
vertex 24.2925182638045 29.6237953458626 9.79999999999998
vertex 83.1925182638045 29.6237953458626 9.79999999999998
endloop
endfacet
facet normal -0.0 1.0 -0.0
outer loop
vertex 25.7925182638045 29.6237953458626 2.0
vertex 81.6925182638045 29.6237953458626 0.0
vertex 25.7925182638045 29.6237953458626 0.0
endloop
endfacet
facet normal -0.0 1.0 -0.0
outer loop
vertex 81.6925182638045 29.6237953458626 0.0
vertex 25.7925182638045 29.6237953458626 2.0
vertex 81.6925182638045 29.6237953458626 2.0
endloop
endfacet
facet normal -1.01618721057053e-016 -1.0 1.33269211352351e-015
outer loop
vertex 86.1925182638045 27.6237953458626 3.05288447831157e-015
vertex 83.1925182638045 27.6237953458626 2.0
vertex 81.6925182638045 27.6237953458626 3.05288447831157e-015
endloop
endfacet
facet normal -1.01618721057053e-016 -1.0 1.33269211352351e-015
outer loop
vertex 83.1925182638045 27.6237953458626 2.0
vertex 86.1925182638045 27.6237953458626 3.05288447831157e-015
vertex 86.1925182638045 27.6237953458626 12.8
endloop
endfacet
facet normal -1.01618721057053e-016 -1.0 1.33269211352351e-015
outer loop
vertex 83.1925182638045 27.6237953458626 2.0
vertex 86.1925182638045 27.6237953458626 12.8
vertex 83.1925182638045 27.6237953458626 9.79999999999998
endloop
endfacet
facet normal -1.01618721057053e-016 -1.0 1.33269211352351e-015
outer loop
vertex 83.1925182638045 27.6237953458626 9.79999999999998
vertex 86.1925182638045 27.6237953458626 12.8
vertex 24.2925182638045 27.6237953458626 9.79999999999998
endloop
endfacet
facet normal -1.01618721057053e-016 -1.0 1.33269211352351e-015
outer loop
vertex 25.7925182638045 27.6237953458626 2.0
vertex 21.2925182638045 27.6237953458626 3.05288447831157e-015
vertex 25.7925182638045 27.6237953458626 3.05288447831157e-015
endloop
endfacet
facet normal -1.01618721057053e-016 -1.0 1.33269211352351e-015
outer loop
vertex 21.2925182638045 27.6237953458626 3.05288447831157e-015
vertex 25.7925182638045 27.6237953458626 2.0
vertex 24.2925182638045 27.6237953458626 2.0
endloop
endfacet
facet normal -1.01618721057053e-016 -1.0 1.33269211352351e-015
outer loop
vertex 21.2925182638045 27.6237953458626 3.05288447831157e-015
vertex 24.2925182638045 27.6237953458626 2.0
vertex 21.2925182638045 27.6237953458626 12.8
endloop
endfacet
facet normal -1.01618721057053e-016 -1.0 1.33269211352351e-015
outer loop
vertex 21.2925182638045 27.6237953458626 12.8
vertex 24.2925182638045 27.6237953458626 2.0
vertex 24.2925182638045 27.6237953458626 9.79999999999998
endloop
endfacet
facet normal -1.01618721057053e-016 -1.0 1.33269211352351e-015
outer loop
vertex 21.2925182638045 27.6237953458626 12.8
vertex 24.2925182638045 27.6237953458626 9.79999999999998
vertex 86.1925182638045 27.6237953458626 12.8
endloop
endfacet
facet normal -1.01618721057053e-016 -1.0 1.33269211352351e-015
outer loop
vertex 81.6925182638045 27.6237953458626 2.0
vertex 81.6925182638045 27.6237953458626 3.05288447831157e-015
vertex 83.1925182638045 27.6237953458626 2.0
endloop
endfacet
facet normal 0.0 -1.52644223915579e-015 -1.0
outer loop
vertex 81.6925182638045 29.6237953458626 0.0
vertex 25.7925182638045 27.6237953458626 3.05288447831157e-015
vertex 25.7925182638045 29.6237953458626 0.0
endloop
endfacet
facet normal 0.0 -1.52644223915579e-015 -1.0
outer loop
vertex 25.7925182638045 27.6237953458626 3.05288447831157e-015
vertex 81.6925182638045 29.6237953458626 0.0
vertex 81.6925182638045 27.6237953458626 3.05288447831157e-015
endloop
endfacet
facet normal -1.0 0.0 0.0
outer loop
vertex 81.6925182638045 144.789431719302 2.0
vertex 81.6925182638045 29.6237953458626 0.0
vertex 81.6925182638045 29.6237953458626 2.0
endloop
endfacet
facet normal -1.0 0.0 0.0
outer loop
vertex 81.6925182638045 29.6237953458626 0.0
vertex 81.6925182638045 144.789431719302 2.0
vertex 81.6925182638045 144.789431719302 0.0
endloop
endfacet
facet normal 1.0 -0.0 -0.0
outer loop
vertex 25.7925182638045 29.6237953458626 0.0
vertex 25.7925182638045 27.6237953458626 2.0
vertex 25.7925182638045 27.6237953458626 3.05288447831157e-015
endloop
endfacet
facet normal 1.0 -0.0 -0.0
outer loop
vertex 25.7925182638045 27.6237953458626 2.0
vertex 25.7925182638045 29.6237953458626 0.0
vertex 25.7925182638045 29.6237953458626 2.0
endloop
endfacet
facet normal -0.0 -0.0 1.0
outer loop
vertex 25.7925182638045 29.6237953458626 2.0
vertex 24.2925182638045 144.789431719302 2.0
vertex 24.2925182638045 29.6237953458626 2.0
endloop
endfacet
facet normal -0.0 -0.0 1.0
outer loop
vertex 24.2925182638045 144.789431719302 2.0
vertex 25.7925182638045 29.6237953458626 2.0
vertex 25.7925182638045 144.789431719302 2.0
endloop
endfacet
facet normal -0.0 7.04991620636976e-016 1.0
outer loop
vertex 83.1925182638045 27.6237953458626 2.0
vertex 81.6925182638045 29.6237953458626 2.0
vertex 81.6925182638045 27.6237953458626 2.0
endloop
endfacet
facet normal -0.0 7.04991620636976e-016 1.0
outer loop
vertex 81.6925182638045 29.6237953458626 2.0
vertex 83.1925182638045 27.6237953458626 2.0
vertex 83.1925182638045 29.6237953458626 2.0
endloop
endfacet
facet normal -1.0 0.0 0.0
outer loop
vertex 83.1925182638045 97.789431719302 9.79999999999999
vertex 83.1925182638045 29.6237953458626 2.0
vertex 83.1925182638045 29.6237953458626 9.79999999999998
endloop
endfacet
facet normal -1.0 0.0 0.0
outer loop
vertex 83.1925182638045 29.6237953458626 2.0
vertex 83.1925182638045 97.789431719302 9.79999999999999
vertex 83.1925182638045 97.789431719302 2.0
endloop
endfacet
facet normal 0.0 -1.0 0.0
outer loop
vertex 83.1925182638045 27.6237953458626 9.79999999999998
vertex 81.6925182638045 27.6237953458626 2.0
vertex 83.1925182638045 27.6237953458626 2.0
endloop
endfacet
facet normal 0.0 -1.0 0.0
outer loop
vertex 81.6925182638045 27.6237953458626 2.0
vertex 83.1925182638045 27.6237953458626 9.79999999999998
vertex 25.7925182638045 27.6237953458626 2.0
endloop
endfacet
facet normal 0.0 -1.0 0.0
outer loop
vertex 25.7925182638045 27.6237953458626 2.0
vertex 83.1925182638045 27.6237953458626 9.79999999999998
vertex 24.2925182638045 27.6237953458626 2.0
endloop
endfacet
facet normal 0.0 -1.0 0.0
outer loop
vertex 24.2925182638045 27.6237953458626 2.0
vertex 83.1925182638045 27.6237953458626 9.79999999999998
vertex 24.2925182638045 27.6237953458626 9.79999999999998
endloop
endfacet
facet normal 0.0 -1.0 0.0
outer loop
vertex 81.6925182638045 27.6237953458626 2.0
vertex 25.7925182638045 27.6237953458626 3.05288447831157e-015
vertex 81.6925182638045 27.6237953458626 3.05288447831157e-015
endloop
endfacet
facet normal 0.0 -1.0 0.0
outer loop
vertex 25.7925182638045 27.6237953458626 3.05288447831157e-015
vertex 81.6925182638045 27.6237953458626 2.0
vertex 25.7925182638045 27.6237953458626 2.0
endloop
endfacet
facet normal 1.0 -0.0 -0.0
outer loop
vertex 24.2925182638045 29.6237953458626 2.0
vertex 24.2925182638045 27.6237953458626 9.79999999999998
vertex 24.2925182638045 27.6237953458626 2.0
endloop
endfacet
facet normal 1.0 -0.0 -0.0
outer loop
vertex 24.2925182638045 27.6237953458626 9.79999999999998
vertex 24.2925182638045 29.6237953458626 2.0
vertex 24.2925182638045 29.6237953458626 9.79999999999998
endloop
endfacet
facet normal 1.0 -0.0 -0.0
outer loop
vertex 24.2925182638045 29.6237953458626 9.79999999999998
vertex 24.2925182638045 29.6237953458626 2.0
vertex 24.2925182638045 144.789431719302 2.0
endloop
endfacet
facet normal 1.0 -0.0 -0.0
outer loop
vertex 24.2925182638045 29.6237953458626 9.79999999999998
vertex 24.2925182638045 144.789431719302 2.0
vertex 24.2925182638045 144.789431719302 9.79999999999999
endloop
endfacet
endsolid iPhone4s
