solid HTC Desire
facet normal -1.0 3.46785750983905e-019 1.08382290264556e-018
outer loop
vertex 0.0 0.0 0.0
vertex 0.0 3.0 -4.0
vertex 0.0 0.0 -19.5
endloop
endfacet
facet normal -1.0 3.46785750983905e-019 1.08382290264556e-018
outer loop
vertex 0.0 3.0 -4.0
vertex 0.0 0.0 0.0
vertex 0.0 66.9 0.0
endloop
endfacet
facet normal -1.0 3.46785750983905e-019 1.08382290264556e-018
outer loop
vertex 0.0 3.0 -4.0
vertex 0.0 66.9 0.0
vertex 0.0 63.8697855424712 -4.0
endloop
endfacet
facet normal -1.0 3.46785750983905e-019 1.08382290264556e-018
outer loop
vertex 0.0 63.8697855424712 -4.0
vertex 0.0 66.9 0.0
vertex 0.0 63.8697855424712 -16.5
endloop
endfacet
facet normal -1.0 3.46785750983905e-019 1.08382290264556e-018
outer loop
vertex 0.0 63.8697855424712 -16.5
vertex 0.0 60.8697855424712 -19.5
vertex 0.0 60.8697855424712 -16.5
endloop
endfacet
facet normal -1.0 3.46785750983905e-019 1.08382290264556e-018
outer loop
vertex 0.0 60.8697855424712 -19.5
vertex 0.0 63.8697855424712 -16.5
vertex 0.0 66.9 -19.5
endloop
endfacet
facet normal -1.0 3.46785750983905e-019 1.08382290264556e-018
outer loop
vertex 0.0 66.9 -19.5
vertex 0.0 63.8697855424712 -16.5
vertex 0.0 66.9 0.0
endloop
endfacet
facet normal -1.0 3.46785750983905e-019 1.08382290264556e-018
outer loop
vertex 0.0 0.0 -19.5
vertex 0.0 3.0 -16.5
vertex -7.09128201814224e-017 6.0 -19.5
endloop
endfacet
facet normal -1.0 3.46785750983905e-019 1.08382290264556e-018
outer loop
vertex 0.0 3.0 -16.5
vertex 0.0 0.0 -19.5
vertex 0.0 3.0 -4.0
endloop
endfacet
facet normal -1.0 3.46785750983905e-019 1.08382290264556e-018
outer loop
vertex -7.09128201814224e-017 6.0 -19.5
vertex 0.0 3.0 -16.5
vertex -7.09128201814224e-017 6.0 -16.5
endloop
endfacet
facet normal -0.0 1.0 0.0
outer loop
vertex 0.0 66.9 0.0
vertex 122.3 66.9 -19.5
vertex 0.0 66.9 -19.5
endloop
endfacet
facet normal -0.0 1.0 0.0
outer loop
vertex 122.3 66.9 -19.5
vertex 0.0 66.9 0.0
vertex 122.3 66.9 0.0
endloop
endfacet
facet normal 1.0 0.0 0.0
outer loop
vertex 122.3 66.9 -19.5
vertex 122.3 0.0 0.0
vertex 122.3 0.0 -19.5
endloop
endfacet
facet normal 1.0 0.0 0.0
outer loop
vertex 122.3 0.0 0.0
vertex 122.3 66.9 -19.5
vertex 122.3 66.9 0.0
endloop
endfacet
facet normal -0.0 -1.0 -0.0
outer loop
vertex 122.3 0.0 0.0
vertex 0.0 0.0 -19.5
vertex 122.3 0.0 -19.5
endloop
endfacet
facet normal -0.0 -1.0 -0.0
outer loop
vertex 0.0 0.0 -19.5
vertex 122.3 0.0 0.0
vertex 0.0 0.0 0.0
endloop
endfacet
facet normal 0.0 0.0 -1.0
outer loop
vertex 0.0 63.8697855424712 -4.0
vertex 7.93629669484373 30.6352761804101 -4.0
vertex 0.0 3.0 -4.0
endloop
endfacet
facet normal 0.0 0.0 -1.0
outer loop
vertex 7.93629669484373 30.6352761804101 -4.0
vertex 0.0 63.8697855424712 -4.0
vertex 8.33589838486225 31.6 -4.0
endloop
endfacet
facet normal 0.0 0.0 -1.0
outer loop
vertex 8.33589838486225 31.6 -4.0
vertex 0.0 63.8697855424712 -4.0
vertex 8.97157287525381 32.4284271247462 -4.0
endloop
endfacet
facet normal 0.0 0.0 -1.0
outer loop
vertex 8.97157287525381 32.4284271247462 -4.0
vertex 0.0 63.8697855424712 -4.0
vertex 9.8 33.0641016151377 -4.0
endloop
endfacet
facet normal 0.0 0.0 -1.0
outer loop
vertex 9.8 33.0641016151377 -4.0
vertex 0.0 63.8697855424712 -4.0
vertex 10.7647238195899 33.4637033051563 -4.0
endloop
endfacet
facet normal 0.0 0.0 -1.0
outer loop
vertex 10.7647238195899 33.4637033051563 -4.0
vertex 0.0 63.8697855424712 -4.0
vertex 119.3 63.8697855424712 -4.0
endloop
endfacet
facet normal 0.0 0.0 -1.0
outer loop
vertex 0.0 3.0 -4.0
vertex 7.93629669484373 30.6352761804101 -4.0
vertex 7.8 29.6 -4.0
endloop
endfacet
facet normal 0.0 0.0 -1.0
outer loop
vertex 10.7647238195899 33.4637033051563 -4.0
vertex 119.3 63.8697855424712 -4.0
vertex 11.8 33.6 -4.0
endloop
endfacet
facet normal 0.0 0.0 -1.0
outer loop
vertex 11.8 33.6 -4.0
vertex 119.3 63.8697855424712 -4.0
vertex 12.8352761804101 33.4637033051563 -4.0
endloop
endfacet
facet normal 0.0 0.0 -1.0
outer loop
vertex 12.8352761804101 33.4637033051563 -4.0
vertex 119.3 63.8697855424712 -4.0
vertex 13.8 33.0641016151377 -4.0
endloop
endfacet
facet normal 0.0 0.0 -1.0
outer loop
vertex 13.8 33.0641016151377 -4.0
vertex 119.3 63.8697855424712 -4.0
vertex 14.6284271247462 32.4284271247462 -4.0
endloop
endfacet
facet normal 0.0 0.0 -1.0
outer loop
vertex 14.6284271247462 32.4284271247462 -4.0
vertex 119.3 63.8697855424712 -4.0
vertex 15.2641016151378 31.6 -4.0
endloop
endfacet
facet normal 0.0 0.0 -1.0
outer loop
vertex 15.2641016151378 31.6 -4.0
vertex 119.3 63.8697855424712 -4.0
vertex 15.6637033051563 30.6352761804101 -4.0
endloop
endfacet
facet normal 0.0 0.0 -1.0
outer loop
vertex 15.6637033051563 30.6352761804101 -4.0
vertex 119.3 63.8697855424712 -4.0
vertex 15.8 29.6 -4.0
endloop
endfacet
facet normal 0.0 0.0 -1.0
outer loop
vertex 0.0 3.0 -4.0
vertex 10.7647238195899 25.7362966948437 -4.0
vertex 119.3 3.0 -4.0
endloop
endfacet
facet normal 0.0 0.0 -1.0
outer loop
vertex 10.7647238195899 25.7362966948437 -4.0
vertex 0.0 3.0 -4.0
vertex 9.8 26.1358983848622 -4.0
endloop
endfacet
facet normal 0.0 0.0 -1.0
outer loop
vertex 9.8 26.1358983848622 -4.0
vertex 0.0 3.0 -4.0
vertex 8.97157287525381 26.7715728752538 -4.0
endloop
endfacet
facet normal 0.0 0.0 -1.0
outer loop
vertex 8.97157287525381 26.7715728752538 -4.0
vertex 0.0 3.0 -4.0
vertex 8.33589838486224 27.6 -4.0
endloop
endfacet
facet normal 0.0 0.0 -1.0
outer loop
vertex 8.33589838486224 27.6 -4.0
vertex 0.0 3.0 -4.0
vertex 7.93629669484373 28.5647238195899 -4.0
endloop
endfacet
facet normal 0.0 0.0 -1.0
outer loop
vertex 7.93629669484373 28.5647238195899 -4.0
vertex 0.0 3.0 -4.0
vertex 7.8 29.6 -4.0
endloop
endfacet
facet normal 0.0 0.0 -1.0
outer loop
vertex 119.3 3.0 -4.0
vertex 10.7647238195899 25.7362966948437 -4.0
vertex 11.8 25.6 -4.0
endloop
endfacet
facet normal 0.0 0.0 -1.0
outer loop
vertex 119.3 3.0 -4.0
vertex 11.8 25.6 -4.0
vertex 12.8352761804101 25.7362966948437 -4.0
endloop
endfacet
facet normal 0.0 0.0 -1.0
outer loop
vertex 119.3 3.0 -4.0
vertex 12.8352761804101 25.7362966948437 -4.0
vertex 13.8 26.1358983848622 -4.0
endloop
endfacet
facet normal 0.0 0.0 -1.0
outer loop
vertex 119.3 3.0 -4.0
vertex 13.8 26.1358983848622 -4.0
vertex 14.6284271247462 26.7715728752538 -4.0
endloop
endfacet
facet normal 0.0 0.0 -1.0
outer loop
vertex 119.3 3.0 -4.0
vertex 14.6284271247462 26.7715728752538 -4.0
vertex 15.2641016151378 27.6 -4.0
endloop
endfacet
facet normal 0.0 0.0 -1.0
outer loop
vertex 119.3 3.0 -4.0
vertex 15.2641016151378 27.6 -4.0
vertex 15.6637033051563 28.5647238195899 -4.0
endloop
endfacet
facet normal 0.0 0.0 -1.0
outer loop
vertex 119.3 3.0 -4.0
vertex 15.6637033051563 28.5647238195899 -4.0
vertex 15.8 29.6 -4.0
endloop
endfacet
facet normal 0.0 0.0 -1.0
outer loop
vertex 119.3 3.0 -4.0
vertex 15.8 29.6 -4.0
vertex 119.3 63.8697855424712 -4.0
endloop
endfacet
facet normal 0.0 0.0 -1.0
outer loop
vertex 122.3 66.9 -19.5
vertex 0.0 60.8697855424712 -19.5
vertex 0.0 66.9 -19.5
endloop
endfacet
facet normal 0.0 0.0 -1.0
outer loop
vertex 0.0 60.8697855424712 -19.5
vertex 122.3 66.9 -19.5
vertex 116.3 60.8697855424712 -19.5
endloop
endfacet
facet normal 0.0 0.0 -1.0
outer loop
vertex 116.3 60.8697855424712 -19.5
vertex 122.3 66.9 -19.5
vertex 116.3 6.0 -19.5
endloop
endfacet
facet normal 0.0 0.0 -1.0
outer loop
vertex 116.3 6.0 -19.5
vertex 0.0 0.0 -19.5
vertex -7.09128201814224e-017 6.0 -19.5
endloop
endfacet
facet normal 0.0 0.0 -1.0
outer loop
vertex 0.0 0.0 -19.5
vertex 116.3 6.0 -19.5
vertex 122.3 0.0 -19.5
endloop
endfacet
facet normal 0.0 0.0 -1.0
outer loop
vertex 122.3 0.0 -19.5
vertex 116.3 6.0 -19.5
vertex 122.3 66.9 -19.5
endloop
endfacet
facet normal 0.0 -1.0 0.0
outer loop
vertex 119.3 63.8697855424712 -4.0
vertex 0.0 63.8697855424712 -16.5
vertex 119.3 63.8697855424712 -16.5
endloop
endfacet
facet normal 0.0 -1.0 0.0
outer loop
vertex 0.0 63.8697855424712 -16.5
vertex 119.3 63.8697855424712 -4.0
vertex 0.0 63.8697855424712 -4.0
endloop
endfacet
facet normal -1.0 0.0 0.0
outer loop
vertex 119.3 63.8697855424712 -4.0
vertex 119.3 3.0 -16.5
vertex 119.3 3.0 -4.0
endloop
endfacet
facet normal -1.0 0.0 0.0
outer loop
vertex 119.3 3.0 -16.5
vertex 119.3 63.8697855424712 -4.0
vertex 119.3 6.0 -16.5
endloop
endfacet
facet normal -1.0 0.0 0.0
outer loop
vertex 119.3 6.0 -16.5
vertex 119.3 63.8697855424712 -4.0
vertex 119.3 60.8697855424712 -16.5
endloop
endfacet
facet normal -1.0 0.0 0.0
outer loop
vertex 119.3 60.8697855424712 -16.5
vertex 119.3 63.8697855424712 -4.0
vertex 119.3 63.8697855424712 -16.5
endloop
endfacet
facet normal -2.36376067271408e-017 1.0 -0.0
outer loop
vertex 0.0 3.0 -4.0
vertex 119.3 3.0 -16.5
vertex 0.0 3.0 -16.5
endloop
endfacet
facet normal -2.36376067271408e-017 1.0 -0.0
outer loop
vertex 119.3 3.0 -16.5
vertex 0.0 3.0 -4.0
vertex 119.3 3.0 -4.0
endloop
endfacet
facet normal -2.36376067271408e-017 1.0 0.0
outer loop
vertex -7.09128201814224e-017 6.0 -16.5
vertex 116.3 6.0 -19.5
vertex -7.09128201814224e-017 6.0 -19.5
endloop
endfacet
facet normal -2.36376067271408e-017 1.0 0.0
outer loop
vertex 116.3 6.0 -19.5
vertex -7.09128201814224e-017 6.0 -16.5
vertex 116.3 6.0 -16.5
endloop
endfacet
facet normal -0.0 0.0 1.0
outer loop
vertex 0.0 3.0 -16.5
vertex 116.3 6.0 -16.5
vertex -7.09128201814224e-017 6.0 -16.5
endloop
endfacet
facet normal -0.0 0.0 1.0
outer loop
vertex 116.3 6.0 -16.5
vertex 0.0 3.0 -16.5
vertex 119.3 3.0 -16.5
endloop
endfacet
facet normal -0.0 0.0 1.0
outer loop
vertex 116.3 6.0 -16.5
vertex 119.3 3.0 -16.5
vertex 119.3 6.0 -16.5
endloop
endfacet
facet normal 0.0 -1.0 0.0
outer loop
vertex 116.3 60.8697855424712 -16.5
vertex 0.0 60.8697855424712 -19.5
vertex 116.3 60.8697855424712 -19.5
endloop
endfacet
facet normal 0.0 -1.0 0.0
outer loop
vertex 0.0 60.8697855424712 -19.5
vertex 116.3 60.8697855424712 -16.5
vertex 0.0 60.8697855424712 -16.5
endloop
endfacet
facet normal 0.0 0.0 1.0
outer loop
vertex 116.3 60.8697855424712 -16.5
vertex 0.0 63.8697855424712 -16.5
vertex 0.0 60.8697855424712 -16.5
endloop
endfacet
facet normal 0.0 0.0 1.0
outer loop
vertex 0.0 63.8697855424712 -16.5
vertex 116.3 60.8697855424712 -16.5
vertex 119.3 63.8697855424712 -16.5
endloop
endfacet
facet normal 0.0 0.0 1.0
outer loop
vertex 119.3 63.8697855424712 -16.5
vertex 116.3 60.8697855424712 -16.5
vertex 119.3 60.8697855424712 -16.5
endloop
endfacet
facet normal -1.0 0.0 0.0
outer loop
vertex 116.3 60.8697855424712 -16.5
vertex 116.3 6.0 -19.5
vertex 116.3 6.0 -16.5
endloop
endfacet
facet normal -1.0 0.0 0.0
outer loop
vertex 116.3 6.0 -19.5
vertex 116.3 60.8697855424712 -16.5
vertex 116.3 60.8697855424712 -19.5
endloop
endfacet
facet normal 0.0 -0.0 1.0
outer loop
vertex 119.3 6.0 -16.5
vertex 116.3 60.8697855424712 -16.5
vertex 116.3 6.0 -16.5
endloop
endfacet
facet normal 0.0 -0.0 1.0
outer loop
vertex 116.3 60.8697855424712 -16.5
vertex 119.3 6.0 -16.5
vertex 119.3 60.8697855424712 -16.5
endloop
endfacet
facet normal 0.182741833238089 -0.682001806312818 0.708151790628842
outer loop
vertex 10.7647238195899 33.4637033051563 -4.0
vertex 11.8 37.6118492189887 -1.40998324127395e-015
vertex 9.72638083563596 37.3388520769551 -1.40998324127395e-015
endloop
endfacet
facet normal 9.99428589070342e-016 -0.706060225072311 0.708151790628843
outer loop
vertex 11.8 37.6118492189887 -1.40998324127395e-015
vertex 10.7647238195899 33.4637033051563 -4.0
vertex 11.8 33.6 -4.0
endloop
endfacet
facet normal 0.353030112536151 -0.611466091514383 0.708151790628843
outer loop
vertex 9.8 33.0641016151377 -4.0
vertex 9.72638083563596 37.3388520769551 -1.40998324127395e-015
vertex 7.79407539050564 36.5384649549348 -1.40998324127395e-015
endloop
endfacet
facet normal 0.182741833238089 -0.682001806312818 0.708151790628842
outer loop
vertex 9.72638083563596 37.3388520769551 -1.40998324127395e-015
vertex 9.8 33.0641016151377 -4.0
vertex 10.7647238195899 33.4637033051563 -4.0
endloop
endfacet
facet normal -0.0 -0.0 1.0
outer loop
vertex 0.0 0.0 0.0
vertex 3.78815078101128 29.6 -1.40998324127395e-015
vertex 0.0 66.9 0.0
endloop
endfacet
facet normal -0.0 -0.0 1.0
outer loop
vertex 3.78815078101128 29.6 -1.40998324127395e-015
vertex 0.0 0.0 0.0
vertex 4.0611479230449 27.526380835636 -1.40998324127395e-015
endloop
endfacet
facet normal -0.0 -0.0 1.0
outer loop
vertex 4.0611479230449 27.526380835636 -1.40998324127395e-015
vertex 0.0 0.0 0.0
vertex 4.86153504506527 25.5940753905056 -1.40998324127395e-015
endloop
endfacet
facet normal -0.0 -0.0 1.0
outer loop
vertex 4.86153504506527 25.5940753905056 -1.40998324127395e-015
vertex 0.0 0.0 0.0
vertex 6.13476708740893 23.9347670874089 -1.40998324127395e-015
endloop
endfacet
facet normal -0.0 -0.0 1.0
outer loop
vertex 6.13476708740893 23.9347670874089 -1.40998324127395e-015
vertex 0.0 0.0 0.0
vertex 7.79407539050563 22.6615350450652 -1.40998324127395e-015
endloop
endfacet
facet normal -0.0 -0.0 1.0
outer loop
vertex 7.79407539050563 22.6615350450652 -1.40998324127395e-015
vertex 0.0 0.0 0.0
vertex 27.85 8.22250092524068 -7.04991620636974e-016
endloop
endfacet
facet normal -0.0 -0.0 1.0
outer loop
vertex 27.85 8.22250092524068 -7.04991620636974e-016
vertex 0.0 0.0 0.0
vertex 28.7906057241002 7.83288927747263 -7.04991620636974e-016
endloop
endfacet
facet normal -0.0 -0.0 1.0
outer loop
vertex 28.7906057241002 7.83288927747263 -7.04991620636974e-016
vertex 0.0 0.0 0.0
vertex 29.8 7.69999999999999 -7.04991620636974e-016
endloop
endfacet
facet normal -0.0 -0.0 1.0
outer loop
vertex 29.8 7.69999999999999 -7.04991620636974e-016
vertex 0.0 0.0 0.0
vertex 122.3 0.0 0.0
endloop
endfacet
facet normal -0.0 -0.0 1.0
outer loop
vertex 7.79407539050563 22.6615350450652 -1.40998324127395e-015
vertex 27.85 8.22250092524068 -7.04991620636974e-016
vertex 9.72638083563596 21.8611479230449 -1.40998324127395e-015
endloop
endfacet
facet normal -0.0 -0.0 1.0
outer loop
vertex 9.72638083563596 21.8611479230449 -1.40998324127395e-015
vertex 27.85 8.22250092524068 -7.04991620636974e-016
vertex 27.0422835533725 8.84228355337246 -7.04991620636974e-016
endloop
endfacet
facet normal -0.0 -0.0 1.0
outer loop
vertex 9.72638083563596 21.8611479230449 -1.40998324127395e-015
vertex 27.0422835533725 8.84228355337246 -7.04991620636974e-016
vertex 11.8 21.5881507810113 -1.40998324127395e-015
endloop
endfacet
facet normal -0.0 -0.0 1.0
outer loop
vertex 11.8 21.5881507810113 -1.40998324127395e-015
vertex 27.0422835533725 8.84228355337246 -7.04991620636974e-016
vertex 13.873619164364 21.8611479230449 -1.40998324127395e-015
endloop
endfacet
facet normal -0.0 -0.0 1.0
outer loop
vertex 13.873619164364 21.8611479230449 -1.40998324127395e-015
vertex 27.0422835533725 8.84228355337246 -7.04991620636974e-016
vertex 15.8059246094944 22.6615350450652 -1.40998324127395e-015
endloop
endfacet
facet normal -0.0 -0.0 1.0
outer loop
vertex 15.8059246094944 22.6615350450652 -1.40998324127395e-015
vertex 27.0422835533725 8.84228355337246 -7.04991620636974e-016
vertex 26.4225009252407 9.64999999999999 -7.04991620636974e-016
endloop
endfacet
facet normal -0.0 -0.0 1.0
outer loop
vertex 15.8059246094944 22.6615350450652 -1.40998324127395e-015
vertex 26.4225009252407 9.64999999999999 -7.04991620636974e-016
vertex 17.465232912591 23.9347670874089 -1.40998324127395e-015
endloop
endfacet
facet normal -0.0 -0.0 1.0
outer loop
vertex 17.465232912591 23.9347670874089 -1.40998324127395e-015
vertex 26.4225009252407 9.64999999999999 -7.04991620636974e-016
vertex 18.7384649549347 25.5940753905056 -1.40998324127395e-015
endloop
endfacet
facet normal -0.0 -0.0 1.0
outer loop
vertex 18.7384649549347 25.5940753905056 -1.40998324127395e-015
vertex 26.4225009252407 9.64999999999999 -7.04991620636974e-016
vertex 26.0328892774726 10.5906057241002 -7.04991620636974e-016
endloop
endfacet
facet normal -0.0 -0.0 1.0
outer loop
vertex 18.7384649549347 25.5940753905056 -1.40998324127395e-015
vertex 26.0328892774726 10.5906057241002 -7.04991620636974e-016
vertex 19.5388520769551 27.526380835636 -1.40998324127395e-015
endloop
endfacet
facet normal -0.0 -0.0 1.0
outer loop
vertex 19.5388520769551 27.526380835636 -1.40998324127395e-015
vertex 26.0328892774726 10.5906057241002 -7.04991620636974e-016
vertex 19.8118492189887 29.6 -1.40998324127395e-015
endloop
endfacet
facet normal -0.0 -0.0 1.0
outer loop
vertex 19.8118492189887 29.6 -1.40998324127395e-015
vertex 26.0328892774726 10.5906057241002 -7.04991620636974e-016
vertex 25.9 11.6 -7.04991620636974e-016
endloop
endfacet
facet normal -0.0 -0.0 1.0
outer loop
vertex 19.8118492189887 29.6 -1.40998324127395e-015
vertex 25.9 11.6 -7.04991620636974e-016
vertex 25.9 47.6 -7.04991620636974e-016
endloop
endfacet
facet normal -0.0 -0.0 1.0
outer loop
vertex 29.8 7.69999999999999 -7.04991620636974e-016
vertex 122.3 0.0 0.0
vertex 30.8093942758998 7.83288927747263 -7.04991620636974e-016
endloop
endfacet
facet normal -0.0 -0.0 1.0
outer loop
vertex 30.8093942758998 7.83288927747263 -7.04991620636974e-016
vertex 122.3 0.0 0.0
vertex 31.75 8.22250092524068 -7.04991620636974e-016
endloop
endfacet
facet normal -0.0 -0.0 1.0
outer loop
vertex 31.75 8.22250092524068 -7.04991620636974e-016
vertex 122.3 0.0 0.0
vertex 32.5577164466275 8.84228355337246 -7.04991620636974e-016
endloop
endfacet
facet normal -0.0 -0.0 1.0
outer loop
vertex 32.5577164466275 8.84228355337246 -7.04991620636974e-016
vertex 122.3 0.0 0.0
vertex 33.1774990747593 9.65 -7.04991620636974e-016
endloop
endfacet
facet normal -0.0 -0.0 1.0
outer loop
vertex 33.1774990747593 9.65 -7.04991620636974e-016
vertex 122.3 0.0 0.0
vertex 33.5671107225274 10.5906057241002 -7.04991620636974e-016
endloop
endfacet
facet normal -0.0 -0.0 1.0
outer loop
vertex 33.5671107225274 10.5906057241002 -7.04991620636974e-016
vertex 122.3 0.0 0.0
vertex 33.7 11.6 -7.04991620636974e-016
endloop
endfacet
facet normal -0.0 -0.0 1.0
outer loop
vertex 33.7 11.6 -7.04991620636974e-016
vertex 122.3 0.0 0.0
vertex 33.7 47.6 -7.04991620636974e-016
endloop
endfacet
facet normal -0.0 -0.0 1.0
outer loop
vertex 0.0 66.9 0.0
vertex 28.7906057241002 51.3671107225274 -7.04991620636974e-016
vertex 122.3 66.9 0.0
endloop
endfacet
facet normal -0.0 -0.0 1.0
outer loop
vertex 28.7906057241002 51.3671107225274 -7.04991620636974e-016
vertex 0.0 66.9 0.0
vertex 27.85 50.9774990747593 -7.04991620636974e-016
endloop
endfacet
facet normal -0.0 -0.0 1.0
outer loop
vertex 27.85 50.9774990747593 -7.04991620636974e-016
vertex 0.0 66.9 0.0
vertex 7.79407539050564 36.5384649549348 -1.40998324127395e-015
endloop
endfacet
facet normal -0.0 -0.0 1.0
outer loop
vertex 7.79407539050564 36.5384649549348 -1.40998324127395e-015
vertex 0.0 66.9 0.0
vertex 6.13476708740893 35.2652329125911 -1.40998324127395e-015
endloop
endfacet
facet normal -0.0 -0.0 1.0
outer loop
vertex 6.13476708740893 35.2652329125911 -1.40998324127395e-015
vertex 0.0 66.9 0.0
vertex 4.86153504506527 33.6059246094944 -1.40998324127395e-015
endloop
endfacet
facet normal -0.0 -0.0 1.0
outer loop
vertex 4.86153504506527 33.6059246094944 -1.40998324127395e-015
vertex 0.0 66.9 0.0
vertex 4.0611479230449 31.673619164364 -1.40998324127395e-015
endloop
endfacet
facet normal -0.0 -0.0 1.0
outer loop
vertex 4.0611479230449 31.673619164364 -1.40998324127395e-015
vertex 0.0 66.9 0.0
vertex 3.78815078101128 29.6 -1.40998324127395e-015
endloop
endfacet
facet normal -0.0 -0.0 1.0
outer loop
vertex 27.85 50.9774990747593 -7.04991620636974e-016
vertex 7.79407539050564 36.5384649549348 -1.40998324127395e-015
vertex 9.72638083563596 37.3388520769551 -1.40998324127395e-015
endloop
endfacet
facet normal -0.0 -0.0 1.0
outer loop
vertex 27.85 50.9774990747593 -7.04991620636974e-016
vertex 9.72638083563596 37.3388520769551 -1.40998324127395e-015
vertex 27.0422835533724 50.3577164466275 -7.04991620636974e-016
endloop
endfacet
facet normal -0.0 -0.0 1.0
outer loop
vertex 27.0422835533724 50.3577164466275 -7.04991620636974e-016
vertex 9.72638083563596 37.3388520769551 -1.40998324127395e-015
vertex 11.8 37.6118492189887 -1.40998324127395e-015
endloop
endfacet
facet normal -0.0 -0.0 1.0
outer loop
vertex 27.0422835533724 50.3577164466275 -7.04991620636974e-016
vertex 11.8 37.6118492189887 -1.40998324127395e-015
vertex 13.8736191643641 37.3388520769551 -1.40998324127395e-015
endloop
endfacet
facet normal -0.0 -0.0 1.0
outer loop
vertex 27.0422835533724 50.3577164466275 -7.04991620636974e-016
vertex 13.8736191643641 37.3388520769551 -1.40998324127395e-015
vertex 15.8059246094944 36.5384649549348 -1.40998324127395e-015
endloop
endfacet
facet normal -0.0 -0.0 1.0
outer loop
vertex 27.0422835533724 50.3577164466275 -7.04991620636974e-016
vertex 15.8059246094944 36.5384649549348 -1.40998324127395e-015
vertex 26.4225009252407 49.55 -7.04991620636974e-016
endloop
endfacet
facet normal -0.0 -0.0 1.0
outer loop
vertex 26.4225009252407 49.55 -7.04991620636974e-016
vertex 15.8059246094944 36.5384649549348 -1.40998324127395e-015
vertex 17.465232912591 35.2652329125911 -1.40998324127395e-015
endloop
endfacet
facet normal -0.0 -0.0 1.0
outer loop
vertex 26.4225009252407 49.55 -7.04991620636974e-016
vertex 17.465232912591 35.2652329125911 -1.40998324127395e-015
vertex 18.7384649549347 33.6059246094944 -1.40998324127395e-015
endloop
endfacet
facet normal -0.0 -0.0 1.0
outer loop
vertex 26.4225009252407 49.55 -7.04991620636974e-016
vertex 18.7384649549347 33.6059246094944 -1.40998324127395e-015
vertex 26.0328892774726 48.6093942758998 -7.04991620636974e-016
endloop
endfacet
facet normal -0.0 -0.0 1.0
outer loop
vertex 26.0328892774726 48.6093942758998 -7.04991620636974e-016
vertex 18.7384649549347 33.6059246094944 -1.40998324127395e-015
vertex 19.5388520769551 31.673619164364 -1.40998324127395e-015
endloop
endfacet
facet normal -0.0 -0.0 1.0
outer loop
vertex 26.0328892774726 48.6093942758998 -7.04991620636974e-016
vertex 19.5388520769551 31.673619164364 -1.40998324127395e-015
vertex 19.8118492189887 29.6 -1.40998324127395e-015
endloop
endfacet
facet normal -0.0 -0.0 1.0
outer loop
vertex 26.0328892774726 48.6093942758998 -7.04991620636974e-016
vertex 19.8118492189887 29.6 -1.40998324127395e-015
vertex 25.9 47.6 -7.04991620636974e-016
endloop
endfacet
facet normal -0.0 -0.0 1.0
outer loop
vertex 122.3 66.9 0.0
vertex 28.7906057241002 51.3671107225274 -7.04991620636974e-016
vertex 29.8 51.5 -7.04991620636974e-016
endloop
endfacet
facet normal -0.0 -0.0 1.0
outer loop
vertex 122.3 66.9 0.0
vertex 29.8 51.5 -7.04991620636974e-016
vertex 30.8093942758998 51.3671107225274 -7.04991620636974e-016
endloop
endfacet
facet normal -0.0 -0.0 1.0
outer loop
vertex 122.3 66.9 0.0
vertex 30.8093942758998 51.3671107225274 -7.04991620636974e-016
vertex 31.75 50.9774990747593 -7.04991620636974e-016
endloop
endfacet
facet normal -0.0 -0.0 1.0
outer loop
vertex 122.3 66.9 0.0
vertex 31.75 50.9774990747593 -7.04991620636974e-016
vertex 32.5577164466275 50.3577164466275 -7.04991620636974e-016
endloop
endfacet
facet normal -0.0 -0.0 1.0
outer loop
vertex 122.3 66.9 0.0
vertex 32.5577164466275 50.3577164466275 -7.04991620636974e-016
vertex 33.1774990747593 49.55 -7.04991620636974e-016
endloop
endfacet
facet normal -0.0 -0.0 1.0
outer loop
vertex 122.3 66.9 0.0
vertex 33.1774990747593 49.55 -7.04991620636974e-016
vertex 33.5671107225274 48.6093942758998 -7.04991620636974e-016
endloop
endfacet
facet normal -0.0 -0.0 1.0
outer loop
vertex 122.3 66.9 0.0
vertex 33.5671107225274 48.6093942758998 -7.04991620636974e-016
vertex 33.7 47.6 -7.04991620636974e-016
endloop
endfacet
facet normal -0.0 -0.0 1.0
outer loop
vertex 122.3 66.9 0.0
vertex 33.7 47.6 -7.04991620636974e-016
vertex 122.3 0.0 0.0
endloop
endfacet
facet normal -0.0 -0.0 1.0
outer loop
vertex 25.9 11.6 -7.04991620636974e-016
vertex 26.0328892774726 46.5906057241002 -7.04991620636974e-016
vertex 25.9 47.6 -7.04991620636974e-016
endloop
endfacet
facet normal -0.0 -0.0 1.0
outer loop
vertex 26.0328892774726 46.5906057241002 -7.04991620636974e-016
vertex 25.9 11.6 -7.04991620636974e-016
vertex 26.0328892774726 12.6093942758998 -7.04991620636974e-016
endloop
endfacet
facet normal -0.0 -0.0 1.0
outer loop
vertex 26.0328892774726 46.5906057241002 -7.04991620636974e-016
vertex 26.0328892774726 12.6093942758998 -7.04991620636974e-016
vertex 26.4225009252407 45.65 -7.04991620636974e-016
endloop
endfacet
facet normal -0.0 -0.0 1.0
outer loop
vertex 26.4225009252407 45.65 -7.04991620636974e-016
vertex 26.0328892774726 12.6093942758998 -7.04991620636974e-016
vertex 26.4225009252407 13.55 -7.04991620636974e-016
endloop
endfacet
facet normal -0.0 -0.0 1.0
outer loop
vertex 26.4225009252407 45.65 -7.04991620636974e-016
vertex 26.4225009252407 13.55 -7.04991620636974e-016
vertex 27.0422835533725 14.3577164466275 -7.04991620636974e-016
endloop
endfacet
facet normal -0.0 -0.0 1.0
outer loop
vertex 26.4225009252407 45.65 -7.04991620636974e-016
vertex 27.0422835533725 14.3577164466275 -7.04991620636974e-016
vertex 27.0422835533725 44.8422835533725 -7.04991620636974e-016
endloop
endfacet
facet normal -0.0 -0.0 1.0
outer loop
vertex 27.0422835533725 44.8422835533725 -7.04991620636974e-016
vertex 27.0422835533725 14.3577164466275 -7.04991620636974e-016
vertex 27.85 14.9774990747593 -7.04991620636974e-016
endloop
endfacet
facet normal -0.0 -0.0 1.0
outer loop
vertex 27.0422835533725 44.8422835533725 -7.04991620636974e-016
vertex 27.85 14.9774990747593 -7.04991620636974e-016
vertex 27.85 44.2225009252407 -7.04991620636974e-016
endloop
endfacet
facet normal -0.0 -0.0 1.0
outer loop
vertex 27.85 44.2225009252407 -7.04991620636974e-016
vertex 27.85 14.9774990747593 -7.04991620636974e-016
vertex 28.7906057241002 15.3671107225274 -7.04991620636974e-016
endloop
endfacet
facet normal -0.0 -0.0 1.0
outer loop
vertex 27.85 44.2225009252407 -7.04991620636974e-016
vertex 28.7906057241002 15.3671107225274 -7.04991620636974e-016
vertex 28.7906057241002 43.8328892774726 -7.04991620636974e-016
endloop
endfacet
facet normal -0.0 -0.0 1.0
outer loop
vertex 28.7906057241002 43.8328892774726 -7.04991620636974e-016
vertex 28.7906057241002 15.3671107225274 -7.04991620636974e-016
vertex 29.8 15.5 -7.04991620636974e-016
endloop
endfacet
facet normal -0.0 -0.0 1.0
outer loop
vertex 28.7906057241002 43.8328892774726 -7.04991620636974e-016
vertex 29.8 15.5 -7.04991620636974e-016
vertex 29.8 43.7 -7.04991620636974e-016
endloop
endfacet
facet normal -0.0 -0.0 1.0
outer loop
vertex 29.8 43.7 -7.04991620636974e-016
vertex 29.8 15.5 -7.04991620636974e-016
vertex 30.8093942758998 15.3671107225274 -7.04991620636974e-016
endloop
endfacet
facet normal -0.0 -0.0 1.0
outer loop
vertex 29.8 43.7 -7.04991620636974e-016
vertex 30.8093942758998 15.3671107225274 -7.04991620636974e-016
vertex 30.8093942758998 43.8328892774726 -7.04991620636974e-016
endloop
endfacet
facet normal -0.0 -0.0 1.0
outer loop
vertex 30.8093942758998 43.8328892774726 -7.04991620636974e-016
vertex 30.8093942758998 15.3671107225274 -7.04991620636974e-016
vertex 31.75 14.9774990747593 -7.04991620636974e-016
endloop
endfacet
facet normal -0.0 -0.0 1.0
outer loop
vertex 30.8093942758998 43.8328892774726 -7.04991620636974e-016
vertex 31.75 14.9774990747593 -7.04991620636974e-016
vertex 31.75 44.2225009252407 -7.04991620636974e-016
endloop
endfacet
facet normal -0.0 -0.0 1.0
outer loop
vertex 31.75 44.2225009252407 -7.04991620636974e-016
vertex 31.75 14.9774990747593 -7.04991620636974e-016
vertex 32.5577164466275 14.3577164466275 -7.04991620636974e-016
endloop
endfacet
facet normal -0.0 -0.0 1.0
outer loop
vertex 31.75 44.2225009252407 -7.04991620636974e-016
vertex 32.5577164466275 14.3577164466275 -7.04991620636974e-016
vertex 32.5577164466275 44.8422835533725 -7.04991620636974e-016
endloop
endfacet
facet normal -0.0 -0.0 1.0
outer loop
vertex 32.5577164466275 44.8422835533725 -7.04991620636974e-016
vertex 32.5577164466275 14.3577164466275 -7.04991620636974e-016
vertex 33.1774990747593 13.55 -7.04991620636974e-016
endloop
endfacet
facet normal -0.0 -0.0 1.0
outer loop
vertex 32.5577164466275 44.8422835533725 -7.04991620636974e-016
vertex 33.1774990747593 13.55 -7.04991620636974e-016
vertex 33.1774990747593 45.65 -7.04991620636974e-016
endloop
endfacet
facet normal -0.0 -0.0 1.0
outer loop
vertex 33.1774990747593 45.65 -7.04991620636974e-016
vertex 33.1774990747593 13.55 -7.04991620636974e-016
vertex 33.5671107225274 12.6093942758998 -7.04991620636974e-016
endloop
endfacet
facet normal -0.0 -0.0 1.0
outer loop
vertex 33.1774990747593 45.65 -7.04991620636974e-016
vertex 33.5671107225274 12.6093942758998 -7.04991620636974e-016
vertex 33.5671107225274 46.5906057241002 -7.04991620636974e-016
endloop
endfacet
facet normal -0.0 -0.0 1.0
outer loop
vertex 33.5671107225274 46.5906057241002 -7.04991620636974e-016
vertex 33.5671107225274 12.6093942758998 -7.04991620636974e-016
vertex 33.7 11.6 -7.04991620636974e-016
endloop
endfacet
facet normal -0.0 -0.0 1.0
outer loop
vertex 33.5671107225274 46.5906057241002 -7.04991620636974e-016
vertex 33.7 11.6 -7.04991620636974e-016
vertex 33.7 47.6 -7.04991620636974e-016
endloop
endfacet
facet normal -0.499259973074734 -0.49925997307473 0.708151790628842
outer loop
vertex 14.6284271247462 32.4284271247462 -4.0
vertex 15.8059246094944 36.5384649549348 -1.40998324127395e-015
vertex 13.8 33.0641016151377 -4.0
endloop
endfacet
facet normal -0.353030112536155 -0.611466091514381 0.708151790628842
outer loop
vertex 15.8059246094944 36.5384649549348 -1.40998324127395e-015
vertex 14.6284271247462 32.4284271247462 -4.0
vertex 17.465232912591 35.2652329125911 -1.40998324127395e-015
endloop
endfacet
facet normal -0.682001806312822 -0.182741833238088 0.708151790628839
outer loop
vertex 15.6637033051563 30.6352761804101 -4.0
vertex 18.7384649549347 33.6059246094944 -1.40998324127395e-015
vertex 15.2641016151378 31.6 -4.0
endloop
endfacet
facet normal -0.611466091514385 -0.353030112536155 0.70815179062884
outer loop
vertex 18.7384649549347 33.6059246094944 -1.40998324127395e-015
vertex 15.6637033051563 30.6352761804101 -4.0
vertex 19.5388520769551 31.673619164364 -1.40998324127395e-015
endloop
endfacet
facet normal -0.353030112536155 -0.611466091514381 0.708151790628842
outer loop
vertex 13.8 33.0641016151377 -4.0
vertex 13.8736191643641 37.3388520769551 -1.40998324127395e-015
vertex 12.8352761804101 33.4637033051563 -4.0
endloop
endfacet
facet normal -0.18274183323809 -0.682001806312818 0.708151790628842
outer loop
vertex 13.8736191643641 37.3388520769551 -1.40998324127395e-015
vertex 13.8 33.0641016151377 -4.0
vertex 15.8059246094944 36.5384649549348 -1.40998324127395e-015
endloop
endfacet
facet normal -0.706060225072314 -8.04402151865864e-016 0.70815179062884
outer loop
vertex 15.8 29.6 -4.0
vertex 19.5388520769551 31.673619164364 -1.40998324127395e-015
vertex 15.6637033051563 30.6352761804101 -4.0
endloop
endfacet
facet normal -0.682001806312822 -0.182741833238087 0.708151790628839
outer loop
vertex 19.5388520769551 31.673619164364 -1.40998324127395e-015
vertex 15.8 29.6 -4.0
vertex 19.8118492189887 29.6 -1.40998324127395e-015
endloop
endfacet
facet normal -0.682001806312821 0.182741833238089 0.708151790628839
outer loop
vertex 19.5388520769551 27.526380835636 -1.40998324127395e-015
vertex 15.8 29.6 -4.0
vertex 15.6637033051563 28.5647238195899 -4.0
endloop
endfacet
facet normal -0.706060225072314 -8.04402151865864e-016 0.70815179062884
outer loop
vertex 15.8 29.6 -4.0
vertex 19.5388520769551 27.526380835636 -1.40998324127395e-015
vertex 19.8118492189887 29.6 -1.40998324127395e-015
endloop
endfacet
facet normal -0.611466091514382 0.353030112536161 0.708151790628839
outer loop
vertex 18.7384649549347 25.5940753905056 -1.40998324127395e-015
vertex 15.6637033051563 28.5647238195899 -4.0
vertex 15.2641016151378 27.6 -4.0
endloop
endfacet
facet normal -0.682001806312821 0.18274183323809 0.708151790628839
outer loop
vertex 15.6637033051563 28.5647238195899 -4.0
vertex 18.7384649549347 25.5940753905056 -1.40998324127395e-015
vertex 19.5388520769551 27.526380835636 -1.40998324127395e-015
endloop
endfacet
facet normal -0.611466091514385 -0.353030112536154 0.70815179062884
outer loop
vertex 15.2641016151378 31.6 -4.0
vertex 17.465232912591 35.2652329125911 -1.40998324127395e-015
vertex 14.6284271247462 32.4284271247462 -4.0
endloop
endfacet
facet normal -0.499259973074733 -0.499259973074731 0.708151790628842
outer loop
vertex 17.465232912591 35.2652329125911 -1.40998324127395e-015
vertex 15.2641016151378 31.6 -4.0
vertex 18.7384649549347 33.6059246094944 -1.40998324127395e-015
endloop
endfacet
facet normal 7.96022962783928e-016 -0.706060225072311 0.708151790628843
outer loop
vertex 11.8 33.6 -4.0
vertex 13.8736191643641 37.3388520769551 -1.40998324127395e-015
vertex 11.8 37.6118492189887 -1.40998324127395e-015
endloop
endfacet
facet normal -0.18274183323809 -0.682001806312818 0.708151790628842
outer loop
vertex 13.8736191643641 37.3388520769551 -1.40998324127395e-015
vertex 11.8 33.6 -4.0
vertex 12.8352761804101 33.4637033051563 -4.0
endloop
endfacet
facet normal -0.499259973074736 0.499259973074733 0.708151790628839
outer loop
vertex 17.465232912591 23.9347670874089 -1.40998324127395e-015
vertex 15.2641016151378 27.6 -4.0
vertex 14.6284271247462 26.7715728752538 -4.0
endloop
endfacet
facet normal -0.611466091514382 0.353030112536161 0.708151790628839
outer loop
vertex 15.2641016151378 27.6 -4.0
vertex 17.465232912591 23.9347670874089 -1.40998324127395e-015
vertex 18.7384649549347 25.5940753905056 -1.40998324127395e-015
endloop
endfacet
facet normal 5.46857152510183e-016 0.706060225072313 0.708151790628842
outer loop
vertex 11.8 21.5881507810113 -1.40998324127395e-015
vertex 10.7647238195899 25.7362966948437 -4.0
vertex 9.72638083563596 21.8611479230449 -1.40998324127395e-015
endloop
endfacet
facet normal 0.182741833238086 0.682001806312819 0.708151790628842
outer loop
vertex 10.7647238195899 25.7362966948437 -4.0
vertex 11.8 21.5881507810113 -1.40998324127395e-015
vertex 11.8 25.6 -4.0
endloop
endfacet
facet normal 0.706060225072314 -1.08929458065169e-015 0.708151790628841
outer loop
vertex 7.8 29.6 -4.0
vertex 4.0611479230449 31.673619164364 -1.40998324127395e-015
vertex 3.78815078101128 29.6 -1.40998324127395e-015
endloop
endfacet
facet normal 0.682001806312822 -0.182741833238087 0.708151790628839
outer loop
vertex 4.0611479230449 31.673619164364 -1.40998324127395e-015
vertex 7.8 29.6 -4.0
vertex 7.93629669484373 30.6352761804101 -4.0
endloop
endfacet
facet normal 0.682001806312821 -0.182741833238088 0.708151790628839
outer loop
vertex 7.93629669484373 30.6352761804101 -4.0
vertex 4.86153504506527 33.6059246094944 -1.40998324127395e-015
vertex 4.0611479230449 31.673619164364 -1.40998324127395e-015
endloop
endfacet
facet normal 0.611466091514386 -0.353030112536151 0.70815179062884
outer loop
vertex 4.86153504506527 33.6059246094944 -1.40998324127395e-015
vertex 7.93629669484373 30.6352761804101 -4.0
vertex 8.33589838486225 31.6 -4.0
endloop
endfacet
facet normal 0.499259973074736 0.499259973074731 0.708151790628841
outer loop
vertex 6.13476708740893 23.9347670874089 -1.40998324127395e-015
vertex 8.33589838486224 27.6 -4.0
vertex 4.86153504506527 25.5940753905056 -1.40998324127395e-015
endloop
endfacet
facet normal 0.611466091514384 0.353030112536154 0.70815179062884
outer loop
vertex 8.33589838486224 27.6 -4.0
vertex 6.13476708740893 23.9347670874089 -1.40998324127395e-015
vertex 8.97157287525381 26.7715728752538 -4.0
endloop
endfacet
facet normal 0.353030112536158 0.61146609151438 0.708151790628842
outer loop
vertex 7.79407539050563 22.6615350450652 -1.40998324127395e-015
vertex 8.97157287525381 26.7715728752538 -4.0
vertex 6.13476708740893 23.9347670874089 -1.40998324127395e-015
endloop
endfacet
facet normal 0.499259973074736 0.499259973074731 0.708151790628841
outer loop
vertex 8.97157287525381 26.7715728752538 -4.0
vertex 7.79407539050563 22.6615350450652 -1.40998324127395e-015
vertex 9.8 26.1358983848622 -4.0
endloop
endfacet
facet normal 0.182741833238086 0.682001806312819 0.708151790628842
outer loop
vertex 9.72638083563596 21.8611479230449 -1.40998324127395e-015
vertex 9.8 26.1358983848622 -4.0
vertex 7.79407539050563 22.6615350450652 -1.40998324127395e-015
endloop
endfacet
facet normal 0.353030112536159 0.61146609151438 0.708151790628842
outer loop
vertex 9.8 26.1358983848622 -4.0
vertex 9.72638083563596 21.8611479230449 -1.40998324127395e-015
vertex 10.7647238195899 25.7362966948437 -4.0
endloop
endfacet
facet normal -0.182741833238087 0.682001806312819 0.708151790628842
outer loop
vertex 13.873619164364 21.8611479230449 -1.40998324127395e-015
vertex 11.8 25.6 -4.0
vertex 11.8 21.5881507810113 -1.40998324127395e-015
endloop
endfacet
facet normal 3.10029996031635e-016 0.706060225072313 0.708151790628842
outer loop
vertex 11.8 25.6 -4.0
vertex 13.873619164364 21.8611479230449 -1.40998324127395e-015
vertex 12.8352761804101 25.7362966948437 -4.0
endloop
endfacet
facet normal -0.182741833238087 0.682001806312819 0.708151790628842
outer loop
vertex 13.873619164364 21.8611479230449 -1.40998324127395e-015
vertex 13.8 26.1358983848622 -4.0
vertex 12.8352761804101 25.7362966948437 -4.0
endloop
endfacet
facet normal -0.353030112536162 0.611466091514379 0.708151790628841
outer loop
vertex 13.8 26.1358983848622 -4.0
vertex 13.873619164364 21.8611479230449 -1.40998324127395e-015
vertex 15.8059246094944 22.6615350450652 -1.40998324127395e-015
endloop
endfacet
facet normal 0.611466091514384 0.353030112536155 0.70815179062884
outer loop
vertex 4.86153504506527 25.5940753905056 -1.40998324127395e-015
vertex 7.93629669484373 28.5647238195899 -4.0
vertex 4.0611479230449 27.526380835636 -1.40998324127395e-015
endloop
endfacet
facet normal 0.682001806312822 0.182741833238087 0.70815179062884
outer loop
vertex 7.93629669484373 28.5647238195899 -4.0
vertex 4.86153504506527 25.5940753905056 -1.40998324127395e-015
vertex 8.33589838486224 27.6 -4.0
endloop
endfacet
facet normal -0.353030112536161 0.611466091514379 0.708151790628841
outer loop
vertex 15.8059246094944 22.6615350450652 -1.40998324127395e-015
vertex 14.6284271247462 26.7715728752538 -4.0
vertex 13.8 26.1358983848622 -4.0
endloop
endfacet
facet normal -0.499259973074737 0.499259973074733 0.708151790628839
outer loop
vertex 14.6284271247462 26.7715728752538 -4.0
vertex 15.8059246094944 22.6615350450652 -1.40998324127395e-015
vertex 17.465232912591 23.9347670874089 -1.40998324127395e-015
endloop
endfacet
facet normal 0.682001806312822 0.182741833238086 0.70815179062884
outer loop
vertex 4.0611479230449 27.526380835636 -1.40998324127395e-015
vertex 7.8 29.6 -4.0
vertex 3.78815078101128 29.6 -1.40998324127395e-015
endloop
endfacet
facet normal 0.706060225072314 -1.08929458065169e-015 0.708151790628841
outer loop
vertex 7.8 29.6 -4.0
vertex 4.0611479230449 27.526380835636 -1.40998324127395e-015
vertex 7.93629669484373 28.5647238195899 -4.0
endloop
endfacet
facet normal 0.611466091514386 -0.35303011253615 0.70815179062884
outer loop
vertex 8.33589838486225 31.6 -4.0
vertex 6.13476708740893 35.2652329125911 -1.40998324127395e-015
vertex 4.86153504506527 33.6059246094944 -1.40998324127395e-015
endloop
endfacet
facet normal 0.499259973074732 -0.49925997307473 0.708151790628843
outer loop
vertex 6.13476708740893 35.2652329125911 -1.40998324127395e-015
vertex 8.33589838486225 31.6 -4.0
vertex 8.97157287525381 32.4284271247462 -4.0
endloop
endfacet
facet normal 0.499259973074733 -0.49925997307473 0.708151790628843
outer loop
vertex 8.97157287525381 32.4284271247462 -4.0
vertex 7.79407539050564 36.5384649549348 -1.40998324127395e-015
vertex 6.13476708740893 35.2652329125911 -1.40998324127395e-015
endloop
endfacet
facet normal 0.353030112536151 -0.611466091514383 0.708151790628843
outer loop
vertex 7.79407539050564 36.5384649549348 -1.40998324127395e-015
vertex 8.97157287525381 32.4284271247462 -4.0
vertex 9.8 33.0641016151377 -4.0
endloop
endfacet
facet normal 0.0 0.0 1.0
outer loop
vertex 26.0328892774726 10.5906057241002 5.0
vertex 26.0328892774726 12.6093942758998 5.0
vertex 25.9 11.6 5.0
endloop
endfacet
facet normal 0.0 0.0 1.0
outer loop
vertex 26.0328892774726 12.6093942758998 5.0
vertex 26.0328892774726 10.5906057241002 5.0
vertex 26.4225009252407 9.64999999999999 5.0
endloop
endfacet
facet normal 0.0 0.0 1.0
outer loop
vertex 26.0328892774726 12.6093942758998 5.0
vertex 26.4225009252407 9.64999999999999 5.0
vertex 26.4225009252407 13.55 5.0
endloop
endfacet
facet normal 0.0 0.0 1.0
outer loop
vertex 26.4225009252407 13.55 5.0
vertex 26.4225009252407 9.64999999999999 5.0
vertex 27.0422835533725 8.84228355337246 5.0
endloop
endfacet
facet normal 0.0 0.0 1.0
outer loop
vertex 26.4225009252407 13.55 5.0
vertex 27.0422835533725 8.84228355337246 5.0
vertex 27.0422835533725 14.3577164466275 5.0
endloop
endfacet
facet normal 0.0 0.0 1.0
outer loop
vertex 27.0422835533725 14.3577164466275 5.0
vertex 27.0422835533725 8.84228355337246 5.0
vertex 27.85 8.22250092524068 5.0
endloop
endfacet
facet normal 0.0 0.0 1.0
outer loop
vertex 27.0422835533725 14.3577164466275 5.0
vertex 27.85 8.22250092524068 5.0
vertex 27.85 14.9774990747593 5.0
endloop
endfacet
facet normal 0.0 0.0 1.0
outer loop
vertex 27.85 14.9774990747593 5.0
vertex 27.85 8.22250092524068 5.0
vertex 28.7906057241002 15.3671107225274 5.0
endloop
endfacet
facet normal 0.0 0.0 1.0
outer loop
vertex 28.7906057241002 15.3671107225274 5.0
vertex 27.85 8.22250092524068 5.0
vertex 28.7906057241002 7.83288927747263 5.0
endloop
endfacet
facet normal 0.0 0.0 1.0
outer loop
vertex 28.7906057241002 15.3671107225274 5.0
vertex 28.7906057241002 7.83288927747263 5.0
vertex 29.8 7.69999999999999 5.0
endloop
endfacet
facet normal 0.0 0.0 1.0
outer loop
vertex 28.7906057241002 15.3671107225274 5.0
vertex 29.8 7.69999999999999 5.0
vertex 29.8 15.5 5.0
endloop
endfacet
facet normal 0.0 0.0 1.0
outer loop
vertex 29.8 15.5 5.0
vertex 29.8 7.69999999999999 5.0
vertex 30.8093942758998 7.83288927747263 5.0
endloop
endfacet
facet normal 0.0 0.0 1.0
outer loop
vertex 29.8 15.5 5.0
vertex 30.8093942758998 7.83288927747263 5.0
vertex 30.8093942758998 15.3671107225274 5.0
endloop
endfacet
facet normal 0.0 0.0 1.0
outer loop
vertex 30.8093942758998 15.3671107225274 5.0
vertex 30.8093942758998 7.83288927747263 5.0
vertex 31.75 8.22250092524068 5.0
endloop
endfacet
facet normal 0.0 0.0 1.0
outer loop
vertex 30.8093942758998 15.3671107225274 5.0
vertex 31.75 8.22250092524068 5.0
vertex 31.75 14.9774990747593 5.0
endloop
endfacet
facet normal 0.0 0.0 1.0
outer loop
vertex 31.75 14.9774990747593 5.0
vertex 31.75 8.22250092524068 5.0
vertex 32.5577164466275 8.84228355337246 5.0
endloop
endfacet
facet normal 0.0 0.0 1.0
outer loop
vertex 31.75 14.9774990747593 5.0
vertex 32.5577164466275 8.84228355337246 5.0
vertex 32.5577164466275 14.3577164466275 5.0
endloop
endfacet
facet normal 0.0 0.0 1.0
outer loop
vertex 32.5577164466275 14.3577164466275 5.0
vertex 32.5577164466275 8.84228355337246 5.0
vertex 33.1774990747593 9.65 5.0
endloop
endfacet
facet normal 0.0 0.0 1.0
outer loop
vertex 32.5577164466275 14.3577164466275 5.0
vertex 33.1774990747593 9.65 5.0
vertex 33.1774990747593 13.55 5.0
endloop
endfacet
facet normal 0.0 0.0 1.0
outer loop
vertex 33.1774990747593 13.55 5.0
vertex 33.1774990747593 9.65 5.0
vertex 33.5671107225274 10.5906057241002 5.0
endloop
endfacet
facet normal 0.0 0.0 1.0
outer loop
vertex 33.1774990747593 13.55 5.0
vertex 33.5671107225274 10.5906057241002 5.0
vertex 33.5671107225274 12.6093942758998 5.0
endloop
endfacet
facet normal 0.0 0.0 1.0
outer loop
vertex 33.5671107225274 12.6093942758998 5.0
vertex 33.5671107225274 10.5906057241002 5.0
vertex 33.7 11.6 5.0
endloop
endfacet
facet normal 0.707106781186548 -0.707106781186547 0.0
outer loop
vertex 32.5577164466275 8.84228355337246 5.0
vertex 31.75 8.22250092524068 -7.04991620636974e-016
vertex 32.5577164466275 8.84228355337246 -7.04991620636974e-016
endloop
endfacet
facet normal 0.5 -0.866025403784439 0.0
outer loop
vertex 31.75 8.22250092524068 -7.04991620636974e-016
vertex 32.5577164466275 8.84228355337246 5.0
vertex 31.75 8.22250092524068 5.0
endloop
endfacet
facet normal 0.866025403784439 -0.5 0.0
outer loop
vertex 33.1774990747593 9.65 -7.04991620636974e-016
vertex 32.5577164466275 8.84228355337246 5.0
vertex 32.5577164466275 8.84228355337246 -7.04991620636974e-016
endloop
endfacet
facet normal 0.707106781186548 -0.707106781186547 0.0
outer loop
vertex 32.5577164466275 8.84228355337246 5.0
vertex 33.1774990747593 9.65 -7.04991620636974e-016
vertex 33.1774990747593 9.65 5.0
endloop
endfacet
facet normal 0.965925826289068 -0.25881904510252 0.0
outer loop
vertex 33.5671107225274 10.5906057241002 -7.04991620636974e-016
vertex 33.1774990747593 9.65 5.0
vertex 33.1774990747593 9.65 -7.04991620636974e-016
endloop
endfacet
facet normal 0.866025403784439 -0.5 0.0
outer loop
vertex 33.1774990747593 9.65 5.0
vertex 33.5671107225274 10.5906057241002 -7.04991620636974e-016
vertex 33.5671107225274 10.5906057241002 5.0
endloop
endfacet
facet normal 1.0 -8.01999890608221e-017 0.0
outer loop
vertex 33.7 11.6 -7.04991620636974e-016
vertex 33.5671107225274 10.5906057241002 5.0
vertex 33.5671107225274 10.5906057241002 -7.04991620636974e-016
endloop
endfacet
facet normal 0.965925826289068 -0.25881904510252 0.0
outer loop
vertex 33.5671107225274 10.5906057241002 5.0
vertex 33.7 11.6 -7.04991620636974e-016
vertex 33.7 11.6 5.0
endloop
endfacet
facet normal 0.965925826289069 0.25881904510252 0.0
outer loop
vertex 33.5671107225274 12.6093942758998 -7.04991620636974e-016
vertex 33.7 11.6 5.0
vertex 33.7 11.6 -7.04991620636974e-016
endloop
endfacet
facet normal 1.0 -8.01999890608221e-017 0.0
outer loop
vertex 33.7 11.6 5.0
vertex 33.5671107225274 12.6093942758998 -7.04991620636974e-016
vertex 33.5671107225274 12.6093942758998 5.0
endloop
endfacet
facet normal 0.866025403784438 0.5 0.0
outer loop
vertex 33.1774990747593 13.55 -7.04991620636974e-016
vertex 33.5671107225274 12.6093942758998 5.0
vertex 33.5671107225274 12.6093942758998 -7.04991620636974e-016
endloop
endfacet
facet normal 0.965925826289069 0.25881904510252 0.0
outer loop
vertex 33.5671107225274 12.6093942758998 5.0
vertex 33.1774990747593 13.55 -7.04991620636974e-016
vertex 33.1774990747593 13.55 5.0
endloop
endfacet
facet normal 0.707106781186548 0.707106781186547 0.0
outer loop
vertex 32.5577164466275 14.3577164466275 -7.04991620636974e-016
vertex 33.1774990747593 13.55 5.0
vertex 33.1774990747593 13.55 -7.04991620636974e-016
endloop
endfacet
facet normal 0.866025403784438 0.5 0.0
outer loop
vertex 33.1774990747593 13.55 5.0
vertex 32.5577164466275 14.3577164466275 -7.04991620636974e-016
vertex 32.5577164466275 14.3577164466275 5.0
endloop
endfacet
facet normal 0.500000000000001 0.866025403784438 0.0
outer loop
vertex 31.75 14.9774990747593 5.0
vertex 32.5577164466275 14.3577164466275 -7.04991620636974e-016
vertex 31.75 14.9774990747593 -7.04991620636974e-016
endloop
endfacet
facet normal 0.707106781186548 0.707106781186547 0.0
outer loop
vertex 32.5577164466275 14.3577164466275 -7.04991620636974e-016
vertex 31.75 14.9774990747593 5.0
vertex 32.5577164466275 14.3577164466275 5.0
endloop
endfacet
facet normal 0.25881904510252 0.965925826289069 0.0
outer loop
vertex 30.8093942758998 15.3671107225274 5.0
vertex 31.75 14.9774990747593 -7.04991620636974e-016
vertex 30.8093942758998 15.3671107225274 -7.04991620636974e-016
endloop
endfacet
facet normal 0.500000000000001 0.866025403784438 0.0
outer loop
vertex 31.75 14.9774990747593 -7.04991620636974e-016
vertex 30.8093942758998 15.3671107225274 5.0
vertex 31.75 14.9774990747593 5.0
endloop
endfacet
facet normal -1.37231092392962e-015 1.0 0.0
outer loop
vertex 29.8 15.5 5.0
vertex 30.8093942758998 15.3671107225274 -7.04991620636974e-016
vertex 29.8 15.5 -7.04991620636974e-016
endloop
endfacet
facet normal 0.25881904510252 0.965925826289069 0.0
outer loop
vertex 30.8093942758998 15.3671107225274 -7.04991620636974e-016
vertex 29.8 15.5 5.0
vertex 30.8093942758998 15.3671107225274 5.0
endloop
endfacet
facet normal -0.258819045102521 0.965925826289068 0.0
outer loop
vertex 28.7906057241002 15.3671107225274 5.0
vertex 29.8 15.5 -7.04991620636974e-016
vertex 28.7906057241002 15.3671107225274 -7.04991620636974e-016
endloop
endfacet
facet normal -1.37231092392962e-015 1.0 0.0
outer loop
vertex 29.8 15.5 -7.04991620636974e-016
vertex 28.7906057241002 15.3671107225274 5.0
vertex 29.8 15.5 5.0
endloop
endfacet
facet normal -0.5 0.866025403784439 0.0
outer loop
vertex 27.85 14.9774990747593 5.0
vertex 28.7906057241002 15.3671107225274 -7.04991620636974e-016
vertex 27.85 14.9774990747593 -7.04991620636974e-016
endloop
endfacet
facet normal -0.258819045102521 0.965925826289068 0.0
outer loop
vertex 28.7906057241002 15.3671107225274 -7.04991620636974e-016
vertex 27.85 14.9774990747593 5.0
vertex 28.7906057241002 15.3671107225274 5.0
endloop
endfacet
facet normal -0.707106781186548 0.707106781186547 0.0
outer loop
vertex 27.0422835533725 14.3577164466275 5.0
vertex 27.85 14.9774990747593 -7.04991620636974e-016
vertex 27.0422835533725 14.3577164466275 -7.04991620636974e-016
endloop
endfacet
facet normal -0.5 0.866025403784439 0.0
outer loop
vertex 27.85 14.9774990747593 -7.04991620636974e-016
vertex 27.0422835533725 14.3577164466275 5.0
vertex 27.85 14.9774990747593 5.0
endloop
endfacet
facet normal -0.707106781186548 0.707106781186547 0.0
outer loop
vertex 27.0422835533725 14.3577164466275 5.0
vertex 26.4225009252407 13.55 -7.04991620636974e-016
vertex 26.4225009252407 13.55 5.0
endloop
endfacet
facet normal -0.866025403784439 0.5 0.0
outer loop
vertex 26.4225009252407 13.55 -7.04991620636974e-016
vertex 27.0422835533725 14.3577164466275 5.0
vertex 27.0422835533725 14.3577164466275 -7.04991620636974e-016
endloop
endfacet
facet normal -0.866025403784439 0.5 0.0
outer loop
vertex 26.4225009252407 13.55 5.0
vertex 26.0328892774726 12.6093942758998 -7.04991620636974e-016
vertex 26.0328892774726 12.6093942758998 5.0
endloop
endfacet
facet normal -0.965925826289068 0.25881904510252 0.0
outer loop
vertex 26.0328892774726 12.6093942758998 -7.04991620636974e-016
vertex 26.4225009252407 13.55 5.0
vertex 26.4225009252407 13.55 -7.04991620636974e-016
endloop
endfacet
facet normal -0.965925826289068 0.25881904510252 0.0
outer loop
vertex 26.0328892774726 12.6093942758998 5.0
vertex 25.9 11.6 -7.04991620636974e-016
vertex 25.9 11.6 5.0
endloop
endfacet
facet normal -1.0 8.01999890608221e-017 0.0
outer loop
vertex 25.9 11.6 -7.04991620636974e-016
vertex 26.0328892774726 12.6093942758998 5.0
vertex 26.0328892774726 12.6093942758998 -7.04991620636974e-016
endloop
endfacet
facet normal -1.0 8.01999890608221e-017 0.0
outer loop
vertex 25.9 11.6 5.0
vertex 26.0328892774726 10.5906057241002 -7.04991620636974e-016
vertex 26.0328892774726 10.5906057241002 5.0
endloop
endfacet
facet normal -0.965925826289069 -0.25881904510252 0.0
outer loop
vertex 26.0328892774726 10.5906057241002 -7.04991620636974e-016
vertex 25.9 11.6 5.0
vertex 25.9 11.6 -7.04991620636974e-016
endloop
endfacet
facet normal -0.965925826289069 -0.25881904510252 0.0
outer loop
vertex 26.0328892774726 10.5906057241002 5.0
vertex 26.4225009252407 9.64999999999999 -7.04991620636974e-016
vertex 26.4225009252407 9.64999999999999 5.0
endloop
endfacet
facet normal -0.866025403784438 -0.5 0.0
outer loop
vertex 26.4225009252407 9.64999999999999 -7.04991620636974e-016
vertex 26.0328892774726 10.5906057241002 5.0
vertex 26.0328892774726 10.5906057241002 -7.04991620636974e-016
endloop
endfacet
facet normal -0.866025403784438 -0.5 0.0
outer loop
vertex 26.4225009252407 9.64999999999999 5.0
vertex 27.0422835533725 8.84228355337246 -7.04991620636974e-016
vertex 27.0422835533725 8.84228355337246 5.0
endloop
endfacet
facet normal -0.707106781186546 -0.707106781186549 0.0
outer loop
vertex 27.0422835533725 8.84228355337246 -7.04991620636974e-016
vertex 26.4225009252407 9.64999999999999 5.0
vertex 26.4225009252407 9.64999999999999 -7.04991620636974e-016
endloop
endfacet
facet normal -0.5 -0.866025403784439 0.0
outer loop
vertex 27.85 8.22250092524068 5.0
vertex 27.0422835533725 8.84228355337246 -7.04991620636974e-016
vertex 27.85 8.22250092524068 -7.04991620636974e-016
endloop
endfacet
facet normal -0.707106781186546 -0.707106781186549 0.0
outer loop
vertex 27.0422835533725 8.84228355337246 -7.04991620636974e-016
vertex 27.85 8.22250092524068 5.0
vertex 27.0422835533725 8.84228355337246 5.0
endloop
endfacet
facet normal -0.258819045102521 -0.965925826289068 0.0
outer loop
vertex 28.7906057241002 7.83288927747263 5.0
vertex 27.85 8.22250092524068 -7.04991620636974e-016
vertex 28.7906057241002 7.83288927747263 -7.04991620636974e-016
endloop
endfacet
facet normal -0.5 -0.866025403784439 0.0
outer loop
vertex 27.85 8.22250092524068 -7.04991620636974e-016
vertex 28.7906057241002 7.83288927747263 5.0
vertex 27.85 8.22250092524068 5.0
endloop
endfacet
facet normal 1.37231092392962e-015 -1.0 0.0
outer loop
vertex 29.8 7.69999999999999 5.0
vertex 28.7906057241002 7.83288927747263 -7.04991620636974e-016
vertex 29.8 7.69999999999999 -7.04991620636974e-016
endloop
endfacet
facet normal -0.258819045102521 -0.965925826289068 0.0
outer loop
vertex 28.7906057241002 7.83288927747263 -7.04991620636974e-016
vertex 29.8 7.69999999999999 5.0
vertex 28.7906057241002 7.83288927747263 5.0
endloop
endfacet
facet normal 0.258819045102521 -0.965925826289068 0.0
outer loop
vertex 30.8093942758998 7.83288927747263 5.0
vertex 29.8 7.69999999999999 -7.04991620636974e-016
vertex 30.8093942758998 7.83288927747263 -7.04991620636974e-016
endloop
endfacet
facet normal 1.37231092392962e-015 -1.0 0.0
outer loop
vertex 29.8 7.69999999999999 -7.04991620636974e-016
vertex 30.8093942758998 7.83288927747263 5.0
vertex 29.8 7.69999999999999 5.0
endloop
endfacet
facet normal 0.5 -0.866025403784439 0.0
outer loop
vertex 31.75 8.22250092524068 5.0
vertex 30.8093942758998 7.83288927747263 -7.04991620636974e-016
vertex 31.75 8.22250092524068 -7.04991620636974e-016
endloop
endfacet
facet normal 0.258819045102521 -0.965925826289068 0.0
outer loop
vertex 30.8093942758998 7.83288927747263 -7.04991620636974e-016
vertex 31.75 8.22250092524068 5.0
vertex 30.8093942758998 7.83288927747263 5.0
endloop
endfacet
facet normal 0.0 0.0 1.0
outer loop
vertex 26.0328892774726 46.5906057241002 5.0
vertex 26.0328892774726 48.6093942758998 5.0
vertex 25.9 47.6 5.0
endloop
endfacet
facet normal 0.0 0.0 1.0
outer loop
vertex 26.0328892774726 48.6093942758998 5.0
vertex 26.0328892774726 46.5906057241002 5.0
vertex 26.4225009252407 45.65 5.0
endloop
endfacet
facet normal 0.0 0.0 1.0
outer loop
vertex 26.0328892774726 48.6093942758998 5.0
vertex 26.4225009252407 45.65 5.0
vertex 26.4225009252407 49.55 5.0
endloop
endfacet
facet normal 0.0 0.0 1.0
outer loop
vertex 26.4225009252407 49.55 5.0
vertex 26.4225009252407 45.65 5.0
vertex 27.0422835533724 50.3577164466275 5.0
endloop
endfacet
facet normal 0.0 0.0 1.0
outer loop
vertex 27.0422835533724 50.3577164466275 5.0
vertex 26.4225009252407 45.65 5.0
vertex 27.0422835533725 44.8422835533725 5.0
endloop
endfacet
facet normal 0.0 0.0 1.0
outer loop
vertex 27.0422835533724 50.3577164466275 5.0
vertex 27.0422835533725 44.8422835533725 5.0
vertex 27.85 50.9774990747593 5.0
endloop
endfacet
facet normal 0.0 0.0 1.0
outer loop
vertex 27.85 50.9774990747593 5.0
vertex 27.0422835533725 44.8422835533725 5.0
vertex 27.85 44.2225009252407 5.0
endloop
endfacet
facet normal 0.0 0.0 1.0
outer loop
vertex 27.85 50.9774990747593 5.0
vertex 27.85 44.2225009252407 5.0
vertex 28.7906057241002 43.8328892774726 5.0
endloop
endfacet
facet normal 0.0 0.0 1.0
outer loop
vertex 27.85 50.9774990747593 5.0
vertex 28.7906057241002 43.8328892774726 5.0
vertex 28.7906057241002 51.3671107225274 5.0
endloop
endfacet
facet normal 0.0 0.0 1.0
outer loop
vertex 28.7906057241002 51.3671107225274 5.0
vertex 28.7906057241002 43.8328892774726 5.0
vertex 29.8 51.5 5.0
endloop
endfacet
facet normal 0.0 0.0 1.0
outer loop
vertex 29.8 51.5 5.0
vertex 28.7906057241002 43.8328892774726 5.0
vertex 29.8 43.7 5.0
endloop
endfacet
facet normal 0.0 0.0 1.0
outer loop
vertex 29.8 51.5 5.0
vertex 29.8 43.7 5.0
vertex 30.8093942758998 43.8328892774726 5.0
endloop
endfacet
facet normal 0.0 0.0 1.0
outer loop
vertex 29.8 51.5 5.0
vertex 30.8093942758998 43.8328892774726 5.0
vertex 30.8093942758998 51.3671107225274 5.0
endloop
endfacet
facet normal 0.0 0.0 1.0
outer loop
vertex 30.8093942758998 51.3671107225274 5.0
vertex 30.8093942758998 43.8328892774726 5.0
vertex 31.75 44.2225009252407 5.0
endloop
endfacet
facet normal 0.0 0.0 1.0
outer loop
vertex 30.8093942758998 51.3671107225274 5.0
vertex 31.75 44.2225009252407 5.0
vertex 31.75 50.9774990747593 5.0
endloop
endfacet
facet normal 0.0 0.0 1.0
outer loop
vertex 31.75 50.9774990747593 5.0
vertex 31.75 44.2225009252407 5.0
vertex 32.5577164466275 44.8422835533725 5.0
endloop
endfacet
facet normal 0.0 0.0 1.0
outer loop
vertex 31.75 50.9774990747593 5.0
vertex 32.5577164466275 44.8422835533725 5.0
vertex 32.5577164466275 50.3577164466275 5.0
endloop
endfacet
facet normal 0.0 0.0 1.0
outer loop
vertex 32.5577164466275 50.3577164466275 5.0
vertex 32.5577164466275 44.8422835533725 5.0
vertex 33.1774990747593 45.65 5.0
endloop
endfacet
facet normal 0.0 0.0 1.0
outer loop
vertex 32.5577164466275 50.3577164466275 5.0
vertex 33.1774990747593 45.65 5.0
vertex 33.1774990747593 49.55 5.0
endloop
endfacet
facet normal 0.0 0.0 1.0
outer loop
vertex 33.1774990747593 49.55 5.0
vertex 33.1774990747593 45.65 5.0
vertex 33.5671107225274 48.6093942758998 5.0
endloop
endfacet
facet normal 0.0 0.0 1.0
outer loop
vertex 33.5671107225274 48.6093942758998 5.0
vertex 33.1774990747593 45.65 5.0
vertex 33.5671107225274 46.5906057241002 5.0
endloop
endfacet
facet normal 0.0 0.0 1.0
outer loop
vertex 33.5671107225274 48.6093942758998 5.0
vertex 33.5671107225274 46.5906057241002 5.0
vertex 33.7 47.6 5.0
endloop
endfacet
facet normal 0.258819045102522 0.965925826289068 0.0
outer loop
vertex 30.8093942758998 51.3671107225274 5.0
vertex 31.75 50.9774990747593 -7.04991620636974e-016
vertex 30.8093942758998 51.3671107225274 -7.04991620636974e-016
endloop
endfacet
facet normal 0.499999999999998 0.86602540378444 0.0
outer loop
vertex 31.75 50.9774990747593 -7.04991620636974e-016
vertex 30.8093942758998 51.3671107225274 5.0
vertex 31.75 50.9774990747593 5.0
endloop
endfacet
facet normal 3.65355505721523e-016 1.0 0.0
outer loop
vertex 29.8 51.5 5.0
vertex 30.8093942758998 51.3671107225274 -7.04991620636974e-016
vertex 29.8 51.5 -7.04991620636974e-016
endloop
endfacet
facet normal 0.258819045102522 0.965925826289068 0.0
outer loop
vertex 30.8093942758998 51.3671107225274 -7.04991620636974e-016
vertex 29.8 51.5 5.0
vertex 30.8093942758998 51.3671107225274 5.0
endloop
endfacet
facet normal -0.258819045102523 0.965925826289068 0.0
outer loop
vertex 28.7906057241002 51.3671107225274 5.0
vertex 29.8 51.5 -7.04991620636974e-016
vertex 28.7906057241002 51.3671107225274 -7.04991620636974e-016
endloop
endfacet
facet normal 3.65355505721523e-016 1.0 0.0
outer loop
vertex 29.8 51.5 -7.04991620636974e-016
vertex 28.7906057241002 51.3671107225274 5.0
vertex 29.8 51.5 5.0
endloop
endfacet
facet normal -0.499999999999999 0.866025403784439 0.0
outer loop
vertex 27.85 50.9774990747593 5.0
vertex 28.7906057241002 51.3671107225274 -7.04991620636974e-016
vertex 27.85 50.9774990747593 -7.04991620636974e-016
endloop
endfacet
facet normal -0.258819045102523 0.965925826289068 0.0
outer loop
vertex 28.7906057241002 51.3671107225274 -7.04991620636974e-016
vertex 27.85 50.9774990747593 5.0
vertex 28.7906057241002 51.3671107225274 5.0
endloop
endfacet
facet normal -0.707106781186546 0.707106781186549 0.0
outer loop
vertex 27.0422835533724 50.3577164466275 5.0
vertex 27.85 50.9774990747593 -7.04991620636974e-016
vertex 27.0422835533724 50.3577164466275 -7.04991620636974e-016
endloop
endfacet
facet normal -0.499999999999999 0.866025403784439 0.0
outer loop
vertex 27.85 50.9774990747593 -7.04991620636974e-016
vertex 27.0422835533724 50.3577164466275 5.0
vertex 27.85 50.9774990747593 5.0
endloop
endfacet
facet normal -0.707106781186546 0.707106781186549 0.0
outer loop
vertex 27.0422835533724 50.3577164466275 5.0
vertex 26.4225009252407 49.55 -7.04991620636974e-016
vertex 26.4225009252407 49.55 5.0
endloop
endfacet
facet normal -0.866025403784439 0.5 0.0
outer loop
vertex 26.4225009252407 49.55 -7.04991620636974e-016
vertex 27.0422835533724 50.3577164466275 5.0
vertex 27.0422835533724 50.3577164466275 -7.04991620636974e-016
endloop
endfacet
facet normal -0.866025403784439 0.5 0.0
outer loop
vertex 26.4225009252407 49.55 5.0
vertex 26.0328892774726 48.6093942758998 -7.04991620636974e-016
vertex 26.0328892774726 48.6093942758998 5.0
endloop
endfacet
facet normal -0.965925826289069 0.25881904510252 0.0
outer loop
vertex 26.0328892774726 48.6093942758998 -7.04991620636974e-016
vertex 26.4225009252407 49.55 5.0
vertex 26.4225009252407 49.55 -7.04991620636974e-016
endloop
endfacet
facet normal -0.965925826289069 0.25881904510252 0.0
outer loop
vertex 26.0328892774726 48.6093942758998 5.0
vertex 25.9 47.6 -7.04991620636974e-016
vertex 25.9 47.6 5.0
endloop
endfacet
facet normal -1.0 3.7426661561717e-016 0.0
outer loop
vertex 25.9 47.6 -7.04991620636974e-016
vertex 26.0328892774726 48.6093942758998 5.0
vertex 26.0328892774726 48.6093942758998 -7.04991620636974e-016
endloop
endfacet
facet normal -1.0 3.7426661561717e-016 0.0
outer loop
vertex 25.9 47.6 5.0
vertex 26.0328892774726 46.5906057241002 -7.04991620636974e-016
vertex 26.0328892774726 46.5906057241002 5.0
endloop
endfacet
facet normal -0.965925826289068 -0.258819045102523 0.0
outer loop
vertex 26.0328892774726 46.5906057241002 -7.04991620636974e-016
vertex 25.9 47.6 5.0
vertex 25.9 47.6 -7.04991620636974e-016
endloop
endfacet
facet normal -0.965925826289068 -0.258819045102523 0.0
outer loop
vertex 26.0328892774726 46.5906057241002 5.0
vertex 26.4225009252407 45.65 -7.04991620636974e-016
vertex 26.4225009252407 45.65 5.0
endloop
endfacet
facet normal -0.866025403784437 -0.500000000000003 0.0
outer loop
vertex 26.4225009252407 45.65 -7.04991620636974e-016
vertex 26.0328892774726 46.5906057241002 5.0
vertex 26.0328892774726 46.5906057241002 -7.04991620636974e-016
endloop
endfacet
facet normal -0.866025403784437 -0.500000000000003 0.0
outer loop
vertex 26.4225009252407 45.65 5.0
vertex 27.0422835533725 44.8422835533725 -7.04991620636974e-016
vertex 27.0422835533725 44.8422835533725 5.0
endloop
endfacet
facet normal -0.707106781186549 -0.707106781186546 0.0
outer loop
vertex 27.0422835533725 44.8422835533725 -7.04991620636974e-016
vertex 26.4225009252407 45.65 5.0
vertex 26.4225009252407 45.65 -7.04991620636974e-016
endloop
endfacet
facet normal -0.500000000000001 -0.866025403784438 0.0
outer loop
vertex 27.85 44.2225009252407 5.0
vertex 27.0422835533725 44.8422835533725 -7.04991620636974e-016
vertex 27.85 44.2225009252407 -7.04991620636974e-016
endloop
endfacet
facet normal -0.707106781186549 -0.707106781186546 0.0
outer loop
vertex 27.0422835533725 44.8422835533725 -7.04991620636974e-016
vertex 27.85 44.2225009252407 5.0
vertex 27.0422835533725 44.8422835533725 5.0
endloop
endfacet
facet normal -0.25881904510252 -0.965925826289069 0.0
outer loop
vertex 28.7906057241002 43.8328892774726 5.0
vertex 27.85 44.2225009252407 -7.04991620636974e-016
vertex 28.7906057241002 43.8328892774726 -7.04991620636974e-016
endloop
endfacet
facet normal -0.500000000000001 -0.866025403784438 0.0
outer loop
vertex 27.85 44.2225009252407 -7.04991620636974e-016
vertex 28.7906057241002 43.8328892774726 5.0
vertex 27.85 44.2225009252407 5.0
endloop
endfacet
facet normal 0.0 -1.0 0.0
outer loop
vertex 29.8 43.7 5.0
vertex 28.7906057241002 43.8328892774726 -7.04991620636974e-016
vertex 29.8 43.7 -7.04991620636974e-016
endloop
endfacet
facet normal -0.25881904510252 -0.965925826289069 0.0
outer loop
vertex 28.7906057241002 43.8328892774726 -7.04991620636974e-016
vertex 29.8 43.7 5.0
vertex 28.7906057241002 43.8328892774726 5.0
endloop
endfacet
facet normal 0.258819045102522 -0.965925826289068 0.0
outer loop
vertex 30.8093942758998 43.8328892774726 5.0
vertex 29.8 43.7 -7.04991620636974e-016
vertex 30.8093942758998 43.8328892774726 -7.04991620636974e-016
endloop
endfacet
facet normal 0.0 -1.0 0.0
outer loop
vertex 29.8 43.7 -7.04991620636974e-016
vertex 30.8093942758998 43.8328892774726 5.0
vertex 29.8 43.7 5.0
endloop
endfacet
facet normal 0.5 -0.866025403784439 0.0
outer loop
vertex 31.75 44.2225009252407 5.0
vertex 30.8093942758998 43.8328892774726 -7.04991620636974e-016
vertex 31.75 44.2225009252407 -7.04991620636974e-016
endloop
endfacet
facet normal 0.258819045102522 -0.965925826289068 0.0
outer loop
vertex 30.8093942758998 43.8328892774726 -7.04991620636974e-016
vertex 31.75 44.2225009252407 5.0
vertex 30.8093942758998 43.8328892774726 5.0
endloop
endfacet
facet normal 0.707106781186546 -0.707106781186549 0.0
outer loop
vertex 32.5577164466275 44.8422835533725 5.0
vertex 31.75 44.2225009252407 -7.04991620636974e-016
vertex 32.5577164466275 44.8422835533725 -7.04991620636974e-016
endloop
endfacet
facet normal 0.5 -0.866025403784439 0.0
outer loop
vertex 31.75 44.2225009252407 -7.04991620636974e-016
vertex 32.5577164466275 44.8422835533725 5.0
vertex 31.75 44.2225009252407 5.0
endloop
endfacet
facet normal 0.866025403784439 -0.5 0.0
outer loop
vertex 33.1774990747593 45.65 -7.04991620636974e-016
vertex 32.5577164466275 44.8422835533725 5.0
vertex 32.5577164466275 44.8422835533725 -7.04991620636974e-016
endloop
endfacet
facet normal 0.707106781186546 -0.707106781186549 0.0
outer loop
vertex 32.5577164466275 44.8422835533725 5.0
vertex 33.1774990747593 45.65 -7.04991620636974e-016
vertex 33.1774990747593 45.65 5.0
endloop
endfacet
facet normal 0.965925826289069 -0.25881904510252 0.0
outer loop
vertex 33.5671107225274 46.5906057241002 -7.04991620636974e-016
vertex 33.1774990747593 45.65 5.0
vertex 33.1774990747593 45.65 -7.04991620636974e-016
endloop
endfacet
facet normal 0.866025403784439 -0.5 0.0
outer loop
vertex 33.1774990747593 45.65 5.0
vertex 33.5671107225274 46.5906057241002 -7.04991620636974e-016
vertex 33.5671107225274 46.5906057241002 5.0
endloop
endfacet
facet normal 1.0 0.0 0.0
outer loop
vertex 33.7 47.6 -7.04991620636974e-016
vertex 33.5671107225274 46.5906057241002 5.0
vertex 33.5671107225274 46.5906057241002 -7.04991620636974e-016
endloop
endfacet
facet normal 0.965925826289069 -0.25881904510252 0.0
outer loop
vertex 33.5671107225274 46.5906057241002 5.0
vertex 33.7 47.6 -7.04991620636974e-016
vertex 33.7 47.6 5.0
endloop
endfacet
facet normal 0.965925826289068 0.258819045102522 0.0
outer loop
vertex 33.5671107225274 48.6093942758998 -7.04991620636974e-016
vertex 33.7 47.6 5.0
vertex 33.7 47.6 -7.04991620636974e-016
endloop
endfacet
facet normal 1.0 0.0 0.0
outer loop
vertex 33.7 47.6 5.0
vertex 33.5671107225274 48.6093942758998 -7.04991620636974e-016
vertex 33.5671107225274 48.6093942758998 5.0
endloop
endfacet
facet normal 0.866025403784439 0.5 0.0
outer loop
vertex 33.1774990747593 49.55 -7.04991620636974e-016
vertex 33.5671107225274 48.6093942758998 5.0
vertex 33.5671107225274 48.6093942758998 -7.04991620636974e-016
endloop
endfacet
facet normal 0.965925826289068 0.258819045102522 0.0
outer loop
vertex 33.5671107225274 48.6093942758998 5.0
vertex 33.1774990747593 49.55 -7.04991620636974e-016
vertex 33.1774990747593 49.55 5.0
endloop
endfacet
facet normal 0.707106781186547 0.707106781186547 0.0
outer loop
vertex 32.5577164466275 50.3577164466275 -7.04991620636974e-016
vertex 33.1774990747593 49.55 5.0
vertex 33.1774990747593 49.55 -7.04991620636974e-016
endloop
endfacet
facet normal 0.866025403784439 0.5 0.0
outer loop
vertex 33.1774990747593 49.55 5.0
vertex 32.5577164466275 50.3577164466275 -7.04991620636974e-016
vertex 32.5577164466275 50.3577164466275 5.0
endloop
endfacet
facet normal 0.499999999999998 0.86602540378444 0.0
outer loop
vertex 31.75 50.9774990747593 5.0
vertex 32.5577164466275 50.3577164466275 -7.04991620636974e-016
vertex 31.75 50.9774990747593 -7.04991620636974e-016
endloop
endfacet
facet normal 0.707106781186547 0.707106781186547 0.0
outer loop
vertex 32.5577164466275 50.3577164466275 -7.04991620636974e-016
vertex 31.75 50.9774990747593 5.0
vertex 32.5577164466275 50.3577164466275 5.0
endloop
endfacet
endsolid HTC Desire
