solid iPhone5
facet normal -2.91807085245001e-018 -3.26172552353963e-019 -1.0
outer loop
vertex 3.0 127.0 -3.0
vertex 9.0 119.6 -3.0
vertex 3.0 3.03436362656053 -3.0
endloop
endfacet
facet normal -2.91807085245001e-018 -3.26172552353963e-019 -1.0
outer loop
vertex 9.0 119.6 -3.0
vertex 3.0 127.0 -3.0
vertex 9.13629669484373 120.63527618041 -3.0
endloop
endfacet
facet normal -2.91807085245001e-018 -3.26172552353963e-019 -1.0
outer loop
vertex 9.13629669484373 120.63527618041 -3.0
vertex 3.0 127.0 -3.0
vertex 9.53589838486225 121.6 -3.0
endloop
endfacet
facet normal -2.91807085245001e-018 -3.26172552353963e-019 -1.0
outer loop
vertex 9.53589838486225 121.6 -3.0
vertex 3.0 127.0 -3.0
vertex 10.1715728752538 122.428427124746 -3.0
endloop
endfacet
facet normal -2.91807085245001e-018 -3.26172552353963e-019 -1.0
outer loop
vertex 10.1715728752538 122.428427124746 -3.0
vertex 3.0 127.0 -3.0
vertex 11.0 123.064101615138 -3.0
endloop
endfacet
facet normal -2.91807085245001e-018 -3.26172552353963e-019 -1.0
outer loop
vertex 11.0 123.064101615138 -3.0
vertex 3.0 127.0 -3.0
vertex 11.9647238195899 123.463703305156 -3.0
endloop
endfacet
facet normal -2.91807085245001e-018 -3.26172552353963e-019 -1.0
outer loop
vertex 11.9647238195899 123.463703305156 -3.0
vertex 3.0 127.0 -3.0
vertex 13.0 123.6 -3.0
endloop
endfacet
facet normal -2.91807085245001e-018 -3.26172552353963e-019 -1.0
outer loop
vertex 13.0 123.6 -3.0
vertex 3.0 127.0 -3.0
vertex 63.0 127.0 -3.0
endloop
endfacet
facet normal -2.91807085245001e-018 -3.26172552353963e-019 -1.0
outer loop
vertex 13.0 123.6 -3.0
vertex 63.0 127.0 -3.0
vertex 14.0352761804101 123.463703305156 -3.0
endloop
endfacet
facet normal -2.91807085245001e-018 -3.26172552353963e-019 -1.0
outer loop
vertex 14.0352761804101 123.463703305156 -3.0
vertex 63.0 127.0 -3.0
vertex 15.0 123.064101615138 -3.0
endloop
endfacet
facet normal -2.91807085245001e-018 -3.26172552353963e-019 -1.0
outer loop
vertex 15.0 123.064101615138 -3.0
vertex 63.0 127.0 -3.0
vertex 15.8284271247462 122.428427124746 -3.0
endloop
endfacet
facet normal -2.91807085245001e-018 -3.26172552353963e-019 -1.0
outer loop
vertex 15.8284271247462 122.428427124746 -3.0
vertex 63.0 127.0 -3.0
vertex 16.4641016151378 121.6 -3.0
endloop
endfacet
facet normal -2.91807085245001e-018 -3.26172552353963e-019 -1.0
outer loop
vertex 16.4641016151378 121.6 -3.0
vertex 63.0 127.0 -3.0
vertex 16.8637033051563 120.63527618041 -3.0
endloop
endfacet
facet normal -2.91807085245001e-018 -3.26172552353963e-019 -1.0
outer loop
vertex 16.8637033051563 120.63527618041 -3.0
vertex 63.0 127.0 -3.0
vertex 17.0 119.6 -3.0
endloop
endfacet
facet normal -2.91807085245001e-018 -3.26172552353963e-019 -1.0
outer loop
vertex 17.0 119.6 -3.0
vertex 63.0 127.0 -3.0
vertex 61.9 80.0 -3.0
endloop
endfacet
facet normal -2.91807085245001e-018 -3.26172552353963e-019 -1.0
outer loop
vertex 61.9 80.0 -3.0
vertex 63.0 127.0 -3.0
vertex 63.0 80.0 -3.0
endloop
endfacet
facet normal -2.91807085245001e-018 -3.26172552353963e-019 -1.0
outer loop
vertex 3.0 3.03436362656053 -3.0
vertex 9.53589838486224 117.6 -3.0
vertex 61.9 3.03436362656053 -3.0
endloop
endfacet
facet normal -2.91807085245001e-018 -3.26172552353963e-019 -1.0
outer loop
vertex 9.53589838486224 117.6 -3.0
vertex 3.0 3.03436362656053 -3.0
vertex 9.13629669484373 118.56472381959 -3.0
endloop
endfacet
facet normal -2.91807085245001e-018 -3.26172552353963e-019 -1.0
outer loop
vertex 9.13629669484373 118.56472381959 -3.0
vertex 3.0 3.03436362656053 -3.0
vertex 9.0 119.6 -3.0
endloop
endfacet
facet normal -2.91807085245001e-018 -3.26172552353963e-019 -1.0
outer loop
vertex 61.9 3.03436362656053 -3.0
vertex 9.53589838486224 117.6 -3.0
vertex 10.1715728752538 116.771572875254 -3.0
endloop
endfacet
facet normal -2.91807085245001e-018 -3.26172552353963e-019 -1.0
outer loop
vertex 61.9 3.03436362656053 -3.0
vertex 10.1715728752538 116.771572875254 -3.0
vertex 11.0 116.135898384862 -3.0
endloop
endfacet
facet normal -2.91807085245001e-018 -3.26172552353963e-019 -1.0
outer loop
vertex 61.9 3.03436362656053 -3.0
vertex 11.0 116.135898384862 -3.0
vertex 11.9647238195899 115.736296694844 -3.0
endloop
endfacet
facet normal -2.91807085245001e-018 -3.26172552353963e-019 -1.0
outer loop
vertex 61.9 3.03436362656053 -3.0
vertex 11.9647238195899 115.736296694844 -3.0
vertex 13.0 115.6 -3.0
endloop
endfacet
facet normal -2.91807085245001e-018 -3.26172552353963e-019 -1.0
outer loop
vertex 61.9 3.03436362656053 -3.0
vertex 13.0 115.6 -3.0
vertex 14.0352761804101 115.736296694844 -3.0
endloop
endfacet
facet normal -2.91807085245001e-018 -3.26172552353963e-019 -1.0
outer loop
vertex 61.9 3.03436362656053 -3.0
vertex 14.0352761804101 115.736296694844 -3.0
vertex 15.0 116.135898384862 -3.0
endloop
endfacet
facet normal -2.91807085245001e-018 -3.26172552353963e-019 -1.0
outer loop
vertex 61.9 3.03436362656053 -3.0
vertex 15.0 116.135898384862 -3.0
vertex 15.8284271247462 116.771572875254 -3.0
endloop
endfacet
facet normal -2.91807085245001e-018 -3.26172552353963e-019 -1.0
outer loop
vertex 61.9 3.03436362656053 -3.0
vertex 15.8284271247462 116.771572875254 -3.0
vertex 16.4641016151378 117.6 -3.0
endloop
endfacet
facet normal -2.91807085245001e-018 -3.26172552353963e-019 -1.0
outer loop
vertex 61.9 3.03436362656053 -3.0
vertex 16.4641016151378 117.6 -3.0
vertex 16.8637033051563 118.56472381959 -3.0
endloop
endfacet
facet normal -2.91807085245001e-018 -3.26172552353963e-019 -1.0
outer loop
vertex 61.9 3.03436362656053 -3.0
vertex 16.8637033051563 118.56472381959 -3.0
vertex 17.0 119.6 -3.0
endloop
endfacet
facet normal -2.91807085245001e-018 -3.26172552353963e-019 -1.0
outer loop
vertex 61.9 3.03436362656053 -3.0
vertex 17.0 119.6 -3.0
vertex 61.9 80.0 -3.0
endloop
endfacet
facet normal -1.0 0.0 0.0
outer loop
vertex 0.0 92.0 0.0
vertex 0.0 0.0 -12.8
vertex 0.0 0.0 0.0
endloop
endfacet
facet normal -1.0 0.0 0.0
outer loop
vertex 0.0 0.0 -12.8
vertex 0.0 92.0 0.0
vertex 0.0 92.0 -12.8
endloop
endfacet
facet normal -0.0 1.0 0.0
outer loop
vertex -12.0 127.0 0.0
vertex 4.5 127.0 -12.8
vertex -12.0 127.0 -12.8
endloop
endfacet
facet normal -0.0 1.0 0.0
outer loop
vertex 4.5 127.0 -12.8
vertex -12.0 127.0 0.0
vertex 3.0 127.0 -10.8
endloop
endfacet
facet normal -0.0 1.0 0.0
outer loop
vertex 3.0 127.0 -10.8
vertex -12.0 127.0 0.0
vertex 3.0 127.0 -3.0
endloop
endfacet
facet normal -0.0 1.0 0.0
outer loop
vertex 3.0 127.0 -3.0
vertex -12.0 127.0 0.0
vertex 63.0 127.0 -3.0
endloop
endfacet
facet normal -0.0 1.0 0.0
outer loop
vertex 60.4 127.0 -10.8
vertex 64.9 127.0 -12.8
vertex 60.4 127.0 -12.8
endloop
endfacet
facet normal -0.0 1.0 0.0
outer loop
vertex 64.9 127.0 -12.8
vertex 60.4 127.0 -10.8
vertex 63.0 127.0 -10.8
endloop
endfacet
facet normal -0.0 1.0 0.0
outer loop
vertex 64.9 127.0 -12.8
vertex 63.0 127.0 -10.8
vertex 64.9 127.0 0.0
endloop
endfacet
facet normal -0.0 1.0 0.0
outer loop
vertex 64.9 127.0 0.0
vertex 63.0 127.0 -10.8
vertex 63.0 127.0 -3.0
endloop
endfacet
facet normal -0.0 1.0 0.0
outer loop
vertex 64.9 127.0 0.0
vertex 63.0 127.0 -3.0
vertex -12.0 127.0 0.0
endloop
endfacet
facet normal -0.0 1.0 0.0
outer loop
vertex 4.5 127.0 -10.8
vertex 4.5 127.0 -12.8
vertex 3.0 127.0 -10.8
endloop
endfacet
facet normal -0.0 -1.0 -0.0
outer loop
vertex 64.9 0.0 0.0
vertex 0.0 0.0 -12.8
vertex 64.9 0.0 -12.8
endloop
endfacet
facet normal -0.0 -1.0 -0.0
outer loop
vertex 0.0 0.0 -12.8
vertex 64.9 0.0 0.0
vertex 0.0 0.0 0.0
endloop
endfacet
facet normal 0.0 0.0 -1.0
outer loop
vertex 64.9 127.0 -12.8
vertex 60.4 4.53436362656053 -12.8
vertex 60.4 127.0 -12.8
endloop
endfacet
facet normal 0.0 0.0 -1.0
outer loop
vertex 60.4 4.53436362656053 -12.8
vertex 64.9 127.0 -12.8
vertex 64.9 0.0 -12.8
endloop
endfacet
facet normal 0.0 0.0 -1.0
outer loop
vertex 4.5 127.0 -12.8
vertex -12.0 92.0 -12.8
vertex -12.0 127.0 -12.8
endloop
endfacet
facet normal 0.0 0.0 -1.0
outer loop
vertex -12.0 92.0 -12.8
vertex 4.5 127.0 -12.8
vertex 0.0 92.0 -12.8
endloop
endfacet
facet normal 0.0 0.0 -1.0
outer loop
vertex 0.0 92.0 -12.8
vertex 4.5 127.0 -12.8
vertex 0.0 0.0 -12.8
endloop
endfacet
facet normal 0.0 0.0 -1.0
outer loop
vertex 0.0 0.0 -12.8
vertex 4.5 127.0 -12.8
vertex 4.5 4.53436362656053 -12.8
endloop
endfacet
facet normal 0.0 0.0 -1.0
outer loop
vertex 0.0 0.0 -12.8
vertex 4.5 4.53436362656053 -12.8
vertex 64.9 0.0 -12.8
endloop
endfacet
facet normal 0.0 0.0 -1.0
outer loop
vertex 64.9 0.0 -12.8
vertex 4.5 4.53436362656053 -12.8
vertex 60.4 4.53436362656053 -12.8
endloop
endfacet
facet normal -0.0 1.0 -1.35575311660957e-016
outer loop
vertex 3.0 3.03436362656053 -3.0
vertex 4.5 3.03436362656053 -10.8
vertex 3.0 3.03436362656053 -10.8
endloop
endfacet
facet normal -0.0 1.0 -1.35575311660957e-016
outer loop
vertex 4.5 3.03436362656053 -10.8
vertex 3.0 3.03436362656053 -3.0
vertex 61.9 3.03436362656053 -10.8
endloop
endfacet
facet normal -0.0 1.0 -1.35575311660957e-016
outer loop
vertex 61.9 3.03436362656053 -10.8
vertex 3.0 3.03436362656053 -3.0
vertex 61.9 3.03436362656053 -3.0
endloop
endfacet
facet normal 1.0 -0.0 -0.0
outer loop
vertex 3.0 127.0 -10.8
vertex 3.0 3.03436362656053 -3.0
vertex 3.0 3.03436362656053 -10.8
endloop
endfacet
facet normal 1.0 -0.0 -0.0
outer loop
vertex 3.0 3.03436362656053 -3.0
vertex 3.0 127.0 -10.8
vertex 3.0 127.0 -3.0
endloop
endfacet
facet normal 1.0 0.0 0.0
outer loop
vertex 4.5 127.0 -12.8
vertex 4.5 4.53436362656053 -10.8
vertex 4.5 4.53436362656053 -12.8
endloop
endfacet
facet normal 1.0 0.0 0.0
outer loop
vertex 4.5 4.53436362656053 -10.8
vertex 4.5 127.0 -12.8
vertex 4.5 127.0 -10.8
endloop
endfacet
facet normal 0.0 0.0 1.0
outer loop
vertex 4.5 3.03436362656053 -10.8
vertex 3.0 127.0 -10.8
vertex 3.0 3.03436362656053 -10.8
endloop
endfacet
facet normal 0.0 0.0 1.0
outer loop
vertex 3.0 127.0 -10.8
vertex 4.5 3.03436362656053 -10.8
vertex 4.5 127.0 -10.8
endloop
endfacet
facet normal 0.0 0.0 1.0
outer loop
vertex 4.5 127.0 -10.8
vertex 4.5 3.03436362656053 -10.8
vertex 4.5 4.53436362656053 -10.8
endloop
endfacet
facet normal 0.0 1.0 5.28743715477731e-016
outer loop
vertex 4.5 4.53436362656053 -10.8
vertex 60.4 4.53436362656053 -12.8
vertex 4.5 4.53436362656053 -12.8
endloop
endfacet
facet normal 0.0 1.0 5.28743715477731e-016
outer loop
vertex 60.4 4.53436362656053 -12.8
vertex 4.5 4.53436362656053 -10.8
vertex 60.4 4.53436362656053 -10.8
endloop
endfacet
facet normal 0.0 -5.28743715477731e-016 1.0
outer loop
vertex 61.9 3.03436362656053 -10.8
vertex 4.5 4.53436362656053 -10.8
vertex 4.5 3.03436362656053 -10.8
endloop
endfacet
facet normal 0.0 -5.28743715477731e-016 1.0
outer loop
vertex 4.5 4.53436362656053 -10.8
vertex 61.9 3.03436362656053 -10.8
vertex 60.4 4.53436362656053 -10.8
endloop
endfacet
facet normal 0.0 -5.28743715477731e-016 1.0
outer loop
vertex 60.4 4.53436362656053 -10.8
vertex 61.9 3.03436362656053 -10.8
vertex 61.9 4.53436362656053 -10.8
endloop
endfacet
facet normal -1.0 0.0 0.0
outer loop
vertex 60.4 127.0 -10.8
vertex 60.4 4.53436362656053 -12.8
vertex 60.4 4.53436362656053 -10.8
endloop
endfacet
facet normal -1.0 0.0 0.0
outer loop
vertex 60.4 4.53436362656053 -12.8
vertex 60.4 127.0 -10.8
vertex 60.4 127.0 -12.8
endloop
endfacet
facet normal 0.0 -0.0 1.0
outer loop
vertex 61.9 4.53436362656053 -10.8
vertex 60.4 127.0 -10.8
vertex 60.4 4.53436362656053 -10.8
endloop
endfacet
facet normal 0.0 -0.0 1.0
outer loop
vertex 60.4 127.0 -10.8
vertex 61.9 4.53436362656053 -10.8
vertex 61.9 80.0 -10.8
endloop
endfacet
facet normal 0.0 -0.0 1.0
outer loop
vertex 60.4 127.0 -10.8
vertex 61.9 80.0 -10.8
vertex 63.0 127.0 -10.8
endloop
endfacet
facet normal 0.0 -0.0 1.0
outer loop
vertex 63.0 127.0 -10.8
vertex 61.9 80.0 -10.8
vertex 63.0 80.0 -10.8
endloop
endfacet
facet normal -1.0 0.0 0.0
outer loop
vertex 61.9 3.03436362656053 -3.0
vertex 61.9 4.53436362656053 -10.8
vertex 61.9 3.03436362656053 -10.8
endloop
endfacet
facet normal -1.0 0.0 0.0
outer loop
vertex 61.9 4.53436362656053 -10.8
vertex 61.9 3.03436362656053 -3.0
vertex 61.9 80.0 -3.0
endloop
endfacet
facet normal -1.0 0.0 0.0
outer loop
vertex 61.9 4.53436362656053 -10.8
vertex 61.9 80.0 -3.0
vertex 61.9 80.0 -10.8
endloop
endfacet
facet normal -1.0 0.0 0.0
outer loop
vertex 63.0 127.0 -3.0
vertex 63.0 80.0 -10.8
vertex 63.0 80.0 -3.0
endloop
endfacet
facet normal -1.0 0.0 0.0
outer loop
vertex 63.0 80.0 -10.8
vertex 63.0 127.0 -3.0
vertex 63.0 127.0 -10.8
endloop
endfacet
facet normal -0.0 1.0 -0.0
outer loop
vertex 61.9 80.0 -3.0
vertex 63.0 80.0 -10.8
vertex 61.9 80.0 -10.8
endloop
endfacet
facet normal -0.0 1.0 -0.0
outer loop
vertex 63.0 80.0 -10.8
vertex 61.9 80.0 -3.0
vertex 63.0 80.0 -3.0
endloop
endfacet
facet normal 1.0 -2.12333056087734e-016 -0.0
outer loop
vertex 64.9 127.0 -12.8
vertex 64.9 0.0 0.0
vertex 64.9 0.0 -12.8
endloop
endfacet
facet normal 1.0 -2.12333056087734e-016 -0.0
outer loop
vertex 64.9 0.0 0.0
vertex 64.9 127.0 -12.8
vertex 64.9 127.0 0.0
endloop
endfacet
facet normal -0.718957192709886 -0.41509012874685 0.557495058334729
outer loop
vertex 18.2088005957895 122.607302426134 -2.11497486191092e-015
vertex 15.8284271247462 122.428427124746 -3.0
vertex 16.4641016151378 121.6 -3.0
endloop
endfacet
facet normal -0.587026089681011 -0.587026089681002 0.557495058334739
outer loop
vertex 15.8284271247462 122.428427124746 -3.0
vertex 18.2088005957895 122.607302426134 -2.11497486191092e-015
vertex 17.2529678771964 123.852967877197 -2.11497486191092e-015
endloop
endfacet
facet normal -0.8018925511885 -0.214866461507495 0.557495058334733
outer loop
vertex 18.8096621617295 121.156694284533 -2.11497486191092e-015
vertex 16.4641016151378 121.6 -3.0
vertex 16.8637033051563 120.63527618041 -3.0
endloop
endfacet
facet normal -0.718957192709885 -0.415090128746853 0.557495058334729
outer loop
vertex 16.4641016151378 121.6 -3.0
vertex 18.8096621617295 121.156694284533 -2.11497486191092e-015
vertex 18.2088005957895 122.607302426134 -2.11497486191092e-015
endloop
endfacet
facet normal -0.8018925511885 -0.214866461507495 0.557495058334733
outer loop
vertex 18.8096621617295 121.156694284533 -2.11497486191092e-015
vertex 17.0 119.6 -3.0
vertex 19.0146048522683 119.6 -2.11497486191092e-015
endloop
endfacet
facet normal -0.830180257493728 5.66527495037469e-015 0.557495058334733
outer loop
vertex 17.0 119.6 -3.0
vertex 18.8096621617295 121.156694284533 -2.11497486191092e-015
vertex 16.8637033051563 120.63527618041 -3.0
endloop
endfacet
facet normal -0.830180257493728 6.94310321791171e-015 0.557495058334733
outer loop
vertex 19.0146048522683 119.6 -2.11497486191092e-015
vertex 16.8637033051563 118.56472381959 -3.0
vertex 18.8096621617295 118.043305715467 -2.11497486191092e-015
endloop
endfacet
facet normal -0.801892551188504 0.214866461507492 0.557495058334729
outer loop
vertex 16.8637033051563 118.56472381959 -3.0
vertex 19.0146048522683 119.6 -2.11497486191092e-015
vertex 17.0 119.6 -3.0
endloop
endfacet
facet normal -0.801892551188505 0.214866461507485 0.557495058334729
outer loop
vertex 18.8096621617295 118.043305715467 -2.11497486191092e-015
vertex 16.4641016151378 117.6 -3.0
vertex 18.2088005957895 116.592697573866 -2.11497486191092e-015
endloop
endfacet
facet normal -0.718957192709881 0.415090128746864 0.557495058334725
outer loop
vertex 16.4641016151378 117.6 -3.0
vertex 18.8096621617295 118.043305715467 -2.11497486191092e-015
vertex 16.8637033051563 118.56472381959 -3.0
endloop
endfacet
facet normal -0.0 -0.0 1.0
outer loop
vertex -12.0 92.0 0.0
vertex -8.9 101.6 0.0
vertex -12.0 127.0 0.0
endloop
endfacet
facet normal -0.0 -0.0 1.0
outer loop
vertex -8.9 101.6 0.0
vertex -12.0 92.0 0.0
vertex -8.76711072252736 100.5906057241 0.0
endloop
endfacet
facet normal -0.0 -0.0 1.0
outer loop
vertex -8.76711072252736 100.5906057241 0.0
vertex -12.0 92.0 0.0
vertex -8.37749907475931 99.65 0.0
endloop
endfacet
facet normal -0.0 -0.0 1.0
outer loop
vertex -8.37749907475931 99.65 0.0
vertex -12.0 92.0 0.0
vertex -7.75771644662753 98.8422835533725 0.0
endloop
endfacet
facet normal -0.0 -0.0 1.0
outer loop
vertex -7.75771644662753 98.8422835533725 0.0
vertex -12.0 92.0 0.0
vertex 0.0 92.0 0.0
endloop
endfacet
facet normal -0.0 -0.0 1.0
outer loop
vertex -7.75771644662753 98.8422835533725 0.0
vertex 0.0 92.0 0.0
vertex -6.95 98.2225009252407 0.0
endloop
endfacet
facet normal -0.0 -0.0 1.0
outer loop
vertex -6.95 98.2225009252407 0.0
vertex 0.0 92.0 0.0
vertex -6.00939427589983 97.8328892774726 0.0
endloop
endfacet
facet normal -0.0 -0.0 1.0
outer loop
vertex -6.00939427589983 97.8328892774726 0.0
vertex 0.0 92.0 0.0
vertex -5.0 97.7 0.0
endloop
endfacet
facet normal -0.0 -0.0 1.0
outer loop
vertex -5.0 97.7 0.0
vertex 0.0 92.0 0.0
vertex -3.99060572410017 97.8328892774726 0.0
endloop
endfacet
facet normal -0.0 -0.0 1.0
outer loop
vertex -3.99060572410017 97.8328892774726 0.0
vertex 0.0 92.0 0.0
vertex -3.05 98.2225009252407 0.0
endloop
endfacet
facet normal -0.0 -0.0 1.0
outer loop
vertex -3.05 98.2225009252407 0.0
vertex 0.0 92.0 0.0
vertex -2.24228355337246 98.8422835533725 0.0
endloop
endfacet
facet normal -0.0 -0.0 1.0
outer loop
vertex -2.24228355337246 98.8422835533725 0.0
vertex 0.0 92.0 0.0
vertex -1.62250092524069 99.65 0.0
endloop
endfacet
facet normal -0.0 -0.0 1.0
outer loop
vertex -1.62250092524069 99.65 0.0
vertex 0.0 92.0 0.0
vertex -1.23288927747263 100.5906057241 0.0
endloop
endfacet
facet normal -0.0 -0.0 1.0
outer loop
vertex -1.23288927747263 100.5906057241 0.0
vertex 0.0 92.0 0.0
vertex -1.1 101.6 0.0
endloop
endfacet
facet normal -0.0 -0.0 1.0
outer loop
vertex 64.9 0.0 0.0
vertex 0.0 92.0 0.0
vertex 0.0 0.0 0.0
endloop
endfacet
facet normal -0.0 -0.0 1.0
outer loop
vertex 0.0 92.0 0.0
vertex 64.9 0.0 0.0
vertex 7.7911994042105 116.592697573866 -2.11497486191092e-015
endloop
endfacet
facet normal -0.0 -0.0 1.0
outer loop
vertex 0.0 92.0 0.0
vertex 7.7911994042105 116.592697573866 -2.11497486191092e-015
vertex 7.19033783827051 118.043305715467 -2.11497486191092e-015
endloop
endfacet
facet normal -0.0 -0.0 1.0
outer loop
vertex 0.0 92.0 0.0
vertex 7.19033783827051 118.043305715467 -2.11497486191092e-015
vertex 6.98539514773171 119.6 -2.11497486191092e-015
endloop
endfacet
facet normal -0.0 -0.0 1.0
outer loop
vertex 7.7911994042105 116.592697573866 -2.11497486191092e-015
vertex 64.9 0.0 0.0
vertex 8.74703212280357 115.347032122804 -2.11497486191092e-015
endloop
endfacet
facet normal -0.0 -0.0 1.0
outer loop
vertex 8.74703212280357 115.347032122804 -2.11497486191092e-015
vertex 64.9 0.0 0.0
vertex 9.99269757386586 114.39119940421 -2.11497486191092e-015
endloop
endfacet
facet normal -0.0 -0.0 1.0
outer loop
vertex 9.99269757386586 114.39119940421 -2.11497486191092e-015
vertex 64.9 0.0 0.0
vertex 11.4433057154669 113.790337838271 -2.11497486191092e-015
endloop
endfacet
facet normal -0.0 -0.0 1.0
outer loop
vertex 11.4433057154669 113.790337838271 -2.11497486191092e-015
vertex 64.9 0.0 0.0
vertex 13.0 113.585395147732 -2.11497486191092e-015
endloop
endfacet
facet normal -0.0 -0.0 1.0
outer loop
vertex 13.0 113.585395147732 -2.11497486191092e-015
vertex 64.9 0.0 0.0
vertex 14.5566942845331 113.790337838271 -2.11497486191092e-015
endloop
endfacet
facet normal -0.0 -0.0 1.0
outer loop
vertex 14.5566942845331 113.790337838271 -2.11497486191092e-015
vertex 64.9 0.0 0.0
vertex 16.0073024261341 114.39119940421 -2.11497486191092e-015
endloop
endfacet
facet normal -0.0 -0.0 1.0
outer loop
vertex 16.0073024261341 114.39119940421 -2.11497486191092e-015
vertex 64.9 0.0 0.0
vertex 17.2529678771964 115.347032122804 -2.11497486191092e-015
endloop
endfacet
facet normal -0.0 -0.0 1.0
outer loop
vertex 17.2529678771964 115.347032122804 -2.11497486191092e-015
vertex 64.9 0.0 0.0
vertex 18.2088005957895 116.592697573866 -2.11497486191092e-015
endloop
endfacet
facet normal -0.0 -0.0 1.0
outer loop
vertex 18.2088005957895 116.592697573866 -2.11497486191092e-015
vertex 64.9 0.0 0.0
vertex 18.8096621617295 118.043305715467 -2.11497486191092e-015
endloop
endfacet
facet normal -0.0 -0.0 1.0
outer loop
vertex 18.8096621617295 118.043305715467 -2.11497486191092e-015
vertex 64.9 0.0 0.0
vertex 19.0146048522683 119.6 -2.11497486191092e-015
endloop
endfacet
facet normal -0.0 -0.0 1.0
outer loop
vertex 19.0146048522683 119.6 -2.11497486191092e-015
vertex 64.9 0.0 0.0
vertex 27.2328892774726 100.5906057241 0.0
endloop
endfacet
facet normal -0.0 -0.0 1.0
outer loop
vertex 19.0146048522683 119.6 -2.11497486191092e-015
vertex 27.2328892774726 100.5906057241 0.0
vertex 27.1 101.6 0.0
endloop
endfacet
facet normal -0.0 -0.0 1.0
outer loop
vertex 27.2328892774726 100.5906057241 0.0
vertex 64.9 0.0 0.0
vertex 27.6225009252407 99.65 0.0
endloop
endfacet
facet normal -0.0 -0.0 1.0
outer loop
vertex 27.6225009252407 99.65 0.0
vertex 64.9 0.0 0.0
vertex 28.2422835533725 98.8422835533725 0.0
endloop
endfacet
facet normal -0.0 -0.0 1.0
outer loop
vertex 28.2422835533725 98.8422835533725 0.0
vertex 64.9 0.0 0.0
vertex 29.05 98.2225009252407 0.0
endloop
endfacet
facet normal -0.0 -0.0 1.0
outer loop
vertex 29.05 98.2225009252407 0.0
vertex 64.9 0.0 0.0
vertex 29.9906057241002 97.8328892774726 0.0
endloop
endfacet
facet normal -0.0 -0.0 1.0
outer loop
vertex 29.9906057241002 97.8328892774726 0.0
vertex 64.9 0.0 0.0
vertex 31.0 97.7 0.0
endloop
endfacet
facet normal -0.0 -0.0 1.0
outer loop
vertex 31.0 97.7 0.0
vertex 64.9 0.0 0.0
vertex 32.0093942758998 97.8328892774726 0.0
endloop
endfacet
facet normal -0.0 -0.0 1.0
outer loop
vertex 32.0093942758998 97.8328892774726 0.0
vertex 64.9 0.0 0.0
vertex 32.95 98.2225009252407 0.0
endloop
endfacet
facet normal -0.0 -0.0 1.0
outer loop
vertex 32.95 98.2225009252407 0.0
vertex 64.9 0.0 0.0
vertex 33.7577164466275 98.8422835533725 0.0
endloop
endfacet
facet normal -0.0 -0.0 1.0
outer loop
vertex 33.7577164466275 98.8422835533725 0.0
vertex 64.9 0.0 0.0
vertex 34.3774990747593 99.65 0.0
endloop
endfacet
facet normal -0.0 -0.0 1.0
outer loop
vertex 34.3774990747593 99.65 0.0
vertex 64.9 0.0 0.0
vertex 34.7671107225274 100.5906057241 0.0
endloop
endfacet
facet normal -0.0 -0.0 1.0
outer loop
vertex 34.7671107225274 100.5906057241 0.0
vertex 64.9 0.0 0.0
vertex 34.9 101.6 0.0
endloop
endfacet
facet normal -0.0 -0.0 1.0
outer loop
vertex -12.0 127.0 0.0
vertex 13.0 125.614604852268 -2.11497486191092e-015
vertex 64.9 127.0 0.0
endloop
endfacet
facet normal -0.0 -0.0 1.0
outer loop
vertex 13.0 125.614604852268 -2.11497486191092e-015
vertex -12.0 127.0 0.0
vertex 11.4433057154669 125.40966216173 -2.11497486191092e-015
endloop
endfacet
facet normal -0.0 -0.0 1.0
outer loop
vertex 11.4433057154669 125.40966216173 -2.11497486191092e-015
vertex -12.0 127.0 0.0
vertex 9.99269757386586 124.808800595789 -2.11497486191092e-015
endloop
endfacet
facet normal -0.0 -0.0 1.0
outer loop
vertex 9.99269757386586 124.808800595789 -2.11497486191092e-015
vertex -12.0 127.0 0.0
vertex 8.74703212280357 123.852967877197 -2.11497486191092e-015
endloop
endfacet
facet normal -0.0 -0.0 1.0
outer loop
vertex 8.74703212280357 123.852967877197 -2.11497486191092e-015
vertex -12.0 127.0 0.0
vertex -7.75771644662753 104.357716446628 0.0
endloop
endfacet
facet normal -0.0 -0.0 1.0
outer loop
vertex -7.75771644662753 104.357716446628 0.0
vertex -12.0 127.0 0.0
vertex -8.37749907475931 103.55 0.0
endloop
endfacet
facet normal -0.0 -0.0 1.0
outer loop
vertex -8.37749907475931 103.55 0.0
vertex -12.0 127.0 0.0
vertex -8.76711072252736 102.6093942759 0.0
endloop
endfacet
facet normal -0.0 -0.0 1.0
outer loop
vertex -8.76711072252736 102.6093942759 0.0
vertex -12.0 127.0 0.0
vertex -8.9 101.6 0.0
endloop
endfacet
facet normal -0.0 -0.0 1.0
outer loop
vertex 8.74703212280357 123.852967877197 -2.11497486191092e-015
vertex -7.75771644662753 104.357716446628 0.0
vertex -6.95 104.977499074759 0.0
endloop
endfacet
facet normal -0.0 -0.0 1.0
outer loop
vertex 8.74703212280357 123.852967877197 -2.11497486191092e-015
vertex -6.95 104.977499074759 0.0
vertex -6.00939427589983 105.367110722527 0.0
endloop
endfacet
facet normal -0.0 -0.0 1.0
outer loop
vertex 8.74703212280357 123.852967877197 -2.11497486191092e-015
vertex -6.00939427589983 105.367110722527 0.0
vertex 7.7911994042105 122.607302426134 -2.11497486191092e-015
endloop
endfacet
facet normal -0.0 -0.0 1.0
outer loop
vertex 7.7911994042105 122.607302426134 -2.11497486191092e-015
vertex -6.00939427589983 105.367110722527 0.0
vertex -5.0 105.5 0.0
endloop
endfacet
facet normal -0.0 -0.0 1.0
outer loop
vertex 7.7911994042105 122.607302426134 -2.11497486191092e-015
vertex -5.0 105.5 0.0
vertex -3.99060572410017 105.367110722527 0.0
endloop
endfacet
facet normal -0.0 -0.0 1.0
outer loop
vertex 7.7911994042105 122.607302426134 -2.11497486191092e-015
vertex -3.99060572410017 105.367110722527 0.0
vertex -3.05 104.977499074759 0.0
endloop
endfacet
facet normal -0.0 -0.0 1.0
outer loop
vertex 7.7911994042105 122.607302426134 -2.11497486191092e-015
vertex -3.05 104.977499074759 0.0
vertex -2.24228355337246 104.357716446628 0.0
endloop
endfacet
facet normal -0.0 -0.0 1.0
outer loop
vertex 7.7911994042105 122.607302426134 -2.11497486191092e-015
vertex -2.24228355337246 104.357716446628 0.0
vertex -1.62250092524069 103.55 0.0
endloop
endfacet
facet normal -0.0 -0.0 1.0
outer loop
vertex 7.7911994042105 122.607302426134 -2.11497486191092e-015
vertex -1.62250092524069 103.55 0.0
vertex -1.23288927747263 102.6093942759 0.0
endloop
endfacet
facet normal -0.0 -0.0 1.0
outer loop
vertex 7.7911994042105 122.607302426134 -2.11497486191092e-015
vertex -1.23288927747263 102.6093942759 0.0
vertex -1.1 101.6 0.0
endloop
endfacet
facet normal -0.0 -0.0 1.0
outer loop
vertex 7.7911994042105 122.607302426134 -2.11497486191092e-015
vertex -1.1 101.6 0.0
vertex 7.19033783827051 121.156694284533 -2.11497486191092e-015
endloop
endfacet
facet normal -0.0 -0.0 1.0
outer loop
vertex 7.19033783827051 121.156694284533 -2.11497486191092e-015
vertex -1.1 101.6 0.0
vertex 0.0 92.0 0.0
endloop
endfacet
facet normal -0.0 -0.0 1.0
outer loop
vertex 7.19033783827051 121.156694284533 -2.11497486191092e-015
vertex 0.0 92.0 0.0
vertex 6.98539514773171 119.6 -2.11497486191092e-015
endloop
endfacet
facet normal -0.0 -0.0 1.0
outer loop
vertex 64.9 127.0 0.0
vertex 13.0 125.614604852268 -2.11497486191092e-015
vertex 14.5566942845331 125.40966216173 -2.11497486191092e-015
endloop
endfacet
facet normal -0.0 -0.0 1.0
outer loop
vertex 64.9 127.0 0.0
vertex 14.5566942845331 125.40966216173 -2.11497486191092e-015
vertex 16.0073024261341 124.808800595789 -2.11497486191092e-015
endloop
endfacet
facet normal -0.0 -0.0 1.0
outer loop
vertex 64.9 127.0 0.0
vertex 16.0073024261341 124.808800595789 -2.11497486191092e-015
vertex 17.2529678771964 123.852967877197 -2.11497486191092e-015
endloop
endfacet
facet normal -0.0 -0.0 1.0
outer loop
vertex 64.9 127.0 0.0
vertex 17.2529678771964 123.852967877197 -2.11497486191092e-015
vertex 18.2088005957895 122.607302426134 -2.11497486191092e-015
endloop
endfacet
facet normal -0.0 -0.0 1.0
outer loop
vertex 64.9 127.0 0.0
vertex 18.2088005957895 122.607302426134 -2.11497486191092e-015
vertex 18.8096621617295 121.156694284533 -2.11497486191092e-015
endloop
endfacet
facet normal -0.0 -0.0 1.0
outer loop
vertex 64.9 127.0 0.0
vertex 18.8096621617295 121.156694284533 -2.11497486191092e-015
vertex 19.0146048522683 119.6 -2.11497486191092e-015
endloop
endfacet
facet normal -0.0 -0.0 1.0
outer loop
vertex 64.9 127.0 0.0
vertex 19.0146048522683 119.6 -2.11497486191092e-015
vertex 29.05 104.977499074759 0.0
endloop
endfacet
facet normal -0.0 -0.0 1.0
outer loop
vertex 29.05 104.977499074759 0.0
vertex 19.0146048522683 119.6 -2.11497486191092e-015
vertex 28.2422835533725 104.357716446628 0.0
endloop
endfacet
facet normal -0.0 -0.0 1.0
outer loop
vertex 28.2422835533725 104.357716446628 0.0
vertex 19.0146048522683 119.6 -2.11497486191092e-015
vertex 27.6225009252407 103.55 0.0
endloop
endfacet
facet normal -0.0 -0.0 1.0
outer loop
vertex 27.6225009252407 103.55 0.0
vertex 19.0146048522683 119.6 -2.11497486191092e-015
vertex 27.2328892774726 102.6093942759 0.0
endloop
endfacet
facet normal -0.0 -0.0 1.0
outer loop
vertex 27.2328892774726 102.6093942759 0.0
vertex 19.0146048522683 119.6 -2.11497486191092e-015
vertex 27.1 101.6 0.0
endloop
endfacet
facet normal -0.0 -0.0 1.0
outer loop
vertex 64.9 127.0 0.0
vertex 29.05 104.977499074759 0.0
vertex 29.9906057241002 105.367110722527 0.0
endloop
endfacet
facet normal -0.0 -0.0 1.0
outer loop
vertex 64.9 127.0 0.0
vertex 29.9906057241002 105.367110722527 0.0
vertex 31.0 105.5 0.0
endloop
endfacet
facet normal -0.0 -0.0 1.0
outer loop
vertex 64.9 127.0 0.0
vertex 31.0 105.5 0.0
vertex 32.0093942758998 105.367110722527 0.0
endloop
endfacet
facet normal -0.0 -0.0 1.0
outer loop
vertex 64.9 127.0 0.0
vertex 32.0093942758998 105.367110722527 0.0
vertex 32.95 104.977499074759 0.0
endloop
endfacet
facet normal -0.0 -0.0 1.0
outer loop
vertex 64.9 127.0 0.0
vertex 32.95 104.977499074759 0.0
vertex 33.7577164466275 104.357716446628 0.0
endloop
endfacet
facet normal -0.0 -0.0 1.0
outer loop
vertex 64.9 127.0 0.0
vertex 33.7577164466275 104.357716446628 0.0
vertex 34.3774990747593 103.55 0.0
endloop
endfacet
facet normal -0.0 -0.0 1.0
outer loop
vertex 64.9 127.0 0.0
vertex 34.3774990747593 103.55 0.0
vertex 34.7671107225274 102.6093942759 0.0
endloop
endfacet
facet normal -0.0 -0.0 1.0
outer loop
vertex 64.9 127.0 0.0
vertex 34.7671107225274 102.6093942759 0.0
vertex 34.9 101.6 0.0
endloop
endfacet
facet normal -0.0 -0.0 1.0
outer loop
vertex 64.9 127.0 0.0
vertex 34.9 101.6 0.0
vertex 64.9 0.0 0.0
endloop
endfacet
facet normal 0.801892551188504 0.214866461507493 0.557495058334728
outer loop
vertex 9.13629669484373 118.56472381959 -3.0
vertex 6.98539514773171 119.6 -2.11497486191092e-015
vertex 7.19033783827051 118.043305715467 -2.11497486191092e-015
endloop
endfacet
facet normal 0.830180257493727 6.98970122608568e-015 0.557495058334734
outer loop
vertex 6.98539514773171 119.6 -2.11497486191092e-015
vertex 9.13629669484373 118.56472381959 -3.0
vertex 9.0 119.6 -3.0
endloop
endfacet
facet normal 0.718957192709884 0.415090128746858 0.557495058334726
outer loop
vertex 9.53589838486224 117.6 -3.0
vertex 7.19033783827051 118.043305715467 -2.11497486191092e-015
vertex 7.7911994042105 116.592697573866 -2.11497486191092e-015
endloop
endfacet
facet normal 0.801892551188506 0.214866461507486 0.557495058334728
outer loop
vertex 7.19033783827051 118.043305715467 -2.11497486191092e-015
vertex 9.53589838486224 117.6 -3.0
vertex 9.13629669484373 118.56472381959 -3.0
endloop
endfacet
facet normal -0.718957192709882 0.415090128746862 0.557495058334725
outer loop
vertex 18.2088005957895 116.592697573866 -2.11497486191092e-015
vertex 15.8284271247462 116.771572875254 -3.0
vertex 17.2529678771964 115.347032122804 -2.11497486191092e-015
endloop
endfacet
facet normal -0.587026089681024 0.587026089681002 0.557495058334726
outer loop
vertex 15.8284271247462 116.771572875254 -3.0
vertex 18.2088005957895 116.592697573866 -2.11497486191092e-015
vertex 16.4641016151378 117.6 -3.0
endloop
endfacet
facet normal -0.415090128746849 0.718957192709886 0.557495058334729
outer loop
vertex 16.0073024261341 114.39119940421 -2.11497486191092e-015
vertex 15.8284271247462 116.771572875254 -3.0
vertex 15.0 116.135898384862 -3.0
endloop
endfacet
facet normal -0.587026089681024 0.587026089681002 0.557495058334726
outer loop
vertex 15.8284271247462 116.771572875254 -3.0
vertex 16.0073024261341 114.39119940421 -2.11497486191092e-015
vertex 17.2529678771964 115.347032122804 -2.11497486191092e-015
endloop
endfacet
facet normal -0.214866461507469 0.801892551188521 0.557495058334713
outer loop
vertex 14.5566942845331 113.790337838271 -2.11497486191092e-015
vertex 15.0 116.135898384862 -3.0
vertex 14.0352761804101 115.736296694844 -3.0
endloop
endfacet
facet normal -0.415090128746849 0.718957192709886 0.557495058334729
outer loop
vertex 15.0 116.135898384862 -3.0
vertex 14.5566942845331 113.790337838271 -2.11497486191092e-015
vertex 16.0073024261341 114.39119940421 -2.11497486191092e-015
endloop
endfacet
facet normal 6.33732911165103e-016 0.830180257493744 0.557495058334709
outer loop
vertex 13.0 113.585395147732 -2.11497486191092e-015
vertex 14.0352761804101 115.736296694844 -3.0
vertex 13.0 115.6 -3.0
endloop
endfacet
facet normal -0.214866461507466 0.801892551188522 0.557495058334713
outer loop
vertex 14.0352761804101 115.736296694844 -3.0
vertex 13.0 113.585395147732 -2.11497486191092e-015
vertex 14.5566942845331 113.790337838271 -2.11497486191092e-015
endloop
endfacet
facet normal 0.214866461507469 0.80189255118852 0.557495058334714
outer loop
vertex 11.4433057154669 113.790337838271 -2.11497486191092e-015
vertex 13.0 115.6 -3.0
vertex 11.9647238195899 115.736296694844 -3.0
endloop
endfacet
facet normal 8.49366559276567e-018 0.830180257493744 0.557495058334709
outer loop
vertex 13.0 115.6 -3.0
vertex 11.4433057154669 113.790337838271 -2.11497486191092e-015
vertex 13.0 113.585395147732 -2.11497486191092e-015
endloop
endfacet
facet normal 0.415090128746849 0.718957192709886 0.557495058334731
outer loop
vertex 9.99269757386586 114.39119940421 -2.11497486191092e-015
vertex 11.9647238195899 115.736296694844 -3.0
vertex 11.0 116.135898384862 -3.0
endloop
endfacet
facet normal 0.214866461507465 0.801892551188521 0.557495058334714
outer loop
vertex 11.9647238195899 115.736296694844 -3.0
vertex 9.99269757386586 114.39119940421 -2.11497486191092e-015
vertex 11.4433057154669 113.790337838271 -2.11497486191092e-015
endloop
endfacet
facet normal 0.587026089681023 0.587026089681 0.557495058334728
outer loop
vertex 10.1715728752538 116.771572875254 -3.0
vertex 7.7911994042105 116.592697573866 -2.11497486191092e-015
vertex 8.74703212280357 115.347032122804 -2.11497486191092e-015
endloop
endfacet
facet normal 0.718957192709885 0.415090128746856 0.557495058334726
outer loop
vertex 7.7911994042105 116.592697573866 -2.11497486191092e-015
vertex 10.1715728752538 116.771572875254 -3.0
vertex 9.53589838486224 117.6 -3.0
endloop
endfacet
facet normal 0.587026089681024 0.587026089680999 0.557495058334728
outer loop
vertex 8.74703212280357 115.347032122804 -2.11497486191092e-015
vertex 11.0 116.135898384862 -3.0
vertex 10.1715728752538 116.771572875254 -3.0
endloop
endfacet
facet normal 0.415090128746848 0.718957192709886 0.557495058334731
outer loop
vertex 11.0 116.135898384862 -3.0
vertex 8.74703212280357 115.347032122804 -2.11497486191092e-015
vertex 9.99269757386586 114.39119940421 -2.11497486191092e-015
endloop
endfacet
facet normal -0.214866461507489 -0.801892551188495 0.557495058334743
outer loop
vertex 14.5566942845331 125.40966216173 -2.11497486191092e-015
vertex 13.0 123.6 -3.0
vertex 14.0352761804101 123.463703305156 -3.0
endloop
endfacet
facet normal 1.52885980669781e-016 -0.830180257493723 0.55749505833474
outer loop
vertex 13.0 123.6 -3.0
vertex 14.5566942845331 125.40966216173 -2.11497486191092e-015
vertex 13.0 125.614604852268 -2.11497486191092e-015
endloop
endfacet
facet normal -0.587026089681008 -0.587026089681005 0.557495058334739
outer loop
vertex 17.2529678771964 123.852967877197 -2.11497486191092e-015
vertex 15.0 123.064101615138 -3.0
vertex 15.8284271247462 122.428427124746 -3.0
endloop
endfacet
facet normal -0.415090128746859 -0.718957192709875 0.557495058334737
outer loop
vertex 15.0 123.064101615138 -3.0
vertex 17.2529678771964 123.852967877197 -2.11497486191092e-015
vertex 16.0073024261341 124.808800595789 -2.11497486191092e-015
endloop
endfacet
facet normal 0.830180257493727 5.71623694393128e-015 0.557495058334734
outer loop
vertex 9.0 119.6 -3.0
vertex 7.19033783827051 121.156694284533 -2.11497486191092e-015
vertex 6.98539514773171 119.6 -2.11497486191092e-015
endloop
endfacet
facet normal 0.801892551188499 -0.214866461507497 0.557495058334733
outer loop
vertex 7.19033783827051 121.156694284533 -2.11497486191092e-015
vertex 9.0 119.6 -3.0
vertex 9.13629669484373 120.63527618041 -3.0
endloop
endfacet
facet normal 0.718957192709886 -0.415090128746848 0.55749505833473
outer loop
vertex 9.53589838486225 121.6 -3.0
vertex 7.19033783827051 121.156694284533 -2.11497486191092e-015
vertex 9.13629669484373 120.63527618041 -3.0
endloop
endfacet
facet normal 0.801892551188499 -0.214866461507497 0.557495058334733
outer loop
vertex 7.19033783827051 121.156694284533 -2.11497486191092e-015
vertex 9.53589838486225 121.6 -3.0
vertex 7.7911994042105 122.607302426134 -2.11497486191092e-015
endloop
endfacet
facet normal 0.58702608968101 -0.587026089681 0.557495058334742
outer loop
vertex 10.1715728752538 122.428427124746 -3.0
vertex 7.7911994042105 122.607302426134 -2.11497486191092e-015
vertex 9.53589838486225 121.6 -3.0
endloop
endfacet
facet normal 0.718957192709888 -0.415090128746845 0.557495058334731
outer loop
vertex 7.7911994042105 122.607302426134 -2.11497486191092e-015
vertex 10.1715728752538 122.428427124746 -3.0
vertex 8.74703212280357 123.852967877197 -2.11497486191092e-015
endloop
endfacet
facet normal 0.415090128746858 -0.718957192709874 0.557495058334738
outer loop
vertex 9.99269757386586 124.808800595789 -2.11497486191092e-015
vertex 10.1715728752538 122.428427124746 -3.0
vertex 11.0 123.064101615138 -3.0
endloop
endfacet
facet normal 0.58702608968101 -0.587026089681 0.557495058334742
outer loop
vertex 10.1715728752538 122.428427124746 -3.0
vertex 9.99269757386586 124.808800595789 -2.11497486191092e-015
vertex 8.74703212280357 123.852967877197 -2.11497486191092e-015
endloop
endfacet
facet normal 0.214866461507489 -0.801892551188494 0.557495058334744
outer loop
vertex 11.4433057154669 125.40966216173 -2.11497486191092e-015
vertex 11.0 123.064101615138 -3.0
vertex 11.9647238195899 123.463703305156 -3.0
endloop
endfacet
facet normal 0.415090128746858 -0.718957192709875 0.557495058334738
outer loop
vertex 11.0 123.064101615138 -3.0
vertex 11.4433057154669 125.40966216173 -2.11497486191092e-015
vertex 9.99269757386586 124.808800595789 -2.11497486191092e-015
endloop
endfacet
facet normal 7.6420733405201e-016 -0.830180257493723 0.55749505833474
outer loop
vertex 13.0 125.614604852268 -2.11497486191092e-015
vertex 11.9647238195899 123.463703305156 -3.0
vertex 13.0 123.6 -3.0
endloop
endfacet
facet normal 0.21486646150749 -0.801892551188494 0.557495058334744
outer loop
vertex 11.9647238195899 123.463703305156 -3.0
vertex 13.0 125.614604852268 -2.11497486191092e-015
vertex 11.4433057154669 125.40966216173 -2.11497486191092e-015
endloop
endfacet
facet normal -0.415090128746859 -0.718957192709875 0.557495058334737
outer loop
vertex 16.0073024261341 124.808800595789 -2.11497486191092e-015
vertex 14.0352761804101 123.463703305156 -3.0
vertex 15.0 123.064101615138 -3.0
endloop
endfacet
facet normal -0.21486646150749 -0.801892551188494 0.557495058334743
outer loop
vertex 14.0352761804101 123.463703305156 -3.0
vertex 16.0073024261341 124.808800595789 -2.11497486191092e-015
vertex 14.5566942845331 125.40966216173 -2.11497486191092e-015
endloop
endfacet
facet normal -1.0 0.0 0.0
outer loop
vertex -12.0 127.0 0.0
vertex -12.0 92.0 -12.8
vertex -12.0 92.0 0.0
endloop
endfacet
facet normal -1.0 0.0 0.0
outer loop
vertex -12.0 92.0 -12.8
vertex -12.0 127.0 0.0
vertex -12.0 127.0 -12.8
endloop
endfacet
facet normal 0.0 -1.0 0.0
outer loop
vertex 0.0 92.0 0.0
vertex -12.0 92.0 -12.8
vertex 0.0 92.0 -12.8
endloop
endfacet
facet normal 0.0 -1.0 0.0
outer loop
vertex -12.0 92.0 -12.8
vertex 0.0 92.0 0.0
vertex -12.0 92.0 0.0
endloop
endfacet
facet normal 0.0 0.0 1.0
outer loop
vertex 27.2328892774726 100.5906057241 5.0
vertex 27.2328892774726 102.6093942759 5.0
vertex 27.1 101.6 5.0
endloop
endfacet
facet normal 0.0 0.0 1.0
outer loop
vertex 27.2328892774726 102.6093942759 5.0
vertex 27.2328892774726 100.5906057241 5.0
vertex 27.6225009252407 103.55 5.0
endloop
endfacet
facet normal 0.0 0.0 1.0
outer loop
vertex 27.6225009252407 103.55 5.0
vertex 27.2328892774726 100.5906057241 5.0
vertex 27.6225009252407 99.65 5.0
endloop
endfacet
facet normal 0.0 0.0 1.0
outer loop
vertex 27.6225009252407 103.55 5.0
vertex 27.6225009252407 99.65 5.0
vertex 28.2422835533725 104.357716446628 5.0
endloop
endfacet
facet normal 0.0 0.0 1.0
outer loop
vertex 28.2422835533725 104.357716446628 5.0
vertex 27.6225009252407 99.65 5.0
vertex 28.2422835533725 98.8422835533725 5.0
endloop
endfacet
facet normal 0.0 0.0 1.0
outer loop
vertex 28.2422835533725 104.357716446628 5.0
vertex 28.2422835533725 98.8422835533725 5.0
vertex 29.05 98.2225009252407 5.0
endloop
endfacet
facet normal 0.0 0.0 1.0
outer loop
vertex 28.2422835533725 104.357716446628 5.0
vertex 29.05 98.2225009252407 5.0
vertex 29.05 104.977499074759 5.0
endloop
endfacet
facet normal 0.0 0.0 1.0
outer loop
vertex 29.05 104.977499074759 5.0
vertex 29.05 98.2225009252407 5.0
vertex 29.9906057241002 105.367110722527 5.0
endloop
endfacet
facet normal 0.0 0.0 1.0
outer loop
vertex 29.9906057241002 105.367110722527 5.0
vertex 29.05 98.2225009252407 5.0
vertex 29.9906057241002 97.8328892774726 5.0
endloop
endfacet
facet normal 0.0 0.0 1.0
outer loop
vertex 29.9906057241002 105.367110722527 5.0
vertex 29.9906057241002 97.8328892774726 5.0
vertex 31.0 97.7 5.0
endloop
endfacet
facet normal 0.0 0.0 1.0
outer loop
vertex 29.9906057241002 105.367110722527 5.0
vertex 31.0 97.7 5.0
vertex 31.0 105.5 5.0
endloop
endfacet
facet normal 0.0 0.0 1.0
outer loop
vertex 31.0 105.5 5.0
vertex 31.0 97.7 5.0
vertex 32.0093942758998 97.8328892774726 5.0
endloop
endfacet
facet normal 0.0 0.0 1.0
outer loop
vertex 31.0 105.5 5.0
vertex 32.0093942758998 97.8328892774726 5.0
vertex 32.0093942758998 105.367110722527 5.0
endloop
endfacet
facet normal 0.0 0.0 1.0
outer loop
vertex 32.0093942758998 105.367110722527 5.0
vertex 32.0093942758998 97.8328892774726 5.0
vertex 32.95 104.977499074759 5.0
endloop
endfacet
facet normal 0.0 0.0 1.0
outer loop
vertex 32.95 104.977499074759 5.0
vertex 32.0093942758998 97.8328892774726 5.0
vertex 32.95 98.2225009252407 5.0
endloop
endfacet
facet normal 0.0 0.0 1.0
outer loop
vertex 32.95 104.977499074759 5.0
vertex 32.95 98.2225009252407 5.0
vertex 33.7577164466275 104.357716446628 5.0
endloop
endfacet
facet normal 0.0 0.0 1.0
outer loop
vertex 33.7577164466275 104.357716446628 5.0
vertex 32.95 98.2225009252407 5.0
vertex 33.7577164466275 98.8422835533725 5.0
endloop
endfacet
facet normal 0.0 0.0 1.0
outer loop
vertex 33.7577164466275 104.357716446628 5.0
vertex 33.7577164466275 98.8422835533725 5.0
vertex 34.3774990747593 99.65 5.0
endloop
endfacet
facet normal 0.0 0.0 1.0
outer loop
vertex 33.7577164466275 104.357716446628 5.0
vertex 34.3774990747593 99.65 5.0
vertex 34.3774990747593 103.55 5.0
endloop
endfacet
facet normal 0.0 0.0 1.0
outer loop
vertex 34.3774990747593 103.55 5.0
vertex 34.3774990747593 99.65 5.0
vertex 34.7671107225274 102.6093942759 5.0
endloop
endfacet
facet normal 0.0 0.0 1.0
outer loop
vertex 34.7671107225274 102.6093942759 5.0
vertex 34.3774990747593 99.65 5.0
vertex 34.7671107225274 100.5906057241 5.0
endloop
endfacet
facet normal 0.0 0.0 1.0
outer loop
vertex 34.7671107225274 102.6093942759 5.0
vertex 34.7671107225274 100.5906057241 5.0
vertex 34.9 101.6 5.0
endloop
endfacet
facet normal -1.0 -3.46642174940665e-015 0.0
outer loop
vertex 27.1 101.6 5.0
vertex 27.2328892774726 100.5906057241 0.0
vertex 27.2328892774726 100.5906057241 5.0
endloop
endfacet
facet normal -0.965925826289068 -0.258819045102523 0.0
outer loop
vertex 27.2328892774726 100.5906057241 0.0
vertex 27.1 101.6 5.0
vertex 27.1 101.6 0.0
endloop
endfacet
facet normal -0.965925826289068 -0.258819045102523 0.0
outer loop
vertex 27.2328892774726 100.5906057241 5.0
vertex 27.6225009252407 99.65 0.0
vertex 27.6225009252407 99.65 5.0
endloop
endfacet
facet normal -0.866025403784439 -0.499999999999999 0.0
outer loop
vertex 27.6225009252407 99.65 0.0
vertex 27.2328892774726 100.5906057241 5.0
vertex 27.2328892774726 100.5906057241 0.0
endloop
endfacet
facet normal -0.866025403784439 -0.499999999999999 0.0
outer loop
vertex 27.6225009252407 99.65 5.0
vertex 28.2422835533725 98.8422835533725 0.0
vertex 28.2422835533725 98.8422835533725 5.0
endloop
endfacet
facet normal -0.70710678118655 -0.707106781186546 0.0
outer loop
vertex 28.2422835533725 98.8422835533725 0.0
vertex 27.6225009252407 99.65 5.0
vertex 27.6225009252407 99.65 0.0
endloop
endfacet
facet normal -0.500000000000002 -0.866025403784437 0.0
outer loop
vertex 29.05 98.2225009252407 5.0
vertex 28.2422835533725 98.8422835533725 0.0
vertex 29.05 98.2225009252407 0.0
endloop
endfacet
facet normal -0.70710678118655 -0.707106781186546 0.0
outer loop
vertex 28.2422835533725 98.8422835533725 0.0
vertex 29.05 98.2225009252407 5.0
vertex 28.2422835533725 98.8422835533725 5.0
endloop
endfacet
facet normal -0.258819045102518 -0.965925826289069 0.0
outer loop
vertex 29.9906057241002 97.8328892774726 5.0
vertex 29.05 98.2225009252407 0.0
vertex 29.9906057241002 97.8328892774726 0.0
endloop
endfacet
facet normal -0.500000000000002 -0.866025403784437 0.0
outer loop
vertex 29.05 98.2225009252407 0.0
vertex 29.9906057241002 97.8328892774726 5.0
vertex 29.05 98.2225009252407 5.0
endloop
endfacet
facet normal 0.0 -1.0 0.0
outer loop
vertex 31.0 97.7 5.0
vertex 29.9906057241002 97.8328892774726 0.0
vertex 31.0 97.7 0.0
endloop
endfacet
facet normal -0.258819045102518 -0.965925826289069 0.0
outer loop
vertex 29.9906057241002 97.8328892774726 0.0
vertex 31.0 97.7 5.0
vertex 29.9906057241002 97.8328892774726 5.0
endloop
endfacet
facet normal 0.258819045102517 -0.965925826289069 0.0
outer loop
vertex 32.0093942758998 97.8328892774726 5.0
vertex 31.0 97.7 0.0
vertex 32.0093942758998 97.8328892774726 0.0
endloop
endfacet
facet normal 0.0 -1.0 0.0
outer loop
vertex 31.0 97.7 0.0
vertex 32.0093942758998 97.8328892774726 5.0
vertex 31.0 97.7 5.0
endloop
endfacet
facet normal 0.500000000000003 -0.866025403784437 0.0
outer loop
vertex 32.95 98.2225009252407 5.0
vertex 32.0093942758998 97.8328892774726 0.0
vertex 32.95 98.2225009252407 0.0
endloop
endfacet
facet normal 0.258819045102517 -0.965925826289069 0.0
outer loop
vertex 32.0093942758998 97.8328892774726 0.0
vertex 32.95 98.2225009252407 5.0
vertex 32.0093942758998 97.8328892774726 5.0
endloop
endfacet
facet normal 0.707106781186549 -0.707106781186546 0.0
outer loop
vertex 33.7577164466275 98.8422835533725 5.0
vertex 32.95 98.2225009252407 0.0
vertex 33.7577164466275 98.8422835533725 0.0
endloop
endfacet
facet normal 0.500000000000003 -0.866025403784437 0.0
outer loop
vertex 32.95 98.2225009252407 0.0
vertex 33.7577164466275 98.8422835533725 5.0
vertex 32.95 98.2225009252407 5.0
endloop
endfacet
facet normal 0.866025403784438 -0.500000000000001 0.0
outer loop
vertex 34.3774990747593 99.65 0.0
vertex 33.7577164466275 98.8422835533725 5.0
vertex 33.7577164466275 98.8422835533725 0.0
endloop
endfacet
facet normal 0.707106781186549 -0.707106781186546 0.0
outer loop
vertex 33.7577164466275 98.8422835533725 5.0
vertex 34.3774990747593 99.65 0.0
vertex 34.3774990747593 99.65 5.0
endloop
endfacet
facet normal 0.965925826289068 -0.25881904510252 0.0
outer loop
vertex 34.7671107225274 100.5906057241 0.0
vertex 34.3774990747593 99.65 5.0
vertex 34.3774990747593 99.65 0.0
endloop
endfacet
facet normal 0.866025403784438 -0.500000000000001 0.0
outer loop
vertex 34.3774990747593 99.65 5.0
vertex 34.7671107225274 100.5906057241 0.0
vertex 34.7671107225274 100.5906057241 5.0
endloop
endfacet
facet normal 1.0 2.03173305620749e-015 0.0
outer loop
vertex 34.9 101.6 0.0
vertex 34.7671107225274 100.5906057241 5.0
vertex 34.7671107225274 100.5906057241 0.0
endloop
endfacet
facet normal 0.965925826289068 -0.25881904510252 0.0
outer loop
vertex 34.7671107225274 100.5906057241 5.0
vertex 34.9 101.6 0.0
vertex 34.9 101.6 5.0
endloop
endfacet
facet normal 0.965925826289068 0.258819045102522 0.0
outer loop
vertex 34.7671107225274 102.6093942759 0.0
vertex 34.9 101.6 5.0
vertex 34.9 101.6 0.0
endloop
endfacet
facet normal 1.0 2.03173305620749e-015 0.0
outer loop
vertex 34.9 101.6 5.0
vertex 34.7671107225274 102.6093942759 0.0
vertex 34.7671107225274 102.6093942759 5.0
endloop
endfacet
facet normal 0.866025403784437 0.500000000000002 0.0
outer loop
vertex 34.3774990747593 103.55 0.0
vertex 34.7671107225274 102.6093942759 5.0
vertex 34.7671107225274 102.6093942759 0.0
endloop
endfacet
facet normal 0.965925826289068 0.258819045102522 0.0
outer loop
vertex 34.7671107225274 102.6093942759 5.0
vertex 34.3774990747593 103.55 0.0
vertex 34.3774990747593 103.55 5.0
endloop
endfacet
facet normal 0.707106781186544 0.707106781186551 0.0
outer loop
vertex 33.7577164466275 104.357716446628 0.0
vertex 34.3774990747593 103.55 5.0
vertex 34.3774990747593 103.55 0.0
endloop
endfacet
facet normal 0.866025403784437 0.500000000000002 0.0
outer loop
vertex 34.3774990747593 103.55 5.0
vertex 33.7577164466275 104.357716446628 0.0
vertex 33.7577164466275 104.357716446628 5.0
endloop
endfacet
facet normal 0.500000000000002 0.866025403784437 0.0
outer loop
vertex 32.95 104.977499074759 5.0
vertex 33.7577164466275 104.357716446628 0.0
vertex 32.95 104.977499074759 0.0
endloop
endfacet
facet normal 0.707106781186544 0.707106781186551 0.0
outer loop
vertex 33.7577164466275 104.357716446628 0.0
vertex 32.95 104.977499074759 5.0
vertex 33.7577164466275 104.357716446628 5.0
endloop
endfacet
facet normal 0.258819045102522 0.965925826289068 0.0
outer loop
vertex 32.0093942758998 105.367110722527 5.0
vertex 32.95 104.977499074759 0.0
vertex 32.0093942758998 105.367110722527 0.0
endloop
endfacet
facet normal 0.500000000000002 0.866025403784437 0.0
outer loop
vertex 32.95 104.977499074759 0.0
vertex 32.0093942758998 105.367110722527 5.0
vertex 32.95 104.977499074759 5.0
endloop
endfacet
facet normal 3.56444395825876e-016 1.0 0.0
outer loop
vertex 31.0 105.5 5.0
vertex 32.0093942758998 105.367110722527 0.0
vertex 31.0 105.5 0.0
endloop
endfacet
facet normal 0.258819045102522 0.965925826289068 0.0
outer loop
vertex 32.0093942758998 105.367110722527 0.0
vertex 31.0 105.5 5.0
vertex 32.0093942758998 105.367110722527 5.0
endloop
endfacet
facet normal -0.258819045102522 0.965925826289068 0.0
outer loop
vertex 29.9906057241002 105.367110722527 5.0
vertex 31.0 105.5 0.0
vertex 29.9906057241002 105.367110722527 0.0
endloop
endfacet
facet normal 3.56444395825876e-016 1.0 0.0
outer loop
vertex 31.0 105.5 0.0
vertex 29.9906057241002 105.367110722527 5.0
vertex 31.0 105.5 5.0
endloop
endfacet
facet normal -0.500000000000004 0.866025403784437 0.0
outer loop
vertex 29.05 104.977499074759 5.0
vertex 29.9906057241002 105.367110722527 0.0
vertex 29.05 104.977499074759 0.0
endloop
endfacet
facet normal -0.258819045102522 0.965925826289068 0.0
outer loop
vertex 29.9906057241002 105.367110722527 0.0
vertex 29.05 104.977499074759 5.0
vertex 29.9906057241002 105.367110722527 5.0
endloop
endfacet
facet normal -0.707106781186544 0.707106781186551 0.0
outer loop
vertex 28.2422835533725 104.357716446628 5.0
vertex 29.05 104.977499074759 0.0
vertex 28.2422835533725 104.357716446628 0.0
endloop
endfacet
facet normal -0.500000000000004 0.866025403784437 0.0
outer loop
vertex 29.05 104.977499074759 0.0
vertex 28.2422835533725 104.357716446628 5.0
vertex 29.05 104.977499074759 5.0
endloop
endfacet
facet normal -0.707106781186544 0.707106781186551 0.0
outer loop
vertex 28.2422835533725 104.357716446628 5.0
vertex 27.6225009252407 103.55 0.0
vertex 27.6225009252407 103.55 5.0
endloop
endfacet
facet normal -0.866025403784436 0.500000000000004 0.0
outer loop
vertex 27.6225009252407 103.55 0.0
vertex 28.2422835533725 104.357716446628 5.0
vertex 28.2422835533725 104.357716446628 0.0
endloop
endfacet
facet normal -0.866025403784436 0.500000000000004 0.0
outer loop
vertex 27.6225009252407 103.55 5.0
vertex 27.2328892774726 102.6093942759 0.0
vertex 27.2328892774726 102.6093942759 5.0
endloop
endfacet
facet normal -0.965925826289069 0.258819045102519 0.0
outer loop
vertex 27.2328892774726 102.6093942759 0.0
vertex 27.6225009252407 103.55 5.0
vertex 27.6225009252407 103.55 0.0
endloop
endfacet
facet normal -0.965925826289069 0.258819045102519 0.0
outer loop
vertex 27.2328892774726 102.6093942759 5.0
vertex 27.1 101.6 0.0
vertex 27.1 101.6 5.0
endloop
endfacet
facet normal -1.0 -3.46642174940665e-015 0.0
outer loop
vertex 27.1 101.6 0.0
vertex 27.2328892774726 102.6093942759 5.0
vertex 27.2328892774726 102.6093942759 0.0
endloop
endfacet
facet normal 0.0 0.0 1.0
outer loop
vertex -8.76711072252736 100.5906057241 5.0
vertex -8.76711072252736 102.6093942759 5.0
vertex -8.9 101.6 5.0
endloop
endfacet
facet normal 0.0 0.0 1.0
outer loop
vertex -8.76711072252736 102.6093942759 5.0
vertex -8.76711072252736 100.5906057241 5.0
vertex -8.37749907475931 103.55 5.0
endloop
endfacet
facet normal 0.0 0.0 1.0
outer loop
vertex -8.37749907475931 103.55 5.0
vertex -8.76711072252736 100.5906057241 5.0
vertex -8.37749907475931 99.65 5.0
endloop
endfacet
facet normal 0.0 0.0 1.0
outer loop
vertex -8.37749907475931 103.55 5.0
vertex -8.37749907475931 99.65 5.0
vertex -7.75771644662753 98.8422835533725 5.0
endloop
endfacet
facet normal 0.0 0.0 1.0
outer loop
vertex -8.37749907475931 103.55 5.0
vertex -7.75771644662753 98.8422835533725 5.0
vertex -7.75771644662753 104.357716446628 5.0
endloop
endfacet
facet normal 0.0 0.0 1.0
outer loop
vertex -7.75771644662753 104.357716446628 5.0
vertex -7.75771644662753 98.8422835533725 5.0
vertex -6.95 104.977499074759 5.0
endloop
endfacet
facet normal 0.0 0.0 1.0
outer loop
vertex -6.95 104.977499074759 5.0
vertex -7.75771644662753 98.8422835533725 5.0
vertex -6.95 98.2225009252407 5.0
endloop
endfacet
facet normal 0.0 0.0 1.0
outer loop
vertex -6.95 104.977499074759 5.0
vertex -6.95 98.2225009252407 5.0
vertex -6.00939427589983 105.367110722527 5.0
endloop
endfacet
facet normal 0.0 0.0 1.0
outer loop
vertex -6.00939427589983 105.367110722527 5.0
vertex -6.95 98.2225009252407 5.0
vertex -6.00939427589983 97.8328892774726 5.0
endloop
endfacet
facet normal 0.0 0.0 1.0
outer loop
vertex -6.00939427589983 105.367110722527 5.0
vertex -6.00939427589983 97.8328892774726 5.0
vertex -5.0 105.5 5.0
endloop
endfacet
facet normal 0.0 0.0 1.0
outer loop
vertex -5.0 105.5 5.0
vertex -6.00939427589983 97.8328892774726 5.0
vertex -5.0 97.7 5.0
endloop
endfacet
facet normal 0.0 0.0 1.0
outer loop
vertex -5.0 105.5 5.0
vertex -5.0 97.7 5.0
vertex -3.99060572410017 105.367110722527 5.0
endloop
endfacet
facet normal 0.0 0.0 1.0
outer loop
vertex -3.99060572410017 105.367110722527 5.0
vertex -5.0 97.7 5.0
vertex -3.99060572410017 97.8328892774726 5.0
endloop
endfacet
facet normal 0.0 0.0 1.0
outer loop
vertex -3.99060572410017 105.367110722527 5.0
vertex -3.99060572410017 97.8328892774726 5.0
vertex -3.05 104.977499074759 5.0
endloop
endfacet
facet normal 0.0 0.0 1.0
outer loop
vertex -3.05 104.977499074759 5.0
vertex -3.99060572410017 97.8328892774726 5.0
vertex -3.05 98.2225009252407 5.0
endloop
endfacet
facet normal 0.0 0.0 1.0
outer loop
vertex -3.05 104.977499074759 5.0
vertex -3.05 98.2225009252407 5.0
vertex -2.24228355337246 104.357716446628 5.0
endloop
endfacet
facet normal 0.0 0.0 1.0
outer loop
vertex -2.24228355337246 104.357716446628 5.0
vertex -3.05 98.2225009252407 5.0
vertex -2.24228355337246 98.8422835533725 5.0
endloop
endfacet
facet normal 0.0 0.0 1.0
outer loop
vertex -2.24228355337246 104.357716446628 5.0
vertex -2.24228355337246 98.8422835533725 5.0
vertex -1.62250092524069 103.55 5.0
endloop
endfacet
facet normal 0.0 0.0 1.0
outer loop
vertex -1.62250092524069 103.55 5.0
vertex -2.24228355337246 98.8422835533725 5.0
vertex -1.62250092524069 99.65 5.0
endloop
endfacet
facet normal 0.0 0.0 1.0
outer loop
vertex -1.62250092524069 103.55 5.0
vertex -1.62250092524069 99.65 5.0
vertex -1.23288927747263 102.6093942759 5.0
endloop
endfacet
facet normal 0.0 0.0 1.0
outer loop
vertex -1.23288927747263 102.6093942759 5.0
vertex -1.62250092524069 99.65 5.0
vertex -1.23288927747263 100.5906057241 5.0
endloop
endfacet
facet normal 0.0 0.0 1.0
outer loop
vertex -1.23288927747263 102.6093942759 5.0
vertex -1.23288927747263 100.5906057241 5.0
vertex -1.1 101.6 5.0
endloop
endfacet
facet normal 0.499999999999999 -0.866025403784439 0.0
outer loop
vertex -3.05 98.2225009252407 5.0
vertex -3.99060572410017 97.8328892774726 0.0
vertex -3.05 98.2225009252407 0.0
endloop
endfacet
facet normal 0.258819045102523 -0.965925826289068 0.0
outer loop
vertex -3.99060572410017 97.8328892774726 0.0
vertex -3.05 98.2225009252407 5.0
vertex -3.99060572410017 97.8328892774726 5.0
endloop
endfacet
facet normal 0.707106781186548 -0.707106781186547 0.0
outer loop
vertex -2.24228355337246 98.8422835533725 5.0
vertex -3.05 98.2225009252407 0.0
vertex -2.24228355337246 98.8422835533725 0.0
endloop
endfacet
facet normal 0.499999999999999 -0.866025403784439 0.0
outer loop
vertex -3.05 98.2225009252407 0.0
vertex -2.24228355337246 98.8422835533725 5.0
vertex -3.05 98.2225009252407 5.0
endloop
endfacet
facet normal 0.86602540378444 -0.499999999999998 0.0
outer loop
vertex -1.62250092524069 99.65 0.0
vertex -2.24228355337246 98.8422835533725 5.0
vertex -2.24228355337246 98.8422835533725 0.0
endloop
endfacet
facet normal 0.707106781186548 -0.707106781186547 0.0
outer loop
vertex -2.24228355337246 98.8422835533725 5.0
vertex -1.62250092524069 99.65 0.0
vertex -1.62250092524069 99.65 5.0
endloop
endfacet
facet normal 0.965925826289068 -0.258819045102521 0.0
outer loop
vertex -1.23288927747263 100.5906057241 0.0
vertex -1.62250092524069 99.65 5.0
vertex -1.62250092524069 99.65 0.0
endloop
endfacet
facet normal 0.86602540378444 -0.499999999999998 0.0
outer loop
vertex -1.62250092524069 99.65 5.0
vertex -1.23288927747263 100.5906057241 0.0
vertex -1.23288927747263 100.5906057241 5.0
endloop
endfacet
facet normal 1.0 -3.7426661561717e-016 0.0
outer loop
vertex -1.1 101.6 0.0
vertex -1.23288927747263 100.5906057241 5.0
vertex -1.23288927747263 100.5906057241 0.0
endloop
endfacet
facet normal 0.965925826289068 -0.258819045102521 0.0
outer loop
vertex -1.23288927747263 100.5906057241 5.0
vertex -1.1 101.6 0.0
vertex -1.1 101.6 5.0
endloop
endfacet
facet normal 0.965925826289068 0.258819045102521 0.0
outer loop
vertex -1.23288927747263 102.6093942759 0.0
vertex -1.1 101.6 5.0
vertex -1.1 101.6 0.0
endloop
endfacet
facet normal 1.0 -3.7426661561717e-016 0.0
outer loop
vertex -1.1 101.6 5.0
vertex -1.23288927747263 102.6093942759 0.0
vertex -1.23288927747263 102.6093942759 5.0
endloop
endfacet
facet normal 0.866025403784437 0.500000000000004 0.0
outer loop
vertex -1.62250092524069 103.55 0.0
vertex -1.23288927747263 102.6093942759 5.0
vertex -1.23288927747263 102.6093942759 0.0
endloop
endfacet
facet normal 0.965925826289068 0.258819045102521 0.0
outer loop
vertex -1.23288927747263 102.6093942759 5.0
vertex -1.62250092524069 103.55 0.0
vertex -1.62250092524069 103.55 5.0
endloop
endfacet
facet normal 0.707106781186549 0.707106781186546 0.0
outer loop
vertex -2.24228355337246 104.357716446628 0.0
vertex -1.62250092524069 103.55 5.0
vertex -1.62250092524069 103.55 0.0
endloop
endfacet
facet normal 0.866025403784437 0.500000000000004 0.0
outer loop
vertex -1.62250092524069 103.55 5.0
vertex -2.24228355337246 104.357716446628 0.0
vertex -2.24228355337246 104.357716446628 5.0
endloop
endfacet
facet normal 0.500000000000001 0.866025403784438 0.0
outer loop
vertex -3.05 104.977499074759 5.0
vertex -2.24228355337246 104.357716446628 0.0
vertex -3.05 104.977499074759 0.0
endloop
endfacet
facet normal 0.707106781186549 0.707106781186546 0.0
outer loop
vertex -2.24228355337246 104.357716446628 0.0
vertex -3.05 104.977499074759 5.0
vertex -2.24228355337246 104.357716446628 5.0
endloop
endfacet
facet normal 0.258819045102513 0.965925826289071 0.0
outer loop
vertex -3.99060572410017 105.367110722527 5.0
vertex -3.05 104.977499074759 0.0
vertex -3.99060572410017 105.367110722527 0.0
endloop
endfacet
facet normal 0.500000000000001 0.866025403784438 0.0
outer loop
vertex -3.05 104.977499074759 0.0
vertex -3.99060572410017 105.367110722527 5.0
vertex -3.05 104.977499074759 5.0
endloop
endfacet
facet normal 1.78222197912938e-016 1.0 0.0
outer loop
vertex -5.0 105.5 5.0
vertex -3.99060572410017 105.367110722527 0.0
vertex -5.0 105.5 0.0
endloop
endfacet
facet normal 0.258819045102513 0.965925826289071 0.0
outer loop
vertex -3.99060572410017 105.367110722527 0.0
vertex -5.0 105.5 5.0
vertex -3.99060572410017 105.367110722527 5.0
endloop
endfacet
facet normal -0.258819045102522 0.965925826289068 0.0
outer loop
vertex -6.00939427589983 105.367110722527 5.0
vertex -5.0 105.5 0.0
vertex -6.00939427589983 105.367110722527 0.0
endloop
endfacet
facet normal 1.78222197912938e-016 1.0 0.0
outer loop
vertex -5.0 105.5 0.0
vertex -6.00939427589983 105.367110722527 5.0
vertex -5.0 105.5 5.0
endloop
endfacet
facet normal -0.500000000000003 0.866025403784437 0.0
outer loop
vertex -6.95 104.977499074759 5.0
vertex -6.00939427589983 105.367110722527 0.0
vertex -6.95 104.977499074759 0.0
endloop
endfacet
facet normal -0.258819045102522 0.965925826289068 0.0
outer loop
vertex -6.00939427589983 105.367110722527 0.0
vertex -6.95 104.977499074759 5.0
vertex -6.00939427589983 105.367110722527 5.0
endloop
endfacet
facet normal -0.707106781186544 0.707106781186551 0.0
outer loop
vertex -7.75771644662753 104.357716446628 5.0
vertex -6.95 104.977499074759 0.0
vertex -7.75771644662753 104.357716446628 0.0
endloop
endfacet
facet normal -0.500000000000003 0.866025403784437 0.0
outer loop
vertex -6.95 104.977499074759 0.0
vertex -7.75771644662753 104.357716446628 5.0
vertex -6.95 104.977499074759 5.0
endloop
endfacet
facet normal -0.707106781186544 0.707106781186551 0.0
outer loop
vertex -7.75771644662753 104.357716446628 5.0
vertex -8.37749907475931 103.55 0.0
vertex -8.37749907475931 103.55 5.0
endloop
endfacet
facet normal -0.866025403784437 0.500000000000003 0.0
outer loop
vertex -8.37749907475931 103.55 0.0
vertex -7.75771644662753 104.357716446628 5.0
vertex -7.75771644662753 104.357716446628 0.0
endloop
endfacet
facet normal -0.866025403784437 0.500000000000003 0.0
outer loop
vertex -8.37749907475931 103.55 5.0
vertex -8.76711072252736 102.6093942759 0.0
vertex -8.76711072252736 102.6093942759 5.0
endloop
endfacet
facet normal -0.965925826289068 0.258819045102521 0.0
outer loop
vertex -8.76711072252736 102.6093942759 0.0
vertex -8.37749907475931 103.55 5.0
vertex -8.37749907475931 103.55 0.0
endloop
endfacet
facet normal -0.965925826289068 0.258819045102521 0.0
outer loop
vertex -8.76711072252736 102.6093942759 5.0
vertex -8.9 101.6 0.0
vertex -8.9 101.6 5.0
endloop
endfacet
facet normal -1.0 -1.41686647340786e-015 0.0
outer loop
vertex -8.9 101.6 0.0
vertex -8.76711072252736 102.6093942759 5.0
vertex -8.76711072252736 102.6093942759 0.0
endloop
endfacet
facet normal -1.0 -1.41686647340786e-015 0.0
outer loop
vertex -8.9 101.6 5.0
vertex -8.76711072252736 100.5906057241 0.0
vertex -8.76711072252736 100.5906057241 5.0
endloop
endfacet
facet normal -0.965925826289068 -0.258819045102521 0.0
outer loop
vertex -8.76711072252736 100.5906057241 0.0
vertex -8.9 101.6 5.0
vertex -8.9 101.6 0.0
endloop
endfacet
facet normal -0.965925826289068 -0.258819045102521 0.0
outer loop
vertex -8.76711072252736 100.5906057241 5.0
vertex -8.37749907475931 99.65 0.0
vertex -8.37749907475931 99.65 5.0
endloop
endfacet
facet normal -0.86602540378444 -0.499999999999998 0.0
outer loop
vertex -8.37749907475931 99.65 0.0
vertex -8.76711072252736 100.5906057241 5.0
vertex -8.76711072252736 100.5906057241 0.0
endloop
endfacet
facet normal -0.86602540378444 -0.499999999999998 0.0
outer loop
vertex -8.37749907475931 99.65 5.0
vertex -7.75771644662753 98.8422835533725 0.0
vertex -7.75771644662753 98.8422835533725 5.0
endloop
endfacet
facet normal -0.707106781186548 -0.707106781186547 0.0
outer loop
vertex -7.75771644662753 98.8422835533725 0.0
vertex -8.37749907475931 99.65 5.0
vertex -8.37749907475931 99.65 0.0
endloop
endfacet
facet normal -0.499999999999999 -0.866025403784439 0.0
outer loop
vertex -6.95 98.2225009252407 5.0
vertex -7.75771644662753 98.8422835533725 0.0
vertex -6.95 98.2225009252407 0.0
endloop
endfacet
facet normal -0.707106781186548 -0.707106781186547 0.0
outer loop
vertex -7.75771644662753 98.8422835533725 0.0
vertex -6.95 98.2225009252407 5.0
vertex -7.75771644662753 98.8422835533725 5.0
endloop
endfacet
facet normal -0.258819045102523 -0.965925826289068 0.0
outer loop
vertex -6.00939427589983 97.8328892774726 5.0
vertex -6.95 98.2225009252407 0.0
vertex -6.00939427589983 97.8328892774726 0.0
endloop
endfacet
facet normal -0.499999999999999 -0.866025403784439 0.0
outer loop
vertex -6.95 98.2225009252407 0.0
vertex -6.00939427589983 97.8328892774726 5.0
vertex -6.95 98.2225009252407 5.0
endloop
endfacet
facet normal -3.56444395825876e-017 -1.0 0.0
outer loop
vertex -5.0 97.7 5.0
vertex -6.00939427589983 97.8328892774726 0.0
vertex -5.0 97.7 0.0
endloop
endfacet
facet normal -0.258819045102523 -0.965925826289068 0.0
outer loop
vertex -6.00939427589983 97.8328892774726 0.0
vertex -5.0 97.7 5.0
vertex -6.00939427589983 97.8328892774726 5.0
endloop
endfacet
facet normal 0.258819045102523 -0.965925826289068 0.0
outer loop
vertex -3.99060572410017 97.8328892774726 5.0
vertex -5.0 97.7 0.0
vertex -3.99060572410017 97.8328892774726 0.0
endloop
endfacet
facet normal -3.56444395825876e-017 -1.0 0.0
outer loop
vertex -5.0 97.7 0.0
vertex -3.99060572410017 97.8328892774726 5.0
vertex -5.0 97.7 5.0
endloop
endfacet
endsolid iPhone5
